<?xml version="1.0" encoding="utf-8"?>
<!-- Generator: Adobe Illustrator 24.0.0, SVG Export Plug-In . SVG Version: 6.00 Build 0)  -->
<svg version="1.1" id="Layer_1" xmlns="http://www.w3.org/2000/svg" xmlns:xlink="http://www.w3.org/1999/xlink" x="0px" y="0px"
	 viewBox="0 0 266 77" style="enable-background:new 0 0 266 77;" xml:space="preserve">
<style type="text/css">
	.st0{fill:none;}
	.st1{fill:#04559F;}
	.st2{fill:#3865B0;}
	.st3{fill:#0062DD;}
	.st4{fill:#FFFFFF;}
	.st5{fill:#34384C;}
</style>
<g>
	<path class="st5" d="M65.9,57.1h2.8l0.6-3.1h1.4l-0.6,3.1h1.5v1.3h-1.8l-0.6,3.1h2.4v1.3H69l-0.6,3.1H67l0.6-3.1h-2.8l-0.6,3.1
		h-1.4l0.6-3.1h-1.5v-1.3h1.8l0.6-3.1h-2.3v-1.3h2.6L65,54h1.4L65.9,57.1z M65,61.5h2.8l0.6-3.1h-2.8L65,61.5z"/>
	<path class="st5" d="M81.1,65.9c-0.3-0.8-0.7-1.8-1-2.8c-0.4-1.1-0.7-2.2-1-3.3c-0.3,1.1-0.6,2.2-1,3.3c-0.4,1.1-0.7,2-1,2.8h-1.4
		c-0.5-1.2-1-2.5-1.5-4c-0.5-1.5-1-3.1-1.4-4.9h1.7c0.1,0.5,0.3,1.1,0.4,1.8s0.3,1.3,0.5,1.9c0.2,0.6,0.4,1.2,0.6,1.8
		c0.2,0.6,0.4,1.1,0.6,1.5c0.2-0.5,0.4-1.1,0.6-1.7c0.2-0.6,0.4-1.2,0.5-1.8c0.2-0.6,0.3-1.2,0.5-1.8c0.2-0.6,0.3-1.1,0.4-1.7h1.3
		c0.1,0.5,0.2,1.1,0.4,1.7c0.1,0.6,0.3,1.2,0.5,1.8c0.2,0.6,0.4,1.2,0.5,1.8c0.2,0.6,0.4,1.2,0.6,1.7c0.2-0.4,0.4-0.9,0.5-1.5
		c0.2-0.6,0.4-1.2,0.6-1.8c0.2-0.6,0.4-1.3,0.5-1.9c0.2-0.6,0.3-1.2,0.4-1.8h1.7c-0.4,1.8-0.9,3.4-1.4,4.9c-0.5,1.5-1,2.9-1.5,4
		H81.1z"/>
	<path class="st5" d="M86.7,61.4c0-0.8,0.1-1.5,0.3-2.1c0.2-0.6,0.5-1.1,0.9-1.5c0.4-0.4,0.8-0.7,1.3-0.9c0.5-0.2,1-0.3,1.5-0.3
		c1.2,0,2.1,0.4,2.8,1.1c0.6,0.8,1,1.9,1,3.4c0,0.1,0,0.2,0,0.3c0,0.1,0,0.2,0,0.3h-6.1c0.1,0.9,0.3,1.6,0.8,2.1s1.2,0.7,2.2,0.7
		c0.6,0,1,0,1.4-0.1c0.4-0.1,0.7-0.2,0.9-0.3l0.2,1.3c-0.2,0.1-0.5,0.2-1,0.3c-0.5,0.1-1,0.2-1.7,0.2c-0.8,0-1.5-0.1-2-0.4
		c-0.6-0.2-1-0.6-1.4-1c-0.4-0.4-0.6-0.9-0.8-1.5C86.8,62.7,86.7,62.1,86.7,61.4z M92.8,60.6c0-0.7-0.2-1.3-0.5-1.8
		c-0.4-0.5-0.9-0.7-1.5-0.7c-0.4,0-0.7,0.1-1,0.2c-0.3,0.1-0.5,0.3-0.7,0.6c-0.2,0.2-0.3,0.5-0.5,0.8c-0.1,0.3-0.2,0.6-0.2,0.9H92.8
		z"/>
	<path class="st5" d="M95.4,67.7h8.6v1.4h-8.6V67.7z"/>
	<path class="st5" d="M111.1,52.8l1.6-0.3v13.1c-0.4,0.1-0.8,0.2-1.4,0.3c-0.6,0.1-1.2,0.2-2,0.2c-0.7,0-1.3-0.1-1.9-0.3
		c-0.6-0.2-1-0.5-1.4-0.9c-0.4-0.4-0.7-0.9-0.9-1.5c-0.2-0.6-0.3-1.2-0.3-2c0-0.7,0.1-1.3,0.3-1.9c0.2-0.6,0.4-1.1,0.8-1.5
		c0.3-0.4,0.8-0.7,1.3-1c0.5-0.2,1.1-0.3,1.7-0.3c0.5,0,1,0.1,1.4,0.2c0.4,0.1,0.7,0.3,0.9,0.4V52.8z M111.1,58.8
		c-0.2-0.2-0.5-0.3-0.8-0.5c-0.4-0.1-0.8-0.2-1.2-0.2c-0.5,0-0.9,0.1-1.2,0.2c-0.3,0.2-0.6,0.4-0.8,0.7c-0.2,0.3-0.4,0.6-0.4,1
		c-0.1,0.4-0.1,0.8-0.1,1.3c0,1,0.3,1.8,0.8,2.4s1.2,0.9,2.1,0.9c0.4,0,0.8,0,1.1-0.1c0.3,0,0.5-0.1,0.7-0.1V58.8z"/>
	<path class="st5" d="M114.9,61.4c0-0.8,0.1-1.5,0.3-2.1c0.2-0.6,0.5-1.1,0.9-1.5c0.4-0.4,0.8-0.7,1.3-0.9c0.5-0.2,1-0.3,1.5-0.3
		c1.2,0,2.1,0.4,2.8,1.1c0.6,0.8,1,1.9,1,3.4c0,0.1,0,0.2,0,0.3c0,0.1,0,0.2,0,0.3h-6.1c0.1,0.9,0.3,1.6,0.8,2.1s1.2,0.7,2.2,0.7
		c0.6,0,1,0,1.4-0.1c0.4-0.1,0.7-0.2,0.9-0.3l0.2,1.3c-0.2,0.1-0.5,0.2-1,0.3c-0.5,0.1-1,0.2-1.7,0.2c-0.8,0-1.5-0.1-2-0.4
		c-0.6-0.2-1-0.6-1.4-1c-0.4-0.4-0.6-0.9-0.8-1.5C115,62.7,114.9,62.1,114.9,61.4z M121.1,60.6c0-0.7-0.2-1.3-0.5-1.8
		c-0.4-0.5-0.9-0.7-1.5-0.7c-0.4,0-0.7,0.1-1,0.2c-0.3,0.1-0.5,0.3-0.7,0.6c-0.2,0.2-0.3,0.5-0.5,0.8c-0.1,0.3-0.2,0.6-0.2,0.9
		H121.1z"/>
	<path class="st5" d="M128.9,66.1c-0.7,0-1.4-0.1-1.9-0.3c-0.5-0.2-1-0.5-1.4-1c-0.4-0.4-0.7-0.9-0.8-1.5c-0.2-0.6-0.3-1.2-0.3-1.9
		s0.1-1.3,0.3-1.9c0.2-0.6,0.5-1.1,0.9-1.5c0.4-0.4,0.8-0.7,1.4-1s1.1-0.4,1.8-0.4c0.4,0,0.8,0,1.2,0.1c0.4,0.1,0.8,0.2,1.2,0.3
		l-0.4,1.4c-0.2-0.1-0.5-0.2-0.8-0.3s-0.7-0.1-1-0.1c-0.9,0-1.6,0.3-2.1,0.8c-0.5,0.6-0.7,1.4-0.7,2.5c0,0.5,0.1,0.9,0.2,1.3
		c0.1,0.4,0.3,0.7,0.5,1c0.2,0.3,0.5,0.5,0.9,0.7c0.4,0.2,0.8,0.2,1.3,0.2c0.4,0,0.8,0,1.2-0.1c0.3-0.1,0.6-0.2,0.8-0.3l0.2,1.3
		c-0.1,0.1-0.2,0.1-0.4,0.2c-0.2,0.1-0.4,0.1-0.6,0.1c-0.2,0-0.5,0.1-0.7,0.1C129.4,66.1,129.1,66.1,128.9,66.1z"/>
	<path class="st5" d="M133.8,55.3c-0.3,0-0.5-0.1-0.7-0.3c-0.2-0.2-0.3-0.4-0.3-0.8c0-0.3,0.1-0.6,0.3-0.8c0.2-0.2,0.4-0.3,0.7-0.3
		c0.3,0,0.5,0.1,0.7,0.3c0.2,0.2,0.3,0.4,0.3,0.8c0,0.3-0.1,0.6-0.3,0.8S134.1,55.3,133.8,55.3z M134.6,65.9H133v-8.9h1.6V65.9z"/>
	<path class="st5" d="M143.2,52.8l1.6-0.3v13.1c-0.4,0.1-0.8,0.2-1.4,0.3c-0.6,0.1-1.2,0.2-2,0.2c-0.7,0-1.3-0.1-1.9-0.3
		c-0.6-0.2-1-0.5-1.4-0.9c-0.4-0.4-0.7-0.9-0.9-1.5c-0.2-0.6-0.3-1.2-0.3-2c0-0.7,0.1-1.3,0.3-1.9c0.2-0.6,0.4-1.1,0.8-1.5
		c0.3-0.4,0.8-0.7,1.3-1c0.5-0.2,1.1-0.3,1.7-0.3c0.5,0,1,0.1,1.4,0.2c0.4,0.1,0.7,0.3,0.9,0.4V52.8z M143.2,58.8
		c-0.2-0.2-0.5-0.3-0.8-0.5c-0.4-0.1-0.8-0.2-1.2-0.2c-0.5,0-0.9,0.1-1.2,0.2c-0.3,0.2-0.6,0.4-0.8,0.7c-0.2,0.3-0.4,0.6-0.4,1
		c-0.1,0.4-0.1,0.8-0.1,1.3c0,1,0.3,1.8,0.8,2.4s1.2,0.9,2.1,0.9c0.4,0,0.8,0,1.1-0.1c0.3,0,0.5-0.1,0.7-0.1V58.8z"/>
	<path class="st5" d="M147,61.4c0-0.8,0.1-1.5,0.3-2.1c0.2-0.6,0.5-1.1,0.9-1.5c0.4-0.4,0.8-0.7,1.3-0.9c0.5-0.2,1-0.3,1.5-0.3
		c1.2,0,2.1,0.4,2.8,1.1c0.6,0.8,1,1.9,1,3.4c0,0.1,0,0.2,0,0.3c0,0.1,0,0.2,0,0.3h-6.1c0.1,0.9,0.3,1.6,0.8,2.1s1.2,0.7,2.2,0.7
		c0.6,0,1,0,1.4-0.1c0.4-0.1,0.7-0.2,0.9-0.3l0.2,1.3c-0.2,0.1-0.5,0.2-1,0.3c-0.5,0.1-1,0.2-1.7,0.2c-0.8,0-1.5-0.1-2-0.4
		c-0.6-0.2-1-0.6-1.4-1c-0.4-0.4-0.6-0.9-0.8-1.5C147.1,62.7,147,62.1,147,61.4z M153.1,60.6c0-0.7-0.2-1.3-0.5-1.8
		c-0.4-0.5-0.9-0.7-1.5-0.7c-0.4,0-0.7,0.1-1,0.2c-0.3,0.1-0.5,0.3-0.7,0.6c-0.2,0.2-0.3,0.5-0.5,0.8c-0.1,0.3-0.2,0.6-0.2,0.9
		H153.1z"/>
	<path class="st5" d="M162.9,52.8l1.6-0.3v13.1c-0.4,0.1-0.8,0.2-1.4,0.3c-0.6,0.1-1.2,0.2-2,0.2c-0.7,0-1.3-0.1-1.9-0.3
		c-0.6-0.2-1-0.5-1.4-0.9c-0.4-0.4-0.7-0.9-0.9-1.5c-0.2-0.6-0.3-1.2-0.3-2c0-0.7,0.1-1.3,0.3-1.9c0.2-0.6,0.4-1.1,0.8-1.5
		c0.3-0.4,0.8-0.7,1.3-1c0.5-0.2,1.1-0.3,1.7-0.3c0.5,0,1,0.1,1.4,0.2c0.4,0.1,0.7,0.3,0.9,0.4V52.8z M162.9,58.8
		c-0.2-0.2-0.5-0.3-0.8-0.5c-0.4-0.1-0.8-0.2-1.2-0.2c-0.5,0-0.9,0.1-1.2,0.2c-0.3,0.2-0.6,0.4-0.8,0.7c-0.2,0.3-0.4,0.6-0.4,1
		c-0.1,0.4-0.1,0.8-0.1,1.3c0,1,0.3,1.8,0.8,2.4s1.2,0.9,2.1,0.9c0.4,0,0.8,0,1.1-0.1c0.3,0,0.5-0.1,0.7-0.1V58.8z"/>
	<path class="st5" d="M165.8,67.7h8.6v1.4h-8.6V67.7z"/>
	<path class="st5" d="M179.2,52.5c0.5,0,0.9,0,1.2,0.1c0.3,0.1,0.6,0.1,0.7,0.2l-0.3,1.4c-0.1-0.1-0.3-0.1-0.6-0.2
		c-0.3-0.1-0.6-0.1-0.9-0.1c-0.7,0-1.3,0.2-1.6,0.6c-0.3,0.4-0.4,1-0.4,1.6v0.8h3.4v1.3h-3.4v7.6h-1.6v-9.8c0-1.1,0.3-2,0.8-2.7
		S178,52.5,179.2,52.5z"/>
	<path class="st5" d="M190.2,61.4c0,0.7-0.1,1.4-0.3,1.9c-0.2,0.6-0.5,1.1-0.9,1.5c-0.4,0.4-0.8,0.7-1.3,1c-0.5,0.2-1.1,0.3-1.7,0.3
		s-1.2-0.1-1.7-0.3c-0.5-0.2-1-0.5-1.3-1c-0.4-0.4-0.7-0.9-0.9-1.5c-0.2-0.6-0.3-1.2-0.3-1.9c0-0.7,0.1-1.3,0.3-1.9
		c0.2-0.6,0.5-1.1,0.9-1.5c0.4-0.4,0.8-0.7,1.3-1s1.1-0.3,1.7-0.3s1.2,0.1,1.7,0.3c0.5,0.2,1,0.5,1.3,1c0.4,0.4,0.7,0.9,0.9,1.5
		C190.1,60.1,190.2,60.7,190.2,61.4z M188.6,61.4c0-1-0.2-1.8-0.7-2.4s-1.1-0.9-1.8-0.9s-1.4,0.3-1.8,0.9s-0.7,1.4-0.7,2.4
		c0,1,0.2,1.8,0.7,2.4c0.5,0.6,1.1,0.9,1.8,0.9s1.4-0.3,1.8-0.9C188.4,63.2,188.6,62.4,188.6,61.4z"/>
	<path class="st5" d="M195.8,56.8c0.1,0,0.3,0,0.5,0c0.2,0,0.4,0,0.5,0.1s0.3,0.1,0.5,0.1c0.1,0,0.2,0.1,0.3,0.1l-0.3,1.4
		c-0.1,0-0.3-0.1-0.6-0.2c-0.3-0.1-0.7-0.1-1.1-0.1c-0.3,0-0.6,0-0.9,0.1c-0.3,0.1-0.5,0.1-0.6,0.1v7.5h-1.6v-8.6
		c0.4-0.1,0.8-0.3,1.4-0.4C194.5,56.8,195.1,56.8,195.8,56.8z"/>
	<path class="st5" d="M198.6,61.4c0-0.8,0.1-1.5,0.3-2.1c0.2-0.6,0.5-1.1,0.9-1.5c0.4-0.4,0.8-0.7,1.3-0.9c0.5-0.2,1-0.3,1.5-0.3
		c1.2,0,2.1,0.4,2.8,1.1c0.6,0.8,1,1.9,1,3.4c0,0.1,0,0.2,0,0.3c0,0.1,0,0.2,0,0.3h-6.1c0.1,0.9,0.3,1.6,0.8,2.1s1.2,0.7,2.2,0.7
		c0.6,0,1,0,1.4-0.1c0.4-0.1,0.7-0.2,0.9-0.3l0.2,1.3c-0.2,0.1-0.5,0.2-1,0.3c-0.5,0.1-1,0.2-1.7,0.2c-0.8,0-1.5-0.1-2-0.4
		c-0.6-0.2-1-0.6-1.4-1c-0.4-0.4-0.6-0.9-0.8-1.5C198.7,62.7,198.6,62.1,198.6,61.4z M204.8,60.6c0-0.7-0.2-1.3-0.5-1.8
		c-0.4-0.5-0.9-0.7-1.5-0.7c-0.4,0-0.7,0.1-1,0.2c-0.3,0.1-0.5,0.3-0.7,0.6c-0.2,0.2-0.3,0.5-0.5,0.8c-0.1,0.3-0.2,0.6-0.2,0.9
		H204.8z"/>
	<path class="st5" d="M216.1,65.9c-0.3-0.8-0.7-1.8-1-2.8c-0.4-1.1-0.7-2.2-1-3.3c-0.3,1.1-0.6,2.2-1,3.3c-0.4,1.1-0.7,2-1,2.8h-1.4
		c-0.5-1.2-1-2.5-1.5-4c-0.5-1.5-1-3.1-1.4-4.9h1.7c0.1,0.5,0.3,1.1,0.4,1.8s0.3,1.3,0.5,1.9c0.2,0.6,0.4,1.2,0.6,1.8
		c0.2,0.6,0.4,1.1,0.6,1.5c0.2-0.5,0.4-1.1,0.6-1.7c0.2-0.6,0.4-1.2,0.5-1.8c0.2-0.6,0.3-1.2,0.5-1.8c0.2-0.6,0.3-1.1,0.4-1.7h1.3
		c0.1,0.5,0.2,1.1,0.4,1.7c0.1,0.6,0.3,1.2,0.5,1.8c0.2,0.6,0.4,1.2,0.5,1.8c0.2,0.6,0.4,1.2,0.6,1.7c0.2-0.4,0.4-0.9,0.5-1.5
		c0.2-0.6,0.4-1.2,0.6-1.8c0.2-0.6,0.4-1.3,0.5-1.9c0.2-0.6,0.3-1.2,0.4-1.8h1.7c-0.4,1.8-0.9,3.4-1.4,4.9c-0.5,1.5-1,2.9-1.5,4
		H216.1z"/>
	<path class="st5" d="M221.6,61.4c0-0.8,0.1-1.5,0.3-2.1c0.2-0.6,0.5-1.1,0.9-1.5c0.4-0.4,0.8-0.7,1.3-0.9c0.5-0.2,1-0.3,1.5-0.3
		c1.2,0,2.1,0.4,2.8,1.1c0.6,0.8,1,1.9,1,3.4c0,0.1,0,0.2,0,0.3c0,0.1,0,0.2,0,0.3h-6.1c0.1,0.9,0.3,1.6,0.8,2.1s1.2,0.7,2.2,0.7
		c0.6,0,1,0,1.4-0.1c0.4-0.1,0.7-0.2,0.9-0.3l0.2,1.3c-0.2,0.1-0.5,0.2-1,0.3c-0.5,0.1-1,0.2-1.7,0.2c-0.8,0-1.5-0.1-2-0.4
		c-0.6-0.2-1-0.6-1.4-1c-0.4-0.4-0.6-0.9-0.8-1.5C221.7,62.7,221.6,62.1,221.6,61.4z M227.8,60.6c0-0.7-0.2-1.3-0.5-1.8
		c-0.4-0.5-0.9-0.7-1.5-0.7c-0.4,0-0.7,0.1-1,0.2c-0.3,0.1-0.5,0.3-0.7,0.6c-0.2,0.2-0.3,0.5-0.5,0.8c-0.1,0.3-0.2,0.6-0.2,0.9
		H227.8z"/>
	<path class="st5" d="M235,56.8c0.1,0,0.3,0,0.5,0c0.2,0,0.4,0,0.5,0.1s0.3,0.1,0.5,0.1c0.1,0,0.2,0.1,0.3,0.1l-0.3,1.4
		c-0.1,0-0.3-0.1-0.6-0.2c-0.3-0.1-0.7-0.1-1.1-0.1c-0.3,0-0.6,0-0.9,0.1c-0.3,0.1-0.5,0.1-0.6,0.1v7.5h-1.6v-8.6
		c0.4-0.1,0.8-0.3,1.4-0.4C233.7,56.8,234.3,56.8,235,56.8z"/>
</g>
<g>
	<path class="st5" d="M26.2,25.8C25,26.7,24,27,23.1,25.6c-0.2-0.5,0.6-0.7,1.3-1.4c1.1-1,1.6-1.7,1.8-3.3c0.1-0.9,0.1-1.8-0.3-2.7
		c-0.4-0.8-1.4-1.4-2.1-1.4l-1-0.1c-0.3,0.2-1.1,0.1-1.1,0.1c-0.5,0.1-1.1,0.1-1.6,0.3c-0.1,0-0.2,0.2-0.1,0.2c-1-0.1-1.7,0.1-2,0.5
		c-0.2,0.2-0.3,0.3-0.6,0.4c-0.2,0.1-0.6,0.2-0.8,0.2c-0.3,0-0.5,0.2-0.6,0.6l-1.4,1c-0.9,0.8-3.5,2-5,4.6c-1.4,2.7-0.1,5.1,1.8,6.6
		c1,0.7,2.1,1.3,3.1,1.8c0.4,0.3,0.8,0.5,1.2,0.7c2.1,1.1,4.1,2.4,5.9,3.9c1.4,1.2,2.4,2.7,3.1,4.3c0.5,1.4,0.2,2.7-0.5,3.8
		c-1.7,2.4-6.1,4.3-9.8,4.9c-2.5,0.4-5,0.3-7.4-0.1c-4.2-0.8-6.9-3.7-7.1-7.7c-0.1-1.4,0.4-2.4,1-3.2l0.4-0.2c0-0.1-0.1-0.1-0.2-0.1
		c1-1.1,2.4-1.6,2.7-1.7c1.4-0.7,3.1,1,2.1,1.4c-1.9,0.6-3.3,1.7-3.5,4c-0.1,1.7,0.5,4.3,2.1,5.3c1.2,0.7,2.3,1,3.4,1.1
		c1.3,0.1,2.7,0,4-0.2c3.1-0.5,6.1-2,8.1-3.3c0.8-0.5,1.6-1.3,2.1-2.1c0.6-1,0.9-2.1,0.3-3.3c-0.5-1.1-1.3-1.9-2.1-2.7
		c-1.5-1.4-3.3-2.5-5.1-3.3c-1.3-0.6-2.4-1.4-3.6-2.2c-1-0.6-3.2-2.2-4-4.1C6.7,26,6.9,24,8,22.3c0.6-1,1.4-1.8,2.3-2.5
		c1.2-0.9,2.3-1.7,3.6-2.4c3.3-1.6,5.1-2.3,7.5-2.5c1.8-0.2,4.3,0,5.7,1c0.5,0.3,0.9,0.9,1.1,1.4C29.4,20.2,28.6,23.7,26.2,25.8z
		 M0.5,44c0.2,0.6,0.4,1.4,0.6,2.1C1.3,45.7,0.8,44.2,0.5,44z M14.3,18.2c-1.7,1-3.6,1.8-4.7,3.4l0.1,0.1c0.1-0.1,0.2-0.1,0.3-0.2
		c0.3-0.4,0.6-0.8,1.1-0.9c0.3-0.3,0.8-0.7,1.3-0.9c0.6-0.3,1.3-0.6,1.8-1C14.3,18.5,14.3,18.4,14.3,18.2z M22.5,44.3L21.9,45
		c-0.5,0.3-0.7,0.5-0.9,1.1c0.5-0.3,0.8-0.5,1.1-0.9C22.5,44.9,22.5,44.7,22.5,44.3z M23.4,42c0.1,0.2,0,0.3,0.1,0.5
		c0,0.1,0.1,0.3,0.2,0.7C23.8,42.6,23.8,42.3,23.4,42z"/>
	<path class="st5" d="M28.3,41.2c-0.1-0.1-0.6-0.4-0.9-0.6c-0.5-0.7-0.7-1.4-0.5-2.3c0.2-0.4,0.3-0.7,0.4-1c0.1-0.1,0.1-0.1,0.1-0.1
		c0.1-0.3,0.2-0.6,0.3-1l0.4-0.7c0.2-0.3,0.3-0.6,0.5-0.7c0.6-1,1.4-1.7,2.1-2.5c0.7-0.8,1.7-1.4,2.8-1.6c1.2,0.2,2.6,0.5,2.8,1.8
		c0.2,0.8-0.3,1.3-0.6,1.9c0.5-0.1,0.9-0.5,1.6-0.5c0.3,0.1,0.6,0.4,0.7,0.8c0,0,0.1,0.6-0.1,1.1c-0.1,0.1-0.1,0.2-0.1,0.3
		c-0.2,0.8-0.2,1.7,0.2,2.5c0.1,0.2,0.2,0.5,0.5,0.6c0.1,0.1,0.2,0.1,0.4,0c0.2-0.1,0.4-0.1,0.6-0.2c0.9-0.4,1.8-1.1,2.7-1.7
		c0.8-0.5,1.6-1,2.4-1.6c1.4-0.9,1.3-0.8,2.6-1.6c0.4-0.3,0.9-0.6,1.4-1l0.2,0.1L48.2,34c0.1,0.3,0.1,0.3,0.5,0.1
		c0-0.1,0-0.3,0.3-0.2c-0.6,0.9-1.5,1.3-2.3,1.8c-0.3,0.2-0.7,0.4-0.9,0.5c-0.2,0.2-0.4,0.5-0.7,0.6c-0.1,0.1-0.2,0.1-0.4,0.1
		c0,0,0-0.1-0.1-0.1c0.1,0,0.2-0.1,0.3-0.2c0.2-0.1,0.3-0.3,0.3-0.5c0-0.1-0.1-0.1-0.2-0.1c-0.5,0.2-0.8,0.5-1.2,0.8
		c-0.7,0.3-1.2,0.6-1.8,1.1c-0.2,0.1-0.3,0.2-0.6,0.3v0.1c0.2-0.1,0.3-0.1,0.5-0.2c0.2-0.2,0.4-0.2,0.6-0.1c0-0.1-0.1-0.1-0.1-0.2
		c0.4-0.2,0.7-0.1,1-0.4c0.3-0.2,0.8-0.3,1-0.6c0,0.1-0.1,0.3-0.2,0.4c-0.5,0.2-0.9,0.6-1.4,0.8c-0.1,0.1-0.2,0.2-0.3,0.3
		c-0.1,0.1-0.2,0.2-0.4,0.2c0.2,0.1,0.3,0.1,0.4,0.1l-0.1,0.1c-0.1,0.1-0.2,0.1-0.4,0.1v0.2c0.3-0.2,0.7-0.3,1-0.5v0.1
		c-0.3,0.2-0.7,0.5-0.9,0.8c-0.5,0.5-1,0.6-1.6,1c-0.3,0.2-0.5,0.1-0.8,0.3c-0.1,0.1-0.4,0.2-0.6,0.2c-0.1,0-0.3,0.1-0.5,0.1
		c-0.2,0-0.8,0.1-1,0.1c-0.1-0.1-0.5-0.1-0.6-0.2c-0.2-0.1-0.3-0.3-0.5-0.3c-0.3-0.5-0.8-0.7-1-1.2c-0.3-0.3-0.3-0.5-0.5-0.8
		c-0.1-0.1-0.1-0.2-0.2-0.3c-0.4,0.2-0.4,0.8-0.8,0.8c-0.1,0.1-0.2,0.3-0.3,0.3c-0.7,0.5-1.6,1.3-2.5,1.7c-0.9,0.5-1.9,0.5-2.8,0.1
		C28.7,41.3,28.5,41.3,28.3,41.2z M30.9,39.3c0.8-0.3,1.3-0.7,1.8-1.3c0.9-0.9,1.3-1.6,2.1-2.5c0.1,0,0.3-0.3,0.3-0.3h-0.1
		c-1.3-0.1-0.8-2.7-0.8-2.7c-1.7,0.3-3.8,3-4.4,4.1c-0.5,0.9-1,1.9-1.3,3.1C29.3,39.6,30.4,39.5,30.9,39.3z M45.9,35.9
		c0-0.2,0.1-0.3,0.2-0.3c0.1-0.1,0.3-0.2,0.5-0.2c0.1-0.1,0.3-0.1,0.5-0.1v-0.3c0.1-0.1,0.2-0.2,0.2-0.2c0-0.1,0-0.1-0.1-0.1
		c-0.1,0.1-0.4,0.3-0.7,0.5c-0.4,0.2-1.2,0.8-1.2,0.9c0.1,0.1,0.3,0.2,0.5,0.3C45.9,36.1,45.9,35.9,45.9,35.9z"/>
	<path class="st5" d="M62.3,46.9c-0.5-0.3-0.9-0.9-1.2-1.6c-0.1-0.5-0.5-1.3-0.5-2.1c0-0.8-0.2-1.6-0.1-2.1l-0.1-1.3
		c-0.2-0.1-0.3,0-0.7,0.3c0,0.1-0.1,0.1-0.2,0.2c-0.8,0.8-1.6,1.3-2.2,2.1c-0.4,0.5-1,0.7-1.4,1l-0.4,0.3c-0.2,0-0.3-0.1-0.6-0.1
		l-0.5-0.8c0,0.2-0.1,0.3-0.2,0.5c-0.2,0.1-0.3-0.1-0.4-0.3c0-0.1-0.2-0.1-0.2-0.3c-0.1-0.1-0.3-0.2-0.3-0.3c-0.1-0.6-1-0.8-0.3-1.3
		c0.1-0.8,0.4-2.5,0.5-3.3c0.1-0.1,0-0.2-0.1-0.3c-0.7,0.9-1.3,1.6-1.6,2c-0.1,0.1-0.3,0.2-0.5,0.2c0.2,0.3-0.2,0.6-0.4,0.9
		l-0.3,0.8c-0.6,0.8-1,1.6-1.6,2.4c-0.2,0.3-0.5,0.4-0.8,0.6c-0.1,0.1-0.2,0.2-0.3,0.3l-0.5,0.3c-0.3-0.2-0.3-0.7-0.5-0.9l-0.3,0.5
		c-0.3-0.5-0.5-1-0.4-1.7c0.2-2,0.6-3.9,1.1-5.8c0.3-1.1,0.5-2.2,0.8-3.3c0-0.3,0.1-0.6,0-0.8c-0.1-0.1,0.2-0.3,0.2-0.5
		c0.5,0.1,0.6,0.1,1,0.2c0.4,0.1,0.7,0.2,0.8,0.8c0.1,0.6,0.1,1.2-0.1,1.8c-0.1,0.8-0.2,1.5-0.5,2.3c-0.1,0.5-0.8,2.2-0.9,2.9
		c0.2-0.1,0.3-0.1,0.3-0.2c0.2-0.3,0.5-0.8,1.2-2c0.5-0.6,0.9-1.5,1.6-2.1c0.4-0.4,0.8-0.9,1.2-1.2c0.2-0.2,0.4-0.1,0.6,0.1
		c0.3,0.4,0.9,0.6,1.4,0.5c0.2-0.1,0.4,0,0.6,0c0.2,0.4,0.1,0.9,0.2,1.3c0.1,0.1,0.1,0.3,0.1,0.5c-0.1,0.5,0.1,1-0.2,1.5
		c-0.2,0.5-0.3,1.7-0.4,2.4c0.8-0.6,1.7-1.6,2.3-2.1c0.3-0.3,0.8-0.6,1.2-0.8c0.2-0.2,0.5-0.3,0.9-0.7c0.2-0.1,0.5-0.1,0.6,0
		c0.6,0.2,0.8,0.5,1.4,0.7c0.1,0.1,0.2,0.2,0,0.2c0.1,0.1,0.2,0.3,0.3,0.3c0.5,0,0.5,0.6,0.5,1c0.1,0.2,0.1,0.5,0.1,0.8v0.3
		c-0.2,0.3,0,0.8-0.1,1.1c0.1,0.5,0.1,1,0.2,1.5c0.1,0.3,0.1,0.6,0.4,1.7c0.3,0.7,0.8,1,1.6,0.7c0.1-0.1,0.3,0.3,0.2,0.5
		c0,0.1-0.1,0.2-0.2,0.3c0,0.2,0,0.3-0.3,0.7C64.2,47.4,62.8,47.4,62.3,46.9z"/>
	<path class="st5" d="M70,43.8c-0.2-0.1-0.5-0.1-0.8-0.1c-0.3-0.2-0.8-0.3-1.2-0.5c-0.3-0.2-0.6-0.6-0.9-0.9
		c-0.2-0.2-0.3-0.5-0.4-0.8c-0.1-0.3-0.2-0.7-0.2-1.2c0-0.3,0-0.7,0.1-1c0.1-2.4,1.7-4.8,2.7-6.1c0.1-0.1,0.1-0.2,0.2-0.2
		c0.1-0.2,0.2-0.3,0.3-0.4c0.1-0.1,0.6-0.8,0.9-0.9c0.5-0.5,1-0.6,1.5-0.4c0.2,0.1,0.5-0.1,0.8,0.1c0.3,0.1,0.6,0.3,0.9,0.5
		c0.3,0.2,0.7,0.3,0.9,0.5c0.3,0.2,0.6,0.5,0.9,0.8c0.1,0.1,0.1,0.4-0.1,0.6c0,0.2-0.2,0.4-0.3,0.6c-0.1,0.2-0.5,0.1-0.6,0
		c-0.3-0.2-0.6-0.3-0.8-0.5c-0.2-0.2-0.3-0.3-0.4-0.5c-0.1-0.2-0.2-0.2-0.3-0.1c-0.5,0.2-1,0.6-1.3,1.1c-0.2,0.5-0.6,0.8-0.9,1.2
		c-0.3,0.5-0.6,0.9-1,1.4c-0.6,0.9-1,1.8-1.3,2.8c-0.2,0.5-0.2,1.2-0.1,1.7c0.1,0.2,0.2,0.2,0.4,0.3c0.7,0,1.4-0.1,2.2-0.3
		c0.5-0.1,0.9-0.2,1.3-0.4c0.4-0.1,0.8-0.3,1.2-0.5c0.2-0.1,0.4-0.3,0.7-0.5c0.1-0.1,0.2-0.1,0.3-0.2V40c-0.1,0.1-0.2,0.1-0.4,0.2
		v0.1c0.2,0,0.3-0.1,0.3-0.1l1.4-0.9c0.7-0.5,1.3-1,2-1.6c0.5-0.3,0.8-0.6,1.2-0.9c0,0,0.1-0.1,0.1-0.2c-0.1,0.1-0.2,0.2-0.5,0.3
		c-0.1-0.1,0-0.1,0-0.1c0.4-0.3,1-0.7,1.4-1c0.1-0.2,0.3-0.3,0.6-0.5c0.1-0.1,0.1-0.3,0.3-0.1c0.1-0.1,0.1-0.2,0.1-0.2
		c0.3-0.2,0.6-0.5,0.9-0.7c0.1,0,0.2-0.1,0.2-0.1c0,0.1,0.1,0.2,0.1,0.2c-0.1,0.3-0.1,0.6-0.5,0.8c-0.1,0-0.1,0.1-0.1,0.2
		c0.1,0.3-0.2,0.3-0.3,0.6c-0.1,0.1-0.1,0.1-0.2,0.2c-0.1,0.1-0.2,0.2-0.2,0.2c-0.1,0.1-0.1,0.2-0.2,0.3c-0.3,0.2-0.5,0.3-0.8,0.4
		c-0.1,0.1-0.1,0.1-0.2,0.1c-0.1,0-0.1,0.1-0.1,0.1c0.1,0.1,0.1,0.2,0.3,0.3c-0.1,0.5-0.5,0.6-0.9,0.6c0,0.3-0.3,0.5-0.5,0.7
		c-0.1,0-0.1-0.1-0.1-0.1c0-0.1,0.1-0.3,0.2-0.4c-0.1,0-0.2,0.1-0.3,0.1c-0.2,0.2-0.4,0.2-0.6,0c0.1-0.1,0.1-0.2,0.1-0.4H78
		c-0.2,0.2-0.5,0.4-0.8,0.6c-0.6,0.5-1.2,0.9-1.7,1.4c0,0.1-0.1,0.1-0.1,0.2c-0.4,0.2-1-0.1-1.2,0.6c0.2,0,0.4-0.1,0.6,0.1
		c0.2,0.2,0.5,0.1,0.8,0c-0.2,0-0.3-0.1-0.5-0.1c0.1-0.3,0.4-0.4,1-0.2l-1,0.8c-0.1,0-0.1,0.1-0.1,0.1c-0.5-0.1-0.7,0.4-0.9,0.7
		c-0.1,0.1,0,0.2,0,0.5c-0.2,0.1-0.5,0.2-0.7,0.3c-0.5,0.2-1.1,0.3-1.6,0.5c-0.2,0.2-0.3,0.4-0.6,0.3L70,43.8z M75,42.4
		c-0.2,0.1-0.4,0.2-0.6,0.3C74.3,42.4,74.4,42.3,75,42.4z M76.6,39.8c0.1,0,0.3-0.1,0.4-0.2c-0.1-0.1-0.2-0.1-0.3-0.1
		c0.1-0.3,0.2-0.3,0.5-0.3c0.3-0.1,0.6-0.3,0.8,0c0.1,0,0.2-0.1,0.3-0.1c0,0.1,0.1,0.2,0,0.2c-0.5,0.3-0.9,0.9-1.6,1
		c0-0.1,0-0.2,0.1-0.3c-0.2,0.2-0.5,0.3-0.6,0.5C76.1,40,76.3,39.8,76.6,39.8z"/>
	<path class="st5" d="M87,41.2c-0.3-0.6-0.5-1.4-0.4-2.2c0.1-1,0.2-2.2,0.5-3.2c0.2-0.9,0.4-1.6,0.6-2.5c0.1-0.9-0.8-0.4-1.1-0.2
		c-0.9,0.4-1.4,0.8-1.8,1.1c-0.9,0.5-1,0.9-1.4,1.3c-0.2,0.4-0.3,0.8-0.4,1.3c-0.2,0.8-0.5,2.4-0.6,3.2c-0.1,0.4-0.2,0.8-0.3,0.8
		c-0.3,0-1.1-0.1-1.5-0.4c-0.1-0.3,0.3-2.2,0.3-2.7c0.3-1.7,1.8-8.7,1.8-8.8c0.1-0.1,0.1-0.5,0.2-0.6l-0.2,0.1
		c-0.5,0.2-1.8,1.3-2.1,1.2c-0.2-0.1-0.3-0.2-0.4-0.3c-0.1-0.2-0.1-1.7,0.2-1.8c1.2-0.7,2.5-1.7,3.5-2.5c0.2-0.3,0.2-0.3,0.2-0.6
		v0.1c0.6-1.6,1-2.8,1.4-4.4c0.5-1.6,1.2-3.2,1.9-4.8c0.2-0.5,0.4-1,0.6-1.6c0.1-0.2,0.2-0.6,0.6-0.5c-0.3-0.1-0.3-0.2-0.1-0.4
		c0.3-0.7,0.6-1.3,1-1.9c0.4-0.8,0.9-1.6,1.3-2.3c0.2-0.4,0.4-0.8,0.8-1.2c0.1-0.2,0.2-0.5,0.2-0.8c0.1-0.1,0.3-0.1,0.5-0.2
		c0.5-0.6,0.9-1.2,1.4-1.8c-0.1,0-0.2,0-0.3-0.1c0.3-0.1,0.5-0.2,0.6-0.3h-0.2l0.8-1c0.3-0.3,0.5-0.6,0.9-0.8c0.9-1,1.9-1.7,3.1-2.1
		c1-0.3,1.7-0.1,2.5,0.3c0.6,0.2,1,1.2,0.9,1.8c-0.1,0.2,0,0.3-0.1,0.5c0.1,0.1,0.1,0.2,0.1,0.2c-0.2,0.6-0.4,1.2-0.6,1.7
		c-0.1,0.1-0.2,0.2-0.2,0.3V5c-0.5,0.5-0.7,1-0.8,1.7c-0.1,0.5-0.3,1-0.8,1.3c-0.5,0.5-0.6,1.3-1.2,1.8c-0.7,0.8-1.1,1.6-1.7,2.4
		c-0.6,0.7-1,1.5-1.6,2.2c-0.6,0.9-1.2,1.8-1.8,2.5c-0.8,1.1-1.7,2.1-2.6,3.3c-0.3,0.5-0.9,0.9-1.2,1.4c-0.3,0.3-0.6,0.7-1,0.9
		c-0.9,1-1.8,1.9-2.5,2.8c-0.3,0.2-0.4,0.5-0.5,0.7c-0.1,0.4-0.1,0.7-0.3,1c0,0.2-0.5,1.6-0.7,2.3c-0.3,1.8-0.3,1.7-0.8,3.1
		c0.3-0.4,0.8-0.6,1.2-0.9c0.6-0.4,1.1-0.8,2-1.1c0.6-0.2,1-0.2,1.3-0.2c0.8,0,1.2,0.1,1.6,0.5c0.2,0.2,0.4,0.6,0.3,1
		c0.2,0.5-0.1,1.3-0.2,2c-0.1,1-0.5,1.9-0.7,2.9c-0.2,0.9-0.3,1.7-0.3,2.6c0,0.4,0.1,0.9,0.4,1.1c0.9,0.1,1.5-0.2,2.2-0.6
		c0.7-0.4,2.4-1.8,3.1-2.4c1.5-1.3,2.3-2.4,3.5-3.5l0.6-0.6c0.1-0.1,0.2-0.1,0.2-0.1c-1.1,1.4-2.4,2.7-4.2,4.4
		c0.2-0.1,0.6-0.3,0.8-0.5c0.3-0.1,0.6,0,0.8-0.3c0.1-0.2,0.3-0.2,0.5-0.3c-0.1-0.1-0.1-0.2-0.1-0.2c0.6-0.8,1.2-1.4,1.8-2
		c0,0.1,0.1,0.1,0.1,0.1c-0.2,0.3-0.5,0.8-0.6,1.3l0.1,0.1c-0.5,0.7-0.8,1-1.4,1.7c-0.5,0.5-0.6,0.6-1.1,1.1
		c-0.5,0.4-1.4,1.3-2.9,2.4l-1.2,0.8C89.8,42.8,87.7,42.6,87,41.2z M83.3,29.7l0.3-0.9c-0.1-0.1,0-0.1,0-0.2c0.1-0.3,0.2-0.6,0.2-1
		c0.2-0.6-0.1-0.2-0.2,0.5c-0.3,1-0.5,1.8-0.8,2.9c0,0.3-0.2,0.8-0.2,1.3C83,31.5,83.1,30.5,83.3,29.7z M84.8,23.6
		c0.5-1.3,0.8-2.5,1.2-3.8h-0.1c-0.4,1.3-0.8,2.5-1.2,3.8H84.8z M86.2,18.9c0.8-1.7,1.3-3.5,2.1-5.2c0,0-0.1-0.1-0.1-0.1
		c-0.8,1.8-1.3,3.5-2.1,5.3H86.2z M90.3,19.8c0,0-0.1-0.1,0-0.1c0.3-0.3,0.6-0.6,0.8-0.9c0.3-0.3,0.5-0.5,0.6-0.8
		c0.2-0.3,0.2-0.4,0.5-0.4c0.1-0.2,0.2-0.4,0.3-0.6c0.1,0.1,0.2,0.1,0.2,0.2l0.1-0.6c0.2-0.1,0.5-0.2,0.5-0.5c0.3-0.4,0.9-0.6,0.6-1
		c0.1,0,0.2,0,0.3-0.1c0-0.1-0.1-0.1-0.1-0.1c0.2-0.3,0.5-0.6,0.8-0.8c-0.1-0.1-0.1-0.3-0.1-0.3c0.5,0,0.9-0.9,1-1.4
		c0.1-0.1,0.3,0,0.3-0.1c0.3-0.4,0.6-0.9,1-1.3c0.3-0.4,0.5-0.9,0.7-1.4C98,9.4,98.1,9.3,98.2,9c0.3-0.1,0.5-0.7,0.3-1
		c0.6-0.3,0.9-0.8,0.8-1c0.5-0.4,1.7-3,1.7-4.1c-0.3,1.2-0.9,2.4-1.6,3.5c0.1-0.1,0.1-0.1,0.2-0.1c0,0,0,0.1,0.1,0.1
		c-0.1,0.1-0.2,0.1-0.2,0.2c-0.1,0.1-0.2,0.1-0.2,0.2C99,6.9,99,7.1,99,7.2c-0.8,0.9-1.6,1.6-2.1,2.6l-0.1,0.1
		c-0.2,0.3-0.5,0.7-0.7,0.9c-0.3,0.6-0.6,1.2-1,1.6c-0.8,1-1.6,2.1-2.3,3.1l-2.7,3.5c-0.3,0.5-0.8,0.9-1.2,1.3
		c-0.8,0.8-1.6,1.7-2.3,2.4c-0.3,0.4-0.3,0.6-0.3,1C87.7,22.3,88.9,21.1,90.3,19.8z M89.8,18.9c1.1-1.3,2-2.6,3-3.9
		c0.7-0.9,1.4-1.8,2.1-2.8c0.3-0.5,0.9-1,1.1-1.6c0-0.2,0.2-0.5,0.3-0.6c0.3-0.2,0.4-0.4,0.4-0.8c0.3,0.1,0.3-0.1,0.3-0.4
		c0.1-0.2,0.1-0.3,0.2-0.6c0.2-0.2,0.5-0.4,0.5-0.6C98,7.5,98,7.5,98.1,7.5C98,7.4,98,7.3,98,7.2c0.2-0.3,0.6-0.6,0.6-0.9
		c0.8-1,1.8-4,1.7-4.5c-0.1,0.5-0.3,0.9-0.5,1.3h-0.1l0.4-1.6c-0.1,0-0.1,0-0.1-0.1c-1.3,0.9-2.5,1.8-3.8,2.8l-1,1.3
		C95,5.7,94.8,5.8,94.7,6c-0.4,0.3-0.5,0.6-0.8,0.9c-0.5,0.6-0.9,1.2-1.3,1.8c-0.5,0.6-0.8,1.2-1,1.8c-0.2,0.2-0.3,0.3-0.4,0.5
		c-0.3,0.5-0.6,1-0.8,1.6c-0.3,0.3-0.4,0.7-0.5,1c-0.2,0.4-0.4,0.9-0.5,1.3c-0.1,0.2-0.3,0.3-0.3,0.5c0.1,0.5-0.7,0.8-0.5,1.3
		c0,0-0.1,0.1-0.1,0.1c-0.1,0.2-0.2,0.5-0.3,0.7c-0.4,0.3-0.3,0.9-0.5,1.4c-0.3,0.6-0.3,1-0.5,1.6c-0.2,0.5-0.4,1-0.4,1.4
		c-0.1,0.3-0.2,0.5-0.2,0.6c-0.1,0.1,0,0.1,0.1,0.1C87.7,21.2,88.8,20.2,89.8,18.9z M89.4,34c0.2-0.4,0.2-1.5,0.2-1.7
		c-0.1-0.8-0.2-0.9-0.3-0.9c0.2,1.1,0.1,2-0.2,2.6C89.2,33.9,89.3,34,89.4,34z M93.4,5.6C92.8,6,92.8,6,92.7,6.2
		C93,6,93.1,5.7,93.4,5.6z M94.1,4.4L94,4.3l-0.7,0.9c0.1,0,0.1,0,0.1,0.1L94.1,4.4z"/>
	<path class="st5" d="M107.4,39.9c0.8-0.2,1.4-0.9,2.1-1.3c-0.1,0.1-0.1,0.2-0.1,0.3c-0.2,0.2-0.5,0.5-0.8,0.6l-1.1,0.9
		c-0.5,0.2-0.8,0.5-1.2,0.8c-0.5,0.3-1,0.7-1.6,0.9c-0.3,0.2-0.8,0.2-1.2,0.2c-0.2,0-0.3,0.1-0.5,0.2c-0.2,0.1-0.6,0.2-0.9,0.2
		c-0.5,0.1-0.9,0.2-1.3,0.2c-0.6-0.1-1.2-0.2-1.7-0.3c-0.5-0.2-0.8-0.2-1.3-0.7c-0.1-0.1-0.2-0.2-0.3-0.2c-0.4-0.3-0.6-0.6-1-1.2
		c-0.1-0.1-0.1-0.1-0.2-0.7c-0.3-0.7-0.2-1.1-0.2-1.5c0.1-1.2,0.3-2.3,0.9-3.3c0.2-0.3,0.5-0.7,0.8-1c0.5-0.6,1-1.2,1.6-1.8
		c0.5-0.5,1.2-0.9,1.9-0.9c0.2,0,0.3-0.1,0.6-0.1c0.6-0.2,1.1,0.2,1.5,0.4c0.5,0.2,1,0.6,1.4,0.9c0.5,0.3,0.8,1.3,0.6,1.7
		c-0.1,0.3-0.3,0.6-0.5,0.8c-0.5,0.6-1,1.1-1.6,1.6c-0.2,0.2-0.5,0.2-0.6,0.4c-0.1,0.4-0.5,0.5-0.7,0.6l-0.4,0.2
		c0.1,0,0.2,0.1,0.2,0.1c-0.2,0.1-0.3,0.2-0.6,0.3c-0.1,0.1-0.1,0.2-0.1,0.3c-0.4,0.2-0.9,0.4-1.2,0.6c-0.2,0.1-0.3,0.2-0.4,0.3
		c-0.5,0.2-0.6,0.3-1,0.5c0.2,0.7,0.3,0.8,0.8,1c0.8-0.1,1.5,0,2.3-0.1c0.5-0.1,1-0.3,1.6-0.5c0.4-0.2,0.9-0.4,1.3-0.6
		c0.3-0.1,0.6-0.1,0.9-0.3c0.6-0.4,1.3-0.8,1.9-1.1l0.2-0.1c0.1,0.1,0.1,0.1,0.1,0.1c-0.1,0.1-0.2,0.2-0.2,0.3
		c0.1,0.1,0.1,0.1,0.1,0.2c0.2,0,0.3-0.1,0.5-0.1c0.1,0.1,0.1,0.1,0,0.1c-0.2,0.2-0.5,0.4-0.8,0.6c0.2,0.1,0.5,0.2,0.8,0.3
		c-0.2,0.1-0.2,0.1-0.3,0.2C107.4,39.8,107.4,39.9,107.4,39.9z M98.4,37.5c0.5-0.3,0.8-0.5,1-0.6c0.1,0,0.2,0.1,0.3,0
		c0.2-0.1,0.5-0.3,0.7-0.5c-0.2,0-0.2,0.1-0.4,0.1c0.3-0.3,0.5-0.6,0.9-0.6c-0.1,0.2-0.3,0.3-0.4,0.5c0,0,0,0.1,0.1,0.1
		c0.5-0.3,1-0.8,1.5-1.1l-0.1-0.1c-0.1,0.1-0.2,0.2-0.5,0.3c-0.2,0.1-0.3,0.2-0.6,0.3c0.1-0.1,0.1-0.1,0.1-0.2
		c0.6-0.5,1-0.9,1.6-1.4c0.3-0.3,0.6-0.6,0.8-1c0.2-0.3-0.1-0.8-0.3-0.7c-0.5,0.2-1,0.2-1.5,0.6c-0.5,0.4-1,0.7-1.4,1.2
		c-0.5,0.6-0.9,1.3-1.2,2C98.7,36.7,98.6,37.1,98.4,37.5z M103.5,34.6c0.2-0.3,0.5-0.8,0.6-1.1L104,33
		C103.6,33.5,103.4,33.9,103.5,34.6z M107,38.8c-0.1-0.2-0.6,0-1,0.5C106.5,39.1,106.8,39,107,38.8z M107.5,38
		c0.5-0.3,1-0.6,1.6-0.9C109.1,37.4,108.7,37.5,107.5,38C107.5,38.1,107.5,38,107.5,38z M111,36.5L111,36.5
		C111,36.5,111,36.5,111,36.5c0.1,0.1,0.1,0.1,0.1,0.1c-0.1,0.1-0.3,0.3-0.6,0.5l0.1,0.2c-0.2,0.1-0.3,0.2-0.2,0.4
		c-0.2,0.2-0.6,0.2-0.6,0.6c0,0,0,0.1-0.1,0.1c-0.4,0-0.6,0.4-0.9,0.6c-0.2,0.1-0.4,0.3-0.7,0.4c-0.1,0.1-0.2-0.1-0.3-0.1
		c-0.1-0.1-0.1-0.2-0.1-0.3s0.1-0.1,0.1-0.1c0.5,0.1,0.9-0.3,1.3-0.5l0.4-0.2c0.2-0.1,0.3-0.2,0.1-0.6c-0.4,0.3-0.9,0.6-1.4,1
		c-0.1-0.1-0.2-0.1-0.4-0.2c0.4-0.2,1.3-0.8,1.7-1.4c0.1-0.1,0.8-0.4,0.9-0.6l0.4,0.2c0.1-0.2,0.2-0.3,0.3-0.4
		c-0.1-0.1-0.1-0.1-0.2-0.1l0.1-0.1c0.2,0,0.3,0,0.6-0.1c-0.1-0.1-0.1-0.2-0.1-0.2l0.3-0.2l-0.1-0.1l-0.2,0.2h-0.1l1-0.6l0.1,0.4
		c0,0,0.1,0,0.1,0.1c-0.2,0.1-0.3,0.3-0.5,0.4C111.6,36.1,111.3,36.3,111,36.5z"/>
	<path class="st5" d="M122.6,39.9c0.8-0.2,1.4-0.9,2.1-1.3c-0.1,0.1-0.1,0.2-0.1,0.3c-0.2,0.2-0.5,0.5-0.8,0.6l-1.1,0.9
		c-0.5,0.2-0.8,0.5-1.2,0.8c-0.5,0.3-1,0.7-1.6,0.9c-0.3,0.2-0.8,0.2-1.2,0.2c-0.2,0-0.3,0.1-0.5,0.2c-0.2,0.1-0.6,0.2-0.9,0.2
		c-0.5,0.1-0.9,0.2-1.3,0.2c-0.6-0.1-1.2-0.2-1.7-0.3c-0.5-0.2-0.8-0.2-1.3-0.7c-0.1-0.1-0.2-0.2-0.3-0.2c-0.4-0.3-0.6-0.6-1-1.2
		c-0.1-0.1-0.1-0.1-0.2-0.7c-0.3-0.7-0.2-1.1-0.2-1.5c0.1-1.2,0.3-2.3,0.9-3.3c0.2-0.3,0.5-0.7,0.8-1c0.5-0.6,1-1.2,1.6-1.8
		c0.5-0.5,1.2-0.9,1.9-0.9c0.2,0,0.3-0.1,0.6-0.1c0.6-0.2,1.1,0.2,1.5,0.4c0.5,0.2,1,0.6,1.4,0.9c0.5,0.3,0.8,1.3,0.6,1.7
		c-0.1,0.3-0.3,0.6-0.5,0.8c-0.5,0.6-1,1.1-1.6,1.6c-0.2,0.2-0.5,0.2-0.6,0.4c-0.1,0.4-0.5,0.5-0.7,0.6l-0.4,0.2
		c0.1,0,0.2,0.1,0.2,0.1c-0.2,0.1-0.3,0.2-0.6,0.3c-0.1,0.1-0.1,0.2-0.1,0.3c-0.4,0.2-0.9,0.4-1.2,0.6c-0.2,0.1-0.3,0.2-0.4,0.3
		c-0.5,0.2-0.6,0.3-1,0.5c0.2,0.7,0.3,0.8,0.8,1c0.8-0.1,1.5,0,2.3-0.1c0.5-0.1,1-0.3,1.6-0.5c0.4-0.2,0.9-0.4,1.3-0.6
		c0.3-0.1,0.6-0.1,0.9-0.3c0.6-0.4,1.3-0.8,1.9-1.1l0.2-0.1c0.1,0.1,0.1,0.1,0.1,0.1c-0.1,0.1-0.2,0.2-0.2,0.3
		c0.1,0.1,0.1,0.1,0.1,0.2c0.2,0,0.3-0.1,0.5-0.1c0.1,0.1,0.1,0.1,0,0.1c-0.2,0.2-0.5,0.4-0.8,0.6c0.2,0.1,0.5,0.2,0.8,0.3
		c-0.2,0.1-0.2,0.1-0.3,0.2C122.5,39.8,122.6,39.9,122.6,39.9z M113.6,37.5c0.5-0.3,0.8-0.5,1-0.6c0.1,0,0.2,0.1,0.3,0
		c0.2-0.1,0.5-0.3,0.7-0.5c-0.2,0-0.2,0.1-0.4,0.1c0.3-0.3,0.5-0.6,0.9-0.6c-0.1,0.2-0.3,0.3-0.4,0.5c0,0,0,0.1,0.1,0.1
		c0.5-0.3,1-0.8,1.5-1.1l-0.1-0.1c-0.1,0.1-0.2,0.2-0.5,0.3c-0.2,0.1-0.3,0.2-0.6,0.3c0.1-0.1,0.1-0.1,0.1-0.2
		c0.6-0.5,1-0.9,1.6-1.4c0.3-0.3,0.6-0.6,0.8-1c0.2-0.3-0.1-0.8-0.3-0.7c-0.5,0.2-1,0.2-1.5,0.6c-0.5,0.4-1,0.7-1.4,1.2
		c-0.5,0.6-0.9,1.3-1.2,2C113.8,36.7,113.7,37.1,113.6,37.5z M118.6,34.6c0.2-0.3,0.5-0.8,0.6-1.1l-0.2-0.5
		C118.7,33.5,118.5,33.9,118.6,34.6z M122.2,38.8c-0.1-0.2-0.6,0-1,0.5C121.6,39.1,121.9,39,122.2,38.8z M122.6,38
		c0.5-0.3,1-0.6,1.6-0.9C124.2,37.4,123.8,37.5,122.6,38C122.6,38.1,122.6,38,122.6,38z M126.1,36.5L126.1,36.5
		C126.1,36.5,126.1,36.5,126.1,36.5c0.1,0.1,0.1,0.1,0.1,0.1c-0.1,0.1-0.3,0.3-0.6,0.5l0.1,0.2c-0.2,0.1-0.3,0.2-0.2,0.4
		c-0.2,0.2-0.6,0.2-0.6,0.6c0,0,0,0.1-0.1,0.1c-0.4,0-0.6,0.4-0.9,0.6c-0.2,0.1-0.4,0.3-0.7,0.4c-0.1,0.1-0.2-0.1-0.3-0.1
		c-0.1-0.1-0.1-0.2-0.1-0.3s0.1-0.1,0.1-0.1c0.5,0.1,0.9-0.3,1.3-0.5l0.4-0.2c0.2-0.1,0.3-0.2,0.1-0.6c-0.4,0.3-0.9,0.6-1.4,1
		c-0.1-0.1-0.2-0.1-0.4-0.2c0.4-0.2,1.3-0.8,1.7-1.4c0.1-0.1,0.8-0.4,0.9-0.6l0.4,0.2c0.1-0.2,0.2-0.3,0.3-0.4
		c-0.1-0.1-0.1-0.1-0.2-0.1L126,36c0.2,0,0.3,0,0.6-0.1c-0.1-0.1-0.1-0.2-0.1-0.2l0.3-0.2l-0.1-0.1l-0.2,0.2h-0.1l1-0.6l0.1,0.4
		c0,0,0.1,0,0.1,0.1c-0.2,0.1-0.3,0.3-0.5,0.4C126.7,36.1,126.4,36.3,126.1,36.5z"/>
	<path class="st5" d="M143.5,9.8c-0.1,0.3-0.2,0.8-0.2,1.2l-0.1,0.6c0,0.1,0,0.2-0.1,0.2c-0.1,0.1,0,0.1-0.1,0.2
		c-0.3,0.3-0.2,1.1-0.6,1.4c-0.1,0-0.1-0.1-0.2,0c0.1-0.3,0.3-0.6,0.3-0.9c0.1-0.3,0.3-0.6,0.5-0.9c-0.1,0-0.1,0-0.1-0.1
		c-0.1,0.3-0.2,0.7-0.3,1c-0.1,0.2-0.2,0.3-0.2,0.5h-0.1c0.2-0.8,0.5-1.3,0.6-1.8v-0.1c-0.1,0.1-0.1,0.1-0.2,0.2
		c-0.3,0.6-0.5,1.3-0.8,2c-0.1,0.2-0.3,0.4-0.4,0.6l-0.9,2c-0.2,0.4-0.5,0.8-0.8,1.2c-0.1,0.1-0.2,0.3-0.3-0.1
		c0.2-0.1,0.3-0.3,0.5-0.5c0-0.1-0.1-0.1-0.1-0.1c-0.1,0.1-0.2,0.1-0.3,0.1c-0.2,0.3-0.5,0.7-0.6,1.1c-0.1,0.3-0.2,0.6-0.4,0.9
		c-0.1,0.2-0.3,0.5-0.5,0.5c-0.1,0.2-0.1,0.3-0.1,0.5c0,0.1-0.1,0.1-0.2,0.1v0.1c0.1,0.1,0.2,0,0.4,0.1c-0.3,0.2-0.3,0.4-0.4,0.6
		c-0.2,0.2-0.2,0.4-0.3,0.6c0.1,0.1,0.1,0.1,0.1,0.1c0.1-0.2,0.2-0.5,0.4-0.6c0.3,0.1,0.5,0.1,0.7,0.2c-0.1,0.1-0.1,0.3-0.2,0.1
		c0,0-0.1,0.1-0.1,0.1c-0.1,0.2-0.3,0.3,0,0.3c-0.3,0.2-0.6,0.2-0.7,0.7c0.1-0.1,0.2-0.2,0.3-0.2v0.1c-0.2,0.5-0.3,0.7-0.6,1
		c-0.1,0-0.2,0.2-0.3,0.3c-0.2,0.3-0.3,0.6-0.6,0.9c-0.1,0.1-0.2,0.3-0.2,0.5c-0.1-0.1-0.1,0-0.2,0c-0.1,0.1-0.2,0.1-0.1,0.2
		c0.1,0,0,0.1-0.1,0.2c-0.5,0.6-0.6,0.5-1,1.1s-0.9,1-1.4,1.6c-0.6,0.6-0.9,1.2-1.5,1.9c-0.1,0.2-0.3,0.1-0.3,0.3
		c-0.1,0.3-0.5,0.6-0.8,0.9c-0.1,0.1-0.6,3.1-0.7,3.5l-0.1,0.4c0.1,0,0.1,0,0.3-0.1c0.3-0.3,0.6-0.5,1.1-0.9
		c0.8-0.6,1.3-1.1,2.1-1.6c0.8-0.4,1.4-0.5,2.2-0.5c0.4,0,0.7,0.2,1.1,0.3c0.1,0.1,0.3,0.1,0.5,0.2c-0.1,0.1-0.2,0.1-0.3,0.2
		l1.4,0.5c0.1,0.3,0.1,0.4,0.1,0.6c0,0.4,0.1,0.9-0.2,1.3c-0.1,0.7-0.3,1.2-0.6,1.8c-0.3,0.6-0.6,0.8-0.9,1c-0.9,0.8-1.3,0.9-2,1.3
		l-1.3,0.4c-0.1,1,0.4,2.2,0.8,2.9c0.1,0.2,0.2,0.2,0.3,0.2c1,0.1,1.4,0,2.4-0.3c1-0.5,2.7-1.7,3.5-2.5c0.9-0.8,1.4-1.3,2-1.8
		l0.3,0.3c-0.1,0.3-0.2,0.6-0.3,0.9c-0.2,0.5-0.7,1.3-1,1.7c-0.5,0.5-1.4,1.8-2.1,2.3c-0.4,0.2-0.9,0.5-1.2,0.7
		c-0.4,0.2-0.8,0.3-1.3,0.5c-0.6,0.2-1,0.2-1.5,0.2c-0.2,0-0.3-0.1-0.4-0.1c-0.5,0.1-1.2-0.1-1.4-0.5c-0.5-0.3-0.8-0.5-1.1-0.9
		c-0.3-0.4-0.5-0.8-0.6-1.3c-0.5-1.2-0.5-2.3-0.3-3.2l1.7-0.9c1-0.6,2.1-1.2,2.7-2.2c0.3-0.6,0.5-1.2,0-2c-0.6-0.2-1.2,0.2-1.7,0.5
		c-0.8,0.6-1.2,0.8-2.1,1.6c-0.4,0.4-0.8,0.6-1.2,0.9l-0.5,0.4l-0.7,0.5c-0.1,0.2-0.3,1.5-0.3,1.6c-0.2,0.8,0,0.9-0.3,1.2
		c0,0.3-0.2,0.5-0.2,0.8l-0.1,0.5l-0.1,0.3l-0.2,0.8c0.2,0.4,0,0.7-0.2,1c-0.2,0.5-0.8,0.5-0.8,0.1c-0.2-0.1-0.3-0.1-0.4-0.3
		l-0.2-0.3l-0.4-0.4c-0.1-0.1-0.1-0.3-0.1-0.5l0.2-0.9c0.2-0.4,0.2-0.9,0.2-1.3l0.2-0.9c0.2-0.6,0.3-1.3,0.4-1.9
		c0.1-0.3,0.2-1.1,0.3-1.6l0.6-3V32c-0.5,0.2-1.7,1.3-2,1.2c-0.2-0.1-0.4-0.2-0.5-0.3c-0.1-0.2-0.1-1.7,0.1-1.8
		c1.1-0.6,2.3-1.6,3.2-2.4c0.3-1.2,0.6-2.3,0.8-3.5c0.3-1.2,0.6-2.3,1-3.5c0.5-1.4,0.8-2.8,1.4-4.2c0.6-1.3,1-2.4,1.5-3.8
		c0.2-0.5,0.5-0.8,0.6-1.3c0.2-0.4,0.3-0.9,0.6-1.3c0.4-0.8,0.9-1.2,1.3-2.1c0.1-0.2,0.3-0.5,0.5-0.7c0.2-0.5,0.5-0.7,0.8-1.1
		c0.1-0.1,0.2-0.2,0.2-0.3c0.1-0.1,0.2-0.1,0.3-0.2c0.3-0.5,0.6-0.8,1.2-1.1c0.3-0.1,0.6-0.3,1-0.3c0.3,0,0.7,0.1,1.1,0.2
		c0.6,0.3,1,1,1.6,1.4c0.2,0.3,0.2,0.9,0.3,1.5c0.1,0.2,0.1,0.5,0.1,0.8C143.6,9.2,143.6,9.5,143.5,9.8z M129.5,30.8v-0.1l-0.1-0.1
		h-0.1c-0.1,0.3-0.1,0.6-0.1,0.9c-0.1,0.6-0.3,1.4-0.3,2.1c-0.1,0.1-0.1,0.3,0,0.3c0.2-0.3,0.2-0.5,0.2-0.8
		C129.3,32.2,129.4,31.5,129.5,30.8z M130.4,27.6l-0.2,0.8c0.1-0.1,0.1-0.1,0.1-0.1C130.3,28.1,130.4,27.8,130.4,27.6z M130.7,35.2
		c0.2-0.1,0.4,0,0.8,0C130.9,34.9,130.9,34.9,130.7,35.2z M131,29C131,29,131,29,131,29L131,29z M131,34.7c0.6,0.2,0.6,0.2,0.6-0.3
		C131.5,34.5,131.2,34.6,131,34.7z M137.4,21.3c-0.1,0-0.3,0.1-0.5,0.2c0.2-0.2,0.3-0.3,0.3-0.3c-0.1,0.1-0.3,0.2-0.5,0.4
		c0.1-0.1,0.1-0.2,0.2-0.3h-0.1c-0.3,0.4-0.8,0.9-1.1,1.3c-0.1,0.1-0.1,0.1-0.2,0.2c-0.4,0.3-0.6,0.7-1,1.2c-0.5,0.6-0.9,1.2-1.5,2
		c-0.2-0.3-0.6,0.1-1,0.9c-0.5,0.5-0.8,0.9-0.7,1.2c-0.1,0.1-0.1,0.3-0.2,0.9c0.1-0.1,0.3-0.3,0.4-0.5c0.1-0.2,0.2-0.3,0.4-0.4
		c-0.1,0-0.1-0.1-0.2,0c-0.1,0.1-0.2,0.2-0.3,0.3h-0.1c0.1-0.1,0.2-0.3,0.4-0.5c0.1,0.1,0.1,0.1,0.3,0c0.1-0.2,0.2-0.4,0.3-0.5
		c-0.2,0.2-0.3,0.3-0.7,0.5c0.2-0.1,0.3-0.2,0.4-0.4c0.2-0.1,0.5-0.3,0.5-0.6c0.1-0.1,0.3-0.2,0.5-0.5c0.1-0.1,0.3-0.2,0.5-0.5
		l-0.3,0.2c0.5-0.6,0.6-0.3,1-0.8c-0.2,0.1-0.2,0.2-0.3,0.2l0.2-0.2c0.2-0.2,0.4-0.4,0.8-0.7c-0.1,0,0-0.1,0-0.2l0.1-0.2
		c0.2-0.1,0.3-0.2,0.5-0.3c0,0-0.1,0,0-0.1l0.1-0.1c0.1-0.2,0.3-0.5,0.4-0.6l-0.1,0.1c-0.1,0-0.2,0.2-0.2,0.3
		c-0.1-0.1-0.1-0.1-0.1-0.2c0.5-0.4,0.8-0.6,0.8-0.8c-0.3,0.4-0.5,0.4-0.8,0.6c0.2-0.5,0.6-0.5,0.9-0.8c0-0.1,0-0.2,0.1-0.3
		c0.2-0.2,0.1-0.1-0.2-0.1c0.2-0.1,0.3-0.2,0.3-0.2C137,21.7,137.2,21.5,137.4,21.3z M141,7.5c-0.3,0-0.6,0.2-0.9,0.4
		c-0.5,0.3-0.7,0.7-1.2,1.3c-0.4,0.6-1,1.3-1.5,2.1c-0.5,0.8-0.8,1.6-1.3,2.4c-0.3,0.8-0.8,1.3-0.9,2.1l0.1,0.1
		c-0.1,0.4-0.4,0.6-0.5,0.9c-0.3,0.7-0.5,1.3-0.9,2.5c-0.6,1.8-0.9,2.5-1.3,3.8c-0.5,1.5-0.7,2.1-1.1,3.6l0.2-0.4
		c0.6-0.8,1.2-1.2,1.8-2.1c0.6-0.7,1.1-1.3,1.6-2c0.3-0.3,0.6-0.8,0.9-1.2c0.6-0.9,1-1.7,1.5-2.4v-0.1c0.5-0.9,1-1.7,1.4-2.4
		c0.5-0.8,0.7-1.6,1.2-2.3c0.3-0.7,0.8-1.7,1.1-2.7c0.1-0.4,0.1-0.8,0.4-1.4C141.6,8,141.7,7.6,141,7.5z M133.1,33.4
		c0.3-0.2,0.6-0.5,0.9-0.7c-0.1,0-0.1-0.1-0.1-0.1C133.6,32.8,133.1,32.9,133.1,33.4z M133.6,17.8C133.6,17.8,133.6,17.8,133.6,17.8
		c0.2-0.2,0.2-0.5,0.3-0.7l-0.3-0.1C133.5,17.3,133.6,17.5,133.6,17.8z M136.2,36.8c0,0.2-0.1,0.3-0.3,0.3l-0.5,0.3
		c0.1,0,0.1,0.1,0.1,0.2c0.1-0.1,0.2-0.1,0.2-0.2c0.3-0.2,0.5-0.3,0.7-0.5c0.1-0.1,0.1-0.2,0.2-0.3l-0.1-0.1
		C136.5,36.6,136.2,36.7,136.2,36.8z M139.2,19.2c0.1,0.5,0.1,0.5-0.2,0.6c-0.1,0.1-0.1,0.3-0.1,0.4c-0.1,0.1-0.2,0.1-0.3,0.1
		c-0.1,0-0.1,0-0.2-0.1c-0.1-0.1-0.1-0.1-0.2-0.1c-0.1-0.1,0.1-0.2,0.1-0.3c0,0,0.1,0.1,0.2,0c0.1,0,0.1,0,0.2-0.1
		c-0.2-0.2-0.2-0.3-0.1-0.5c0.1-0.1,0.2-0.2,0.2-0.2c0-0.1,0.1-0.1,0.1-0.1v0.2c0.1-0.1,0.1-0.1,0.2-0.1c0-0.1-0.1-0.1-0.2-0.2
		c0.2-0.1,0.2-0.2,0.3-0.3c0,0.1,0.1,0.1,0.1,0.2c0.1-0.1,0.2-0.2,0.4-0.5c-0.1-0.1-0.2-0.1-0.3-0.2l0.4-0.6
		c0.1,0.2,0.1,0.3,0.1,0.5c0.2-0.6,0.5-0.9,0.8-1.5c-0.1,0-0.1,0.1-0.2,0.1c0.2-0.4,0.3-0.9,0.5-1.2c0.3-0.4,0.5-0.8,0.6-1.3
		c0.2-0.3,0.3-0.3,0.6-0.2l-0.2,0.3c-0.2,0.3-0.3,0.6-0.3,0.8c-0.1,0.3-0.2,0.5-0.4,0.8c-0.2,0.8-0.8,1.3-1,2
		c-0.1,0.1-0.1,0.3-0.2,0.6c-0.2,0.4-0.5,0.9-0.6,1.2c-0.1-0.1-0.1-0.2-0.1-0.3C139.3,19.1,139.2,19.1,139.2,19.2z M138.8,18.4
		c0,0.5-0.2,0.6-0.4,0.8C138.4,18.9,138.7,18.8,138.8,18.4z M140.7,15.1c0-0.1-0.1-0.1-0.1-0.2c-0.2,0.3-0.4,0.8-0.6,1.2
		C140.4,16.1,140.3,15.2,140.7,15.1z M140.5,14.4c0,0-0.1-0.1-0.1-0.2c-0.1,0.3-0.2,0.6-0.3,0.9C140.2,15,140.4,14.7,140.5,14.4z"/>
	<path class="st5" d="M145.2,44.2c-0.1-0.1-0.1-0.1-0.1-0.2c-0.2,0.1-0.2,0.1-0.3,0.2c-0.7-0.6-0.9-1.4-0.9-2.2
		c-0.1-1,0.2-2.1,0.4-3.1c0.1-0.8,0.4-1.6,0.7-2.4c0.2-0.7,0.3-1.3,0.6-2c0.1-0.5,0.1-0.9,0.2-1.3c0.1-0.3,0.1-0.4,0.5-0.3
		c0.2,0,0.3,0.1,0.3,0.1c0.1,0.1,0.2,0.1,0.2,0.1c0.2,0.1,0.6-0.1,0.8,0.1c0.4,0.2,0.5,0.6,0.5,1l-0.3,1c-0.1,0.3-0.2,0.7-0.3,1.1
		c-0.2,0.3-0.3,0.8-0.5,1.3c-0.1,0.2-0.1,0.4-0.1,0.6c-0.1,0.2-0.2,0.4-0.2,0.6c-0.3,0.9-0.4,1.9-0.5,2.7c0,0.1,0.1,0.1,0.2,0.1
		l0.7-0.7c0.8-0.8,1.4-1.5,2.2-2.4c0.8-0.9,1.5-1.8,2.3-2.8c0.1-0.1,0.2-0.2,0.3-0.2c0.2-0.3,0.3-0.3,0.6-0.1c0,0.1,0.1,0.1,0.1,0.1
		c0.5,0.1,0.9,0.1,1,0.4v0.1c0.2,0,0.5,0,0.6,0c0.1,0.2,0.2,0.4,0.2,0.5c0.1,0.1,0.1,0.2,0.1,0.2c-0.4,0.3-0.5,0.7-0.5,1.1l-0.3,1.6
		c0,0.3,0,0.7-0.1,1.1c0,0.3,0.1,0.6,0,1c0.5-0.5,0.9-0.9,1.3-1.3c0.6-0.5,1-1,1.5-1.5c0.4-0.6,0.9-1.4,1.4-2
		c0.5-0.8,0.8-1.7,1.2-2.4c0.2-0.5,0.2-1,0.3-1.4c0.2-0.6,0.3-1.4,0.2-2.1c-0.1-0.3-0.1-0.5-0.2-0.6l0.1-0.2c0.3,0,0.5,0.1,0.7,0.3
		c0.3,0.4,0.5,0.9,0.5,1.3c0,0.6,0,1.2-0.1,1.7c-0.1,0.5-0.3,0.9-0.5,1.2c-0.1,0.2-0.1,0.3-0.1,0.4c0,0.1-0.1,0.1-0.1,0.2
		c-0.1,0.2-0.1,0.3-0.3,0.5c-0.1-0.1-0.1-0.1-0.2-0.2c-0.1,0.1-0.2,0.2-0.2,0.4V36c-0.2,0.5-0.5,0.8-0.6,1.3h0.1
		c0.1,0,0.1,0,0.1,0.1c-0.1,0-0.1,0.1-0.3,0.1c0,0.1,0,0.2,0.1,0.3c-0.2,0-0.3,0.1-0.5,0.1l0.1,0.3c-0.1,0-0.1,0-0.2,0v0.5
		c0.2-0.2,0.6-0.1,0.6-0.6c0.1,0,0.2,0.1,0.3,0.1c0.1-0.3,0.1-0.5,0.2-0.8c0.5,0.2,0.5-0.2,0.6-0.4c-0.1-0.2-0.1-0.3-0.1-0.3
		c0.1-0.5,0.3-0.9,0.5-1c-0.1,0.3-0.2,0.6-0.2,1c0.1,0,0.1,0,0.1,0.1c0.2-0.5,0.5-1,0.6-1.5h0.1c-0.1,0.1-0.1,0.2-0.1,0.3
		c-0.3,0.6-0.3,1.2-0.7,1.8c-0.1,0.2-0.2,0.5-0.3,0.8c-0.2-0.1-0.2-0.2-0.3-0.2c-0.1,0.1-0.1,0.2-0.2,0.3c-0.1,0.1-0.1,0.2-0.2,0.2
		l-0.3-0.2c-0.1,0.1-0.1,0.3-0.2,0.5c0.2-0.1,0.3-0.1,0.6-0.1c-0.1,0.3-0.2,0.7-0.6,0.8c-0.1,0-0.1,0.1-0.1,0.1
		c-0.5,0.8-1,1.4-1.6,2.1c-0.4,0.5-0.8,1-1.3,1.3c-0.3,0.2-0.7,0.5-1.1,0.8c-0.5,0.3-1.4,0.2-1.8-0.2c-0.1-0.1-0.1-0.1-0.2-0.1
		c-0.6,0-0.7-0.5-1-0.9c-0.5-0.9-0.3-2-0.3-3c-0.3,0.5-0.8,1-1.2,1.4c-0.3,0.4-0.6,0.7-0.9,1.1c-0.1,0.1-0.3,0.3-0.4,0.5
		c-0.2,0.3-0.4,0.6-0.8,0.9c-0.3,0.3-0.7,0.8-1.2,0.9c-0.3,0.1-0.6,0.3-0.9,0.3C145.6,44.5,145.4,44.3,145.2,44.2z M151.9,41.3
		c0.1-0.4,0.1-0.8,0.2-1.3c-0.2,0.1-0.3,0.1-0.3,0.2c-0.1,0.3-0.1,0.7-0.1,1.1H151.9z M152.5,43.2c-0.1-0.2-0.2-0.5-0.3-0.6
		c-0.1,0-0.1,0-0.2,0.1c0.1,0.1,0.2,0.3,0.2,0.5C152.3,43.2,152.4,43.2,152.5,43.2C152.5,43.2,152.5,43.2,152.5,43.2z M158.3,36.7
		c0.1,0,0-0.1,0-0.1c-0.2,0-0.1-0.2-0.1-0.2c0.2-0.3,0.3-0.5,0.5-0.7c-0.1-0.1-0.1-0.2-0.2-0.3c-0.2,0.2-0.3,0.5-0.5,0.8h0.1
		c0.1,0,0.1,0,0.2-0.1l-0.2,0.4c-0.1-0.1-0.1-0.1-0.1-0.1c-0.3,0.1-0.1,0.2-0.1,0.5C158.1,36.8,158.2,36.7,158.3,36.7z M159,35.2
		c-0.2-0.2,0.1-0.3,0.1-0.4c-0.2-0.1-0.2-0.1-0.4,0.7C158.9,35.4,159,35.2,159,35.2z M159.2,34.5c0-0.1-0.1-0.2-0.1-0.3l0.1-0.1
		c0,0.1,0.1,0.2,0.1,0.2l0.2-0.6c0.1-0.2,0.1-0.4,0.1-0.6c0.2-0.3,0.2-0.3-0.1-0.5c0.1,0.3-0.2,0.6-0.2,1c0.1,0.1-0.1,0.3-0.2,0.4
		c-0.2,0.2-0.2,0.3-0.2,0.5H159.2z M160.5,34.2c0.1,0.1,0.1,0.1,0.1,0.1c0.1,0.2-0.1,0.5-0.1,0.7h-0.1
		C160.4,34.8,160.4,34.5,160.5,34.2z M160.8,33c0.1,0,0.1,0,0.2,0.1l-0.2,1c0,0-0.1,0-0.2,0C160.6,33.7,160.8,33.4,160.8,33z"/>
	<path class="st5" d="M174.3,39.9c0.8-0.2,1.4-0.9,2.1-1.3c-0.1,0.1-0.1,0.2-0.1,0.3c-0.2,0.2-0.5,0.5-0.8,0.6l-1.1,0.9
		c-0.5,0.2-0.8,0.5-1.2,0.8c-0.5,0.3-1,0.7-1.6,0.9c-0.3,0.2-0.8,0.2-1.2,0.2c-0.2,0-0.3,0.1-0.5,0.2c-0.2,0.1-0.6,0.2-0.9,0.2
		c-0.5,0.1-0.9,0.2-1.3,0.2c-0.6-0.1-1.2-0.2-1.7-0.3c-0.5-0.2-0.8-0.2-1.3-0.7c-0.1-0.1-0.2-0.2-0.3-0.2c-0.4-0.3-0.6-0.6-1-1.2
		c-0.1-0.1-0.1-0.1-0.2-0.7c-0.3-0.7-0.2-1.1-0.2-1.5c0.1-1.2,0.3-2.3,0.9-3.3c0.2-0.3,0.5-0.7,0.8-1c0.5-0.6,1-1.2,1.6-1.8
		c0.5-0.5,1.2-0.9,1.9-0.9c0.2,0,0.3-0.1,0.6-0.1c0.6-0.2,1.1,0.2,1.5,0.4c0.5,0.2,1,0.6,1.4,0.9c0.5,0.3,0.8,1.3,0.6,1.7
		c-0.1,0.3-0.3,0.6-0.5,0.8c-0.5,0.6-1,1.1-1.6,1.6c-0.2,0.2-0.5,0.2-0.6,0.4c-0.1,0.4-0.5,0.5-0.7,0.6l-0.4,0.2
		c0.1,0,0.2,0.1,0.2,0.1c-0.2,0.1-0.3,0.2-0.6,0.3c-0.1,0.1-0.1,0.2-0.1,0.3c-0.4,0.2-0.9,0.4-1.2,0.6c-0.2,0.1-0.3,0.2-0.4,0.3
		c-0.5,0.2-0.6,0.3-1,0.5c0.2,0.7,0.3,0.8,0.8,1c0.8-0.1,1.5,0,2.3-0.1c0.5-0.1,1-0.3,1.6-0.5c0.4-0.2,0.9-0.4,1.3-0.6
		c0.3-0.1,0.6-0.1,0.9-0.3c0.6-0.4,1.3-0.8,1.9-1.1l0.2-0.1c0.1,0.1,0.1,0.1,0.1,0.1c-0.1,0.1-0.2,0.2-0.2,0.3
		c0.1,0.1,0.1,0.1,0.1,0.2c0.2,0,0.3-0.1,0.5-0.1c0.1,0.1,0.1,0.1,0,0.1c-0.2,0.2-0.5,0.4-0.8,0.6c0.2,0.1,0.5,0.2,0.8,0.3
		c-0.2,0.1-0.2,0.1-0.3,0.2C174.3,39.8,174.3,39.9,174.3,39.9z M165.3,37.5c0.5-0.3,0.8-0.5,1-0.6c0.1,0,0.2,0.1,0.3,0
		c0.2-0.1,0.5-0.3,0.7-0.5c-0.2,0-0.2,0.1-0.4,0.1c0.3-0.3,0.5-0.6,0.9-0.6c-0.1,0.2-0.3,0.3-0.4,0.5c0,0,0,0.1,0.1,0.1
		c0.5-0.3,1-0.8,1.5-1.1l-0.1-0.1c-0.1,0.1-0.2,0.2-0.5,0.3c-0.2,0.1-0.3,0.2-0.6,0.3c0.1-0.1,0.1-0.1,0.1-0.2
		c0.6-0.5,1-0.9,1.6-1.4c0.3-0.3,0.6-0.6,0.8-1c0.2-0.3-0.1-0.8-0.3-0.7c-0.5,0.2-1,0.2-1.5,0.6c-0.5,0.4-1,0.7-1.4,1.2
		c-0.5,0.6-0.9,1.3-1.2,2C165.6,36.7,165.4,37.1,165.3,37.5z M170.4,34.6c0.2-0.3,0.5-0.8,0.6-1.1l-0.2-0.5
		C170.5,33.5,170.2,33.9,170.4,34.6z M173.9,38.8c-0.1-0.2-0.6,0-1,0.5C173.3,39.1,173.6,39,173.9,38.8z M174.4,38
		c0.5-0.3,1-0.6,1.6-0.9C175.9,37.4,175.6,37.5,174.4,38C174.4,38.1,174.4,38,174.4,38z M177.8,36.5L177.8,36.5
		C177.8,36.5,177.9,36.5,177.8,36.5c0.1,0.1,0.1,0.1,0.1,0.1c-0.1,0.1-0.3,0.3-0.6,0.5l0.1,0.2c-0.2,0.1-0.3,0.2-0.2,0.4
		c-0.2,0.2-0.6,0.2-0.6,0.6c0,0,0,0.1-0.1,0.1c-0.4,0-0.6,0.4-0.9,0.6c-0.2,0.1-0.4,0.3-0.7,0.4c-0.1,0.1-0.2-0.1-0.3-0.1
		c-0.1-0.1-0.1-0.2-0.1-0.3s0.1-0.1,0.1-0.1c0.5,0.1,0.9-0.3,1.3-0.5l0.4-0.2c0.2-0.1,0.3-0.2,0.1-0.6c-0.4,0.3-0.9,0.6-1.4,1
		c-0.1-0.1-0.2-0.1-0.4-0.2c0.4-0.2,1.3-0.8,1.7-1.4c0.1-0.1,0.8-0.4,0.9-0.6l0.4,0.2c0.1-0.2,0.2-0.3,0.3-0.4
		c-0.1-0.1-0.1-0.1-0.2-0.1l0.1-0.1c0.2,0,0.3,0,0.6-0.1c-0.1-0.1-0.1-0.2-0.1-0.2l0.3-0.2l-0.1-0.1l-0.2,0.2h-0.1l1-0.6l0.1,0.4
		c0,0,0.1,0,0.1,0.1c-0.2,0.1-0.3,0.3-0.5,0.4C178.5,36.1,178.1,36.3,177.8,36.5z"/>
	<path class="st5" d="M205.3,7.1v0.2c0.1-0.2,0.2-0.3,0.3-0.5c-0.3-0.6,0.2-1,0.3-1.6c0.1,0.6-0.1,1.2-0.2,1.6
		c-0.1,0.2-0.1,0.6-0.2,0.9c-0.1,0-0.2-0.1-0.3-0.1L205,8h0.1c0.1-0.1,0.2-0.1,0.3-0.2v0.1c-0.1,0.7-0.3,1.3-0.5,2.1
		c0,0.1-0.2,0.2-0.2,0.2c0.2,0.3-0.1,0.5-0.4,0.6c-0.1,0-0.1,0.1-0.1,0.2c0.1-0.2,0.1-0.2,0.2-0.2c0.6,0.7-0.2,0.3-0.3,0.6
		c0.1,0.2,0.2,0.3,0.2,0.3v0.1c-0.1,0-0.2,0-0.3-0.1c0,0.3,0.1,0.6,0.1,0.9c-0.2,0-0.3,0-0.4,0.1v0.1l-0.1,0.3
		c-0.1,0.3-0.1,0.6-0.1,0.9c-0.1,0-0.1,0.1-0.3,0.1c-0.3,0-0.3,0.2-0.2,0.4c0.1,0.1,0.1,0.4-0.2,0.6c0,0.2-0.2,0.8-0.5,1.2
		c0-0.1,0-0.3,0.1-0.4c-0.2,0-0.3,0-0.5-0.1l0.4-0.7c-0.2,0-0.4,0.3-0.6,0.9c0.1,0,0.3,0.1,0.4,0.2c-0.2,0.2-0.7,0.3-0.4,0.8
		c-0.1,0.2-0.3,0.4-0.3,0.6h-0.1c0.1,0.6-0.1,0.8-0.3,1.1c-0.3,0.3-0.5,0.5-0.8,0.6c0.1,0.2,0.2,0.2,0.2,0.3h-0.1
		c-0.3,0.5-0.7,0.9-0.8,1.3c-0.2,0.5-0.4,0.8-0.5,1.2c0,0-0.1-0.1-0.1-0.1c0.1-0.1,0.1-0.2,0.1-0.4c-0.1,0.1-0.1,0.2-0.3,0.3v-0.3
		c0.1-0.1,0.2-0.2,0.2-0.3c0.1-0.3,0.1-0.4,0.3-0.5c0.1,0,0.1-0.2,0.2-0.2c0.2-0.3,0.5-0.7,0.8-1.2c0.2-0.2,0.2-0.4,0.4-0.7
		l-0.1-0.1c-0.2,0.1-1.1,0.9-1.3,1c-0.1,0.5-0.2,0.6-0.6,0.6c0-0.1,0-0.3,0.1-0.5c0,0-0.1,0-0.2-0.1c-0.2,0.3-0.5,0.6-0.7,0.9
		c-0.2,0.4-0.5,0.9-0.9,1.3c-0.1,0-0.2,0.1-0.1,0.2c-0.1,0.3-0.2,0.5-0.5,0.6c0,0,0,0.1,0.1,0.2c-0.1,0.1-0.4,0.2-0.3,0.6l-0.1,0.1
		c-0.2,0.3-0.5,0.6-0.8,1c-0.1,0-0.1,0.2-0.2,0.3c0.1,0.1,0.1,0.1,0.2,0.1c0.2-0.3,0.5-0.5,0.6-0.8c0.1,0,0.1-0.1,0.1-0.2
		c0.5-0.2,0.7-0.8,0.9-1.2c0.2-0.3,0.5-0.6,0.7-0.9c0.3-0.3,0.5-0.7,0.8-1.2c0.2-0.3,0.2-0.3,0.6-0.2c0.2,0.3-0.8,0.1-0.4,0.7
		c-0.3,0.1-0.3,0.4-0.4,0.7C198,21.9,198,22,198,22c-0.7,0.3-0.7,0.8-0.9,1.1c-0.3,0.6-0.8,1-1,1.4v0.2c0.2-0.2,0.2-0.2,0.5-0.4
		c0.2-0.3,0.4-0.7,0.6-1.1c0.1-0.3,0.5-0.4,0.9-0.3c-0.2,0.4-0.8,0.1-0.8,0.7c0.3,0.1,0.3,0.1-0.1,0.5c-0.1,0-0.2-0.1-0.2-0.1
		c-0.1,0.8-0.8,1.5-1.2,2.1h-0.2c0.2-0.4,0.5-0.8,0.6-1.3c0,0-0.1,0-0.1-0.1c0,0.2-0.1,0.3-0.2,0.4c0,0-0.1,0-0.1-0.1v-0.2h-0.1
		l-0.8,0.8l-1.3,1.8c-0.3,0.3-0.5,0.5-0.7,0.8c-0.3,0.5-0.6,0.9-1,1.4c-0.1,0.1-0.2,0.1-0.2,0.1c-0.3,0.1-0.5,0.1-0.4,0.4
		c-0.2-0.1-0.5-0.2-0.6,0.1c-0.1,0.1-0.1,0.3-0.1,0.7c0.3,0,0.5-0.1,0.7-0.3c0.4-0.5,0.9-0.8,1.2-1.4c0.4-0.4,0.7-0.9,1.1-1.3
		c0.4-0.6,0.8-1.2,1.2-1.7c0-0.1,0.2-0.2,0.3-0.2c0.1,0.1,0.1,0.1,0.1,0.1c-0.1,0.1,0.2,0.4,0.5,0.3c-0.2,0.1-0.2,0.2-0.3,0.5
		c-0.1-0.1-0.3-0.1-0.5-0.1c-0.1,0.4-0.5,0.6-0.4,1.2c-0.1-0.1-0.2-0.1-0.3-0.1v0.1c0.1,0.1,0.2,0.1,0.2,0.2
		c-0.2,0.1-0.3,0.1-0.5,0.2c0.3,0.3-0.1,0.5-0.2,0.7c-0.3,0.2-0.5,0.5-0.8,0.8c-0.3,0.3-0.3,0.3-0.4,0.3c-0.1,0.1-0.1,0.2-0.2,0.4
		c-0.1,0.1-0.2,0.2-0.2,0.3l-2.5,3.2c-0.1,0.2-0.1,0.3-0.1,0.4v0.2c0,0.1,0,0.2-0.1,0.3c0.1,0.1,0.1,0.3-0.1,0.6
		c-0.1,0.1,0.1,0.4,0.1,0.6l0.3,2l0.2,0.6c0,0.1,0.1,0.4,0.2,0.5c0.2,0.3,0.5,0.5,0.7,0.6c0.8,0.2,1,0.2,1.8,0.2
		c0.8,0,1.7-0.3,2.6-0.6c1.4-0.5,2.8-1.4,4.2-2c0.3-0.2,0.6-0.3,0.9-0.5c0.1-0.1,0.1,0,0.2,0c-1.7,1.2-3.2,2-5,2.8l0.4,0.1
		c0.3,0,0.6,0.2,0.9-0.1c0.1-0.1,0.3-0.1,0.6-0.1l0.1-0.3c0.8-0.6,1.6-1,2.3-1.5c0.1,0.1,0.1,0.1,0.2,0.1c-0.4,0.4-0.6,0.7-1.1,1.1
		c0,0,0.2,0.1,0.2,0.2c-0.8,0.6-0.9,0.7-1.6,1.3c-0.6,0.3-2,0.7-2.5,1c-0.4,0.2-0.9,0.3-1.4,0.4c-0.3,0.1-0.6,0.1-0.9,0.1
		s-0.8-0.1-1.2-0.1c-0.8,0-1.7-0.3-2.3-0.6c-0.7-0.5-1-0.9-1.2-1.5l-0.2-0.2l-0.1-0.2c-0.2-0.8-0.5-1.5-0.6-1.9l-0.6,0.9
		c-0.1,0.1-0.2,0.4-0.3,0.6c-0.6,0.8-0.7,0.8-1,1.2c-0.4,0.4-0.9,0.9-1.3,1.3c-0.5,0.3-1,0.6-1.7,1c-0.9,0.6-1.8,0.5-2.7,0.3
		c-0.4-0.1-0.9-0.5-1.3-0.8c-0.2-0.2-0.3-0.6-0.6-1c-0.1-0.1,0-0.3-0.1-0.6c-0.1-0.5-0.6-1-0.5-1.7c0.2-0.6,0.3-1.2,0.4-1.8v-0.1
		h0.1c0.2-0.6,0.5-1.4,0.6-1.7c0,0,0-0.1,0.1-0.1c0.3-0.6,0.5-1,0.8-1.3l0.3-0.5c3.5-3.9,6.8-2.2,6.8-2.2s1.8,1.4-0.1,3h-0.1
		c-0.8,0.1-1.1-0.3-1.2-1.1c-0.2-0.6-0.8-0.7-1.7-0.3c-0.3,0.2-0.6,0.3-0.8,0.6c-0.8,0.6-1.4,1.6-1.8,2.4c-0.1,0.2-0.3,0.7-0.4,0.8
		c0,0.1,0,0.2-0.1,0.4c-0.2,0.6-0.3,1.3-0.3,1.6c-0.1,0.2-0.1,0.4-0.2,0.5c-0.4,0.8-0.1,1.4-0.2,2.1c0.8,0.3,1.4,0,1.8-0.2
		c0.5-0.3,0.8-0.5,1.3-0.9c0.5-0.4,0.8-1,1.3-1.4c0.2-0.5,0.7-0.8,1-1.2l1.6-2.2l0.9-1.7c0-0.1,0,0.1,0.4-0.9c0-0.1,0.1-0.3,0.1-0.4
		c0.1-0.1,0.1-0.3,0.1-0.5l0.6-3.9c0.2-1,0.4-1.8,0.7-2.9c0.2-0.8,0.3-1.5,0.5-2.4c0.1-0.2,0.2-0.5,0.3-0.8l0.3,0.1
		c0.1-0.2,0.2-0.3,0.2-0.6c-0.2,0.1-0.3,0.3-0.5,0.4c0-0.1,0-0.3,0.1-0.3c0.3-1,0.6-2,0.9-3c0.3-1.4,0.9-2.8,1.4-4.2
		c0.1-0.2,0.1-0.2,0.4-0.1c0-0.1,0.1-0.2,0.1-0.3c-0.2,0.1-0.3,0.1-0.5,0.2c0.2-0.6,0.4-1.2,0.6-1.5l0.5-1.6c0.3-0.5,0.5-1,0.9-1.7
		c0.2-0.3,0.2-0.7,0.5-1.1c0.2-0.3,0.4-0.6,0.5-0.8l0.5-1c0-0.1,0-0.1,0.1-0.2c0.3-0.4,0.6-0.9,0.9-1.5c0-0.1,0.1-0.1,0.1-0.1
		c0.2-0.3,0.5-0.6,0.6-0.9c0.1-0.1,0.1-0.1,0.1-0.1c0-0.5,0.5-0.8,0.7-1.1c0.2-0.3,0.5-0.6,0.8-1c0.8-0.9,1.9-1.4,3.2-1.6
		c0.9-0.2,1.9,0.1,2.7,0.6c0.6,0.3,0.8,1,1.2,1.7c0.1,0.5-0.2,1-0.1,1.4c0,0-0.1,0.2-0.2,0.2l0.5,0.2v0.2h-0.3
		C205.6,5.1,205.4,6.2,205.3,7.1z M177.9,37h-0.1c0,0.1,0,0.2,0.1,0.3c0-0.1,0.1-0.1,0.1-0.1V37z M185.7,37.1
		c-0.2,0.1-0.3,0.1-0.4,0c-0.2,0.3-0.5,0.6-0.8,0.9h0.1l0.2-0.1c0.1,0.1,0.1,0.1,0.2,0.3C185.2,37.8,185.5,37.5,185.7,37.1z
		 M189.7,23.4h-0.2c-0.1,0.4-0.1,0.8-0.2,1.3h0.1C189.4,24.4,189.6,23.8,189.7,23.4z M199.9,15.1c0.4-0.6,0.8-1.2,1-1.9l0.9-2.5
		l0.5-1.2c0.3-0.8,0.5-1.6,0.6-2.3c0.2-1.2,0.4-2.1,0.6-3.3c0.1-0.9,0.2-1.8-0.2-2.7c0-0.2-0.1-0.3-0.1-0.3
		c-0.2,0.1-0.5,0.1-0.7,0.3l-0.4,0.5c-0.2,0.2-0.4,0.3-0.6,0.4l-1.1,1.1c-0.7,0.7-1.3,1.6-1.9,2.4c-0.2,0.3-0.4,0.6-0.5,0.8
		c-0.2,0.4-0.5,0.9-0.9,1.4c-0.1,0.3-0.3,0.8-0.5,1.1c-0.2,0.4-0.3,0.8-0.5,1.2c-0.2,0.4-0.4,0.8-0.6,1.1c-0.1,0.3-0.2,0.6-0.2,0.8
		c-0.2,0.3-0.3,0.4-0.5,0.7c-0.1,0.3-0.2,0.8-0.3,1.2c-0.3,0.6-0.5,1.3-0.8,2c-0.2,0.4-0.5,0.8-0.6,1.3h0.1h0.2
		c-0.3,0.3-0.2,1-0.6,1.1c0,0.1,0.1,0.2,0.1,0.3c-0.1,0.4-0.2,0.8-0.3,1.1c-0.2,0.6-0.4,0.9-0.5,1.4c-0.1,0.3-0.1,0.8-0.3,1.2
		c-0.1,0.4-0.3,0.8-0.5,1.2c-0.1,0.2,0.1,0.6,0.2,0.6c-0.2,0.3-0.2,0.5-0.3,0.7c-0.1,0.1-0.1,0.2-0.1,0.2c-0.3,0.5-0.1,0.9-0.3,1.3
		c0,0.1,0.2,0.1,0.2,0.1c0,0.1,0.1,0.2,0,0.2c-0.2,0.3-0.3,0.6-0.5,0.9c-0.1-0.1-0.1-0.2-0.1-0.3c-0.1,0.1-0.2,0.1-0.2,0.1
		c0.2,0.3,0.3,0.6,0.1,1c-0.2,0.4-0.2,0.8-0.8,0.8c0.5,0.2,0.5,0.2,0.3,0.6c0.1-0.1,0.2-0.2,0.2-0.2c0.2-0.2,0.4-0.5,0.6-0.8
		c0.5-0.6,1-1.3,1.6-2c0.3-0.3,0.6-0.9,1-1.3l1.1-1.6l1.3-1.8c0.4-0.6,0.8-1.3,1.2-1.8c0.2-0.5,0.6-1,1-1.5
		C198.6,17.4,199.3,16.3,199.9,15.1z M189.7,25.2c0.4-0.8,0.5-1.2,0.3-1.4C190,24.3,189.7,24.7,189.7,25.2z M190.1,23.5
		C190.1,23.5,190.2,23.5,190.1,23.5c0.3-0.9,0.6-1.7,0.8-2.7c0,0-0.1,0-0.1-0.1L190.1,23.5z M191.1,29c-0.2,0.3-0.3,0.5-0.6,0.8
		c-0.1,0-0.1-0.1-0.1-0.1c-0.1,0.2-0.1,0.3-0.1,0.5l0.2,0.1c0.2-0.2,0.3-0.5,0.6-0.8C191.4,29.2,191.3,29.1,191.1,29z M190.9,20.5
		h0.2c0.1-0.5,0.2-0.9,0.3-1.3c-0.1,0-0.1-0.1-0.2-0.1C191.2,19.6,191.1,20,190.9,20.5z M191.3,17.5h0.1c0.2-0.5,0.3-1,0.5-1.6
		c-0.1,0-0.2,0.1-0.2,0.1c-0.1,0-0.1,0.1-0.1,0.1C191.6,16.5,191.4,17,191.3,17.5z M193,12.7c-0.1,0.2-0.2,0.5-0.5,0.8
		C193,13.3,193.1,12.8,193,12.7z M193.1,14.8c0,0,0,0.1,0.1,0.1c0.1-0.4,0.3-0.8,0.4-1.2c0,0-0.1,0-0.1-0.1
		C193.4,14.1,193.3,14.5,193.1,14.8z M193.5,11.9l0.2-0.5c0.3-0.5,0.5-0.9,0.7-1.5c0.2-0.2,0.2-0.5,0.2-0.6c0.1-0.2,0.2-0.3,0.3-0.5
		c0.1-0.3,0.3-0.8,0.5-1.1c0.2-0.4,0.5-0.9,0.8-1.3c0.6-0.9,1-1.8,1.7-2.6c0.1-0.2,0.3-0.5,0.5-0.8V2.8c-0.1,0.1-0.2,0.2-0.3,0.2
		c-0.1,0.3-0.4,0.6-0.6,0.9c-0.2,0.1-0.3,0.4-0.4,0.6c-0.2,0.1-0.2,0.4-0.3,0.6c-0.1,0.1-0.3,0.3-0.4,0.6c-0.1,0.3-0.3,0.6-0.6,0.7
		c0.1,0.1,0.2,0.2,0.2,0.3c-0.3,0.4-0.6,0.9-0.9,1.4c-0.1,0.5-0.5,0.7-0.5,1.2c-0.2,0.3-0.3,0.6-0.6,0.8c-0.2,0.5-0.4,1-0.6,1.5
		C193.3,11.6,193.4,11.7,193.5,11.9z M194.8,25.3c-0.2-0.1-0.7,0.2-0.7,0.3c-0.1,0.1,0,0.3-0.1,0.5C194.4,26.2,194.6,26,194.8,25.3z
		 M203.8,9L203.8,9c-0.1,0.3-0.3,0.7-0.5,1c-0.2,0.5-0.3,0.9-0.5,1.3c-0.2,0.6-0.5,1.2-0.8,1.7c-0.2,0.5-0.5,1.1-0.8,1.6
		c-0.3,0.3-0.5,0.7-0.7,1.1c-0.1,0.3-0.2,0.6-0.4,0.8c-0.2,0.1-0.2,0.5-0.5,0.7c-0.2,0.1-0.4,0.6-0.5,0.9v0.2h0.2v-0.1
		c-0.1-0.1-0.1-0.1-0.2-0.1c0.1-0.2,0.2-0.3,0.3-0.6c0.2-0.1,0.2-0.3,0.3-0.4c0.3-0.5,0.7-0.8,0.9-1.2c0.1-0.3,0.2-0.5,0.4-0.7
		c0.1-0.2,0.2-0.4,0.3-0.6c0-0.1,0.1-0.1,0.1-0.1c0.5-0.1,0.4-0.5,0.6-0.9L202,14c-0.1-0.5,0.2-0.8,0.6-0.9c-0.2-0.7,0.3-1.3,0.5-2
		C203.4,10.5,203.7,9.7,203.8,9z"/>
	<path class="st5" d="M226.3,7.1v0.2c0.1-0.2,0.2-0.3,0.3-0.5c-0.3-0.6,0.2-1,0.3-1.6c0.1,0.6-0.1,1.2-0.2,1.6
		c-0.1,0.2-0.1,0.6-0.2,0.9c-0.1,0-0.2-0.1-0.3-0.1L226,8h0.1c0.1-0.1,0.2-0.1,0.3-0.2v0.1c-0.1,0.7-0.3,1.3-0.5,2.1
		c0,0.1-0.2,0.2-0.2,0.2c0.2,0.3-0.1,0.5-0.4,0.6c-0.1,0-0.1,0.1-0.1,0.2c0.1-0.2,0.1-0.2,0.2-0.2c0.6,0.7-0.2,0.3-0.3,0.6
		c0.1,0.2,0.2,0.3,0.2,0.3v0.1c-0.1,0-0.2,0-0.3-0.1c0,0.3,0.1,0.6,0.1,0.9c-0.2,0-0.3,0-0.4,0.1v0.1l-0.1,0.3
		c-0.1,0.3-0.1,0.6-0.1,0.9c-0.1,0-0.1,0.1-0.3,0.1c-0.3,0-0.3,0.2-0.2,0.4c0.1,0.1,0.1,0.4-0.2,0.6c0,0.2-0.2,0.8-0.5,1.2
		c0-0.1,0-0.3,0.1-0.4c-0.2,0-0.3,0-0.5-0.1l0.4-0.7c-0.2,0-0.4,0.3-0.6,0.9c0.1,0,0.3,0.1,0.4,0.2c-0.2,0.2-0.7,0.3-0.4,0.8
		c-0.1,0.2-0.3,0.4-0.3,0.6h-0.1c0.1,0.6-0.1,0.8-0.3,1.1c-0.3,0.3-0.5,0.5-0.8,0.6c0.1,0.2,0.2,0.2,0.2,0.3h-0.1
		c-0.3,0.5-0.7,0.9-0.8,1.3c-0.2,0.5-0.4,0.8-0.5,1.2c0,0-0.1-0.1-0.1-0.1c0.1-0.1,0.1-0.2,0.1-0.4c-0.1,0.1-0.1,0.2-0.3,0.3v-0.3
		c0.1-0.1,0.2-0.2,0.2-0.3c0.1-0.3,0.1-0.4,0.3-0.5c0.1,0,0.1-0.2,0.2-0.2c0.2-0.3,0.5-0.7,0.8-1.2c0.2-0.2,0.2-0.4,0.4-0.7
		l-0.1-0.1c-0.2,0.1-1.1,0.9-1.3,1c-0.1,0.5-0.2,0.6-0.6,0.6c0-0.1,0-0.3,0.1-0.5c0,0-0.1,0-0.2-0.1c-0.2,0.3-0.5,0.6-0.7,0.9
		c-0.2,0.4-0.5,0.9-0.9,1.3c-0.1,0-0.2,0.1-0.1,0.2c-0.1,0.3-0.2,0.5-0.5,0.6c0,0,0,0.1,0.1,0.2c-0.1,0.1-0.4,0.2-0.3,0.6l-0.1,0.1
		c-0.2,0.3-0.5,0.6-0.8,1c-0.1,0-0.1,0.2-0.2,0.3c0.1,0.1,0.1,0.1,0.2,0.1c0.2-0.3,0.5-0.5,0.6-0.8c0.1,0,0.1-0.1,0.1-0.2
		c0.5-0.2,0.7-0.8,0.9-1.2c0.2-0.3,0.5-0.6,0.7-0.9c0.3-0.3,0.5-0.7,0.8-1.2c0.2-0.3,0.2-0.3,0.6-0.2c0.2,0.3-0.8,0.1-0.4,0.7
		c-0.3,0.1-0.3,0.4-0.4,0.7C219,21.9,219,22,219,22c-0.7,0.3-0.7,0.8-0.9,1.1c-0.3,0.6-0.8,1-1,1.4v0.2c0.2-0.2,0.2-0.2,0.5-0.4
		c0.2-0.3,0.4-0.7,0.6-1.1c0.1-0.3,0.5-0.4,0.9-0.3c-0.2,0.4-0.8,0.1-0.8,0.7c0.3,0.1,0.3,0.1-0.1,0.5c-0.1,0-0.2-0.1-0.2-0.1
		c-0.1,0.8-0.8,1.5-1.2,2.1h-0.2c0.2-0.4,0.5-0.8,0.6-1.3c0,0-0.1,0-0.1-0.1c0,0.2-0.1,0.3-0.2,0.4c0,0-0.1,0-0.1-0.1v-0.2h-0.1
		l-0.8,0.8l-1.3,1.8c-0.3,0.3-0.5,0.5-0.7,0.8c-0.3,0.5-0.6,0.9-1,1.4c-0.1,0.1-0.2,0.1-0.2,0.1c-0.3,0.1-0.5,0.1-0.4,0.4
		c-0.2-0.1-0.5-0.2-0.6,0.1c-0.1,0.1-0.1,0.3-0.1,0.7c0.3,0,0.5-0.1,0.7-0.3c0.4-0.5,0.9-0.8,1.2-1.4c0.4-0.4,0.7-0.9,1.1-1.3
		c0.4-0.6,0.8-1.2,1.2-1.7c0-0.1,0.2-0.2,0.3-0.2c0.1,0.1,0.1,0.1,0.1,0.1c-0.1,0.1,0.2,0.4,0.5,0.3c-0.2,0.1-0.2,0.2-0.3,0.5
		c-0.1-0.1-0.3-0.1-0.5-0.1c-0.1,0.4-0.5,0.6-0.4,1.2c-0.1-0.1-0.2-0.1-0.3-0.1v0.1c0.1,0.1,0.2,0.1,0.2,0.2
		c-0.2,0.1-0.3,0.1-0.5,0.2c0.3,0.3-0.1,0.5-0.2,0.7c-0.3,0.2-0.5,0.5-0.8,0.8c-0.3,0.3-0.3,0.3-0.4,0.3c-0.1,0.1-0.1,0.2-0.2,0.4
		c-0.1,0.1-0.2,0.2-0.2,0.3l-2.5,3.2c-0.1,0.2-0.1,0.3-0.1,0.4v0.2c0,0.1,0,0.2-0.1,0.3c0.1,0.1,0.1,0.3-0.1,0.6
		c-0.1,0.1,0.1,0.4,0.1,0.6l0.3,2l0.2,0.6c0,0.1,0.1,0.4,0.2,0.5c0.2,0.3,0.5,0.5,0.7,0.6c0.8,0.2,1,0.2,1.8,0.2
		c0.8,0,1.7-0.3,2.6-0.6c1.4-0.5,2.8-1.4,4.2-2c0.3-0.2,0.6-0.3,0.9-0.5c0.1-0.1,0.1,0,0.2,0c-1.7,1.2-3.2,2-5,2.8l0.4,0.1
		c0.3,0,0.6,0.2,0.9-0.1c0.1-0.1,0.3-0.1,0.6-0.1l0.1-0.3c0.8-0.6,1.6-1,2.3-1.5c0.1,0.1,0.1,0.1,0.2,0.1c-0.4,0.4-0.6,0.7-1.1,1.1
		c0,0,0.2,0.1,0.2,0.2c-0.8,0.6-0.9,0.7-1.6,1.3c-0.6,0.3-2,0.7-2.5,1c-0.4,0.2-0.9,0.3-1.4,0.4c-0.3,0.1-0.6,0.1-0.9,0.1
		s-0.8-0.1-1.2-0.1c-0.8,0-1.7-0.3-2.3-0.6c-0.7-0.5-1-0.9-1.2-1.5l-0.2-0.2l-0.1-0.2c-0.2-0.8-0.5-1.5-0.6-1.9l-0.6,0.9
		c-0.1,0.1-0.2,0.4-0.3,0.6c-0.6,0.8-0.7,0.8-1,1.2c-0.4,0.4-0.9,0.9-1.3,1.3c-0.5,0.3-1,0.6-1.7,1c-0.9,0.6-1.8,0.5-2.7,0.3
		c-0.4-0.1-0.9-0.5-1.3-0.8c-0.2-0.2-0.3-0.6-0.6-1c-0.1-0.1,0-0.3-0.1-0.6c-0.1-0.5-0.6-1-0.5-1.7c0.2-0.6,0.3-1.2,0.4-1.8v-0.1
		h0.1c0.2-0.6,0.5-1.4,0.6-1.7c0,0,0-0.1,0.1-0.1c0.3-0.6,0.5-1,0.8-1.3l0.3-0.5c3.5-3.9,6.8-2.2,6.8-2.2s1.8,1.4-0.1,3h-0.1
		c-0.8,0.1-1.1-0.3-1.2-1.1c-0.2-0.6-0.8-0.7-1.7-0.3c-0.3,0.2-0.6,0.3-0.8,0.6c-0.8,0.6-1.4,1.6-1.8,2.4c-0.1,0.2-0.3,0.7-0.4,0.8
		c0,0.1,0,0.2-0.1,0.4c-0.2,0.6-0.3,1.3-0.3,1.6c-0.1,0.2-0.1,0.4-0.2,0.5c-0.4,0.8-0.1,1.4-0.2,2.1c0.8,0.3,1.4,0,1.8-0.2
		c0.5-0.3,0.8-0.5,1.3-0.9c0.5-0.4,0.8-1,1.3-1.4c0.2-0.5,0.7-0.8,1-1.2l1.6-2.2l0.9-1.7c0-0.1,0,0.1,0.4-0.9c0-0.1,0.1-0.3,0.1-0.4
		c0.1-0.1,0.1-0.3,0.1-0.5l0.6-3.9c0.2-1,0.4-1.8,0.7-2.9c0.2-0.8,0.3-1.5,0.5-2.4c0.1-0.2,0.2-0.5,0.3-0.8l0.3,0.1
		c0.1-0.2,0.2-0.3,0.2-0.6c-0.2,0.1-0.3,0.3-0.5,0.4c0-0.1,0-0.3,0.1-0.3c0.3-1,0.6-2,0.9-3c0.3-1.4,0.9-2.8,1.4-4.2
		c0.1-0.2,0.1-0.2,0.4-0.1c0-0.1,0.1-0.2,0.1-0.3c-0.2,0.1-0.3,0.1-0.5,0.2c0.2-0.6,0.4-1.2,0.6-1.5l0.5-1.6c0.3-0.5,0.5-1,0.9-1.7
		c0.2-0.3,0.2-0.7,0.5-1.1c0.2-0.3,0.4-0.6,0.5-0.8l0.5-1c0-0.1,0-0.1,0.1-0.2c0.3-0.4,0.6-0.9,0.9-1.5c0-0.1,0.1-0.1,0.1-0.1
		c0.2-0.3,0.5-0.6,0.6-0.9c0.1-0.1,0.1-0.1,0.1-0.1c0-0.5,0.5-0.8,0.7-1.1c0.2-0.3,0.5-0.6,0.8-1c0.8-0.9,1.9-1.4,3.2-1.6
		c0.9-0.2,1.9,0.1,2.7,0.6c0.6,0.3,0.8,1,1.2,1.7c0.1,0.5-0.2,1-0.1,1.4c0,0-0.1,0.2-0.2,0.2l0.5,0.2v0.2h-0.3
		C226.6,5.1,226.4,6.2,226.3,7.1z M198.9,37h-0.1c0,0.1,0,0.2,0.1,0.3c0-0.1,0.1-0.1,0.1-0.1V37z M206.7,37.1
		c-0.2,0.1-0.3,0.1-0.4,0c-0.2,0.3-0.5,0.6-0.8,0.9h0.1l0.2-0.1c0.1,0.1,0.1,0.1,0.2,0.3C206.2,37.8,206.5,37.5,206.7,37.1z
		 M210.7,23.4h-0.2c-0.1,0.4-0.1,0.8-0.2,1.3h0.1C210.5,24.4,210.6,23.8,210.7,23.4z M220.9,15.1c0.4-0.6,0.8-1.2,1-1.9l0.9-2.5
		l0.5-1.2c0.3-0.8,0.5-1.6,0.6-2.3c0.2-1.2,0.4-2.1,0.6-3.3c0.1-0.9,0.2-1.8-0.2-2.7c0-0.2-0.1-0.3-0.1-0.3
		c-0.2,0.1-0.5,0.1-0.7,0.3l-0.4,0.5c-0.2,0.2-0.4,0.3-0.6,0.4l-1.1,1.1c-0.7,0.7-1.3,1.6-1.9,2.4c-0.2,0.3-0.4,0.6-0.5,0.8
		c-0.2,0.4-0.5,0.9-0.9,1.4c-0.1,0.3-0.3,0.8-0.5,1.1c-0.2,0.4-0.3,0.8-0.5,1.2c-0.2,0.4-0.4,0.8-0.6,1.1c-0.1,0.3-0.2,0.6-0.2,0.8
		c-0.2,0.3-0.3,0.4-0.5,0.7c-0.1,0.3-0.2,0.8-0.3,1.2c-0.3,0.6-0.5,1.3-0.8,2c-0.2,0.4-0.5,0.8-0.6,1.3h0.1h0.2
		c-0.3,0.3-0.2,1-0.6,1.1c0,0.1,0.1,0.2,0.1,0.3c-0.1,0.4-0.2,0.8-0.3,1.1c-0.2,0.6-0.4,0.9-0.5,1.4c-0.1,0.3-0.1,0.8-0.3,1.2
		c-0.1,0.4-0.3,0.8-0.5,1.2c-0.1,0.2,0.1,0.6,0.2,0.6c-0.2,0.3-0.2,0.5-0.3,0.7c-0.1,0.1-0.1,0.2-0.1,0.2c-0.3,0.5-0.1,0.9-0.3,1.3
		c0,0.1,0.2,0.1,0.2,0.1c0,0.1,0.1,0.2,0,0.2c-0.2,0.3-0.3,0.6-0.5,0.9c-0.1-0.1-0.1-0.2-0.1-0.3c-0.1,0.1-0.2,0.1-0.2,0.1
		c0.2,0.3,0.3,0.6,0.1,1c-0.2,0.4-0.2,0.8-0.8,0.8c0.5,0.2,0.5,0.2,0.3,0.6c0.1-0.1,0.2-0.2,0.2-0.2c0.2-0.2,0.4-0.5,0.6-0.8
		c0.5-0.6,1-1.3,1.6-2c0.3-0.3,0.6-0.9,1-1.3l1.1-1.6l1.3-1.8c0.4-0.6,0.8-1.3,1.2-1.8c0.2-0.5,0.6-1,1-1.5
		C219.6,17.4,220.3,16.3,220.9,15.1z M210.7,25.2c0.4-0.8,0.5-1.2,0.3-1.4C211,24.3,210.7,24.7,210.7,25.2z M211.1,23.5
		C211.1,23.5,211.2,23.5,211.1,23.5c0.3-0.9,0.6-1.7,0.8-2.7c0,0-0.1,0-0.1-0.1L211.1,23.5z M212.1,29c-0.2,0.3-0.3,0.5-0.6,0.8
		c-0.1,0-0.1-0.1-0.1-0.1c-0.1,0.2-0.1,0.3-0.1,0.5l0.2,0.1c0.2-0.2,0.3-0.5,0.6-0.8C212.4,29.2,212.3,29.1,212.1,29z M211.9,20.5
		h0.2c0.1-0.5,0.2-0.9,0.3-1.3c-0.1,0-0.1-0.1-0.2-0.1C212.2,19.6,212.1,20,211.9,20.5z M212.3,17.5h0.1c0.2-0.5,0.3-1,0.5-1.6
		c-0.1,0-0.2,0.1-0.2,0.1c-0.1,0-0.1,0.1-0.1,0.1C212.6,16.5,212.4,17,212.3,17.5z M214,12.7c-0.1,0.2-0.2,0.5-0.5,0.8
		C214,13.3,214.1,12.8,214,12.7z M214.1,14.8c0,0,0,0.1,0.1,0.1c0.1-0.4,0.3-0.8,0.4-1.2c0,0-0.1,0-0.1-0.1
		C214.4,14.1,214.3,14.5,214.1,14.8z M214.5,11.9l0.2-0.5c0.3-0.5,0.5-0.9,0.7-1.5c0.2-0.2,0.2-0.5,0.2-0.6c0.1-0.2,0.2-0.3,0.3-0.5
		c0.1-0.3,0.3-0.8,0.5-1.1c0.2-0.4,0.5-0.9,0.8-1.3c0.6-0.9,1-1.8,1.7-2.6c0.1-0.2,0.3-0.5,0.5-0.8V2.8c-0.1,0.1-0.2,0.2-0.3,0.2
		c-0.1,0.3-0.4,0.6-0.6,0.9c-0.2,0.1-0.3,0.4-0.4,0.6c-0.2,0.1-0.2,0.4-0.3,0.6c-0.1,0.1-0.3,0.3-0.4,0.6c-0.1,0.3-0.3,0.6-0.6,0.7
		c0.1,0.1,0.2,0.2,0.2,0.3c-0.3,0.4-0.6,0.9-0.9,1.4c-0.1,0.5-0.5,0.7-0.5,1.2c-0.2,0.3-0.3,0.6-0.6,0.8c-0.2,0.5-0.4,1-0.6,1.5
		C214.3,11.6,214.4,11.7,214.5,11.9z M215.8,25.3c-0.2-0.1-0.7,0.2-0.7,0.3c-0.1,0.1,0,0.3-0.1,0.5C215.4,26.2,215.6,26,215.8,25.3z
		 M224.8,9L224.8,9c-0.1,0.3-0.3,0.7-0.5,1c-0.2,0.5-0.3,0.9-0.5,1.3c-0.2,0.6-0.5,1.2-0.8,1.7c-0.2,0.5-0.5,1.1-0.8,1.6
		c-0.3,0.3-0.5,0.7-0.7,1.1c-0.1,0.3-0.2,0.6-0.4,0.8c-0.2,0.1-0.2,0.5-0.5,0.7c-0.2,0.1-0.4,0.6-0.5,0.9v0.2h0.2v-0.1
		c-0.1-0.1-0.1-0.1-0.2-0.1c0.1-0.2,0.2-0.3,0.3-0.6c0.2-0.1,0.2-0.3,0.3-0.4c0.3-0.5,0.7-0.8,0.9-1.2c0.1-0.3,0.2-0.5,0.4-0.7
		c0.1-0.2,0.2-0.4,0.3-0.6c0-0.1,0.1-0.1,0.1-0.1c0.5-0.1,0.4-0.5,0.6-0.9L223,14c-0.1-0.5,0.2-0.8,0.6-0.9c-0.2-0.7,0.3-1.3,0.5-2
		C224.4,10.5,224.7,9.7,224.8,9z"/>
	<path class="st5" d="M231.6,35c-0.1,0.1-0.2,0.1-0.2,0.1c-0.1,0-0.2,0-0.3,0.1c0.1,0.1,0.2,0.1,0.3,0.2c-0.1,0.1-0.2,0.1-0.3,0.3
		c0,0.1-0.2,0-0.3,0c0.1,0.2-0.1,0.4-0.3,0.6c-0.2,0.2-0.3,0.3-0.5,0.2c-0.1-0.1,0-0.3-0.1-0.4h-0.1c0,0.1-0.1,0.1-0.1,0.1
		c0,0.2-0.1,0.3-0.3,0.3c-0.1,0-0.2,0.1-0.2,0.2c-0.1,0.1-0.1,0.3,0,0.3c0.2,0.2,0.1,0.2-0.1,0.3l-0.6,0.6c0,0-0.1-0.1-0.1-0.1
		l0.3-0.3c0,0,0-0.1,0.1-0.1c-0.6,0.3-1,0.8-0.8,1c0.1-0.1,0.1-0.2,0.2-0.2c0.2,0,0.3-0.1,0.5-0.1c0,0.1,0.1,0.2,0,0.3
		c-0.2,0-0.3,0-0.5,0.1c0.1,0.1,0.1,0.1,0.1,0.2c0.2-0.1,0.3-0.2,0.5-0.3c0-0.3,0.2-0.5,0.4-0.8c0.6-0.5,1-1,1.5-1.6
		c0.1,0,0.1-0.1,0.2-0.1l0.1,0.1c-0.3,0.5-0.7,0.9-1.2,1.4c-0.2,0.3-0.6,0.6-0.9,0.9c-0.1,0.2-0.2,0.3-0.4,0.5
		c-0.1,0.1-0.1,0.2-0.1,0.3c0.2-0.2,0.4-0.3,0.6-0.5c-0.1,0.3-0.5,0.5-0.8,0.8c-0.1,0.1-0.1,0.2-0.2,0.3c0.1,0,0.1,0,0.1,0.1
		c0.2-0.1,0.3-0.3,0.6-0.5c0,0.1,0.1,0.2,0,0.2c-0.2,0.2-0.5,0.5-0.6,0.7c-0.1,0.1-0.2,0.3-0.3,0.4l-0.3,0.3
		c-0.5,0.3-0.9,0.8-1.2,1.2c-0.2,0.3-0.5,0.5-0.9,0.8c-0.2,0.2-0.6,0.3-0.9,0.4c-0.3,0.2-0.8,0.3-1.2,0.6c-0.5,0.1-0.8-0.1-1.2-0.2
		c-0.6-0.1-0.8-0.6-1.2-0.9c-0.1-0.1-0.1-0.2-0.2-0.3c-0.1-0.2-0.2-0.3-0.3-0.5c-0.1-0.2-0.2-0.3-0.3-0.6c-0.1-1,0.1-2.1,0.4-3.1
		c0.1-0.8,0.3-1.5,0.6-2.3c0.2-1,0.5-2,0.8-3.1v-0.5c-0.1-0.2,0-0.4,0.2-0.4c0.2-0.1,0.3-0.2,0.5,0.1c0.2,0.3,0.6,0.5,0.8,0.8
		c0.2,0.2,0.5,0.4,0.6,0.6c0.1,0.2,0.1,0.6,0.1,0.9c0,0.3-0.1,0.6-0.2,0.9c-0.2,0.7-0.4,1.4-0.6,2.1c-0.1,0.2-0.2,0.5-0.3,0.7
		c-0.1,0.1-0.1,0.2-0.1,0.3c0.2,0.5-0.2,1-0.2,1.6c0,0.5-0.2,1-0.2,1.6c0.6-0.2,1.2-0.4,1.6-0.8c0.9-0.8,2-1.6,2.8-2.5
		c0.9-0.8,1.7-1.7,2.6-2.5c0.7-0.6,1.4-1.3,2.2-2C231.9,34.2,231.9,34.5,231.6,35z M223.2,28.5c-0.3-0.4-0.5-0.9-0.3-1.4
		c0.3-0.9,0.9-1.3,1.7-1.7c0.1-0.1,0.3-0.1,0.3-0.1c0.6-0.1,1,0.1,1.1,0.5c0.2,0.6,0.4,1.2,0.2,1.8s-0.8,1-1.3,1.3
		c-0.3,0.1-0.6,0.1-1-0.1C223.7,28.8,223.4,28.6,223.2,28.5z M227.9,38.5c-0.6,0-0.7,0.7-1.2,0.9v0.1c0.3-0.1,0.6-0.2,1-0.3
		c0-0.1-0.1-0.1-0.1-0.1c-0.1,0-0.1,0.1-0.2,0.1l-0.1-0.1C227.5,38.9,227.7,38.7,227.9,38.5z M229.4,38.4c0.1,0,0.1,0,0.1,0.1
		c-0.1,0.2-0.1,0.3-0.2,0.6c-0.1-0.1-0.2-0.1-0.2-0.2L229.4,38.4z"/>
	<path class="st5" d="M231.1,43.6c-0.1-0.1-0.1-0.2-0.1-0.3c-0.4,0.1,0,0.4-0.2,0.5c-0.3-0.1-0.7-0.6-0.6-1.1c0.2-1,0.3-1.9,0.5-2.9
		c0.3-1,0.6-2,0.9-3.1c0.2-0.7,0.2-1.3,0.3-2c0-0.1,0-0.2-0.1-0.2c-0.2-0.2-0.1-0.5-0.1-0.9c0.1-0.4,0.2-0.5,0.5-0.5
		c0.8,0.1,1.3,0.6,1.7,1.2c0.1,0.1,0.1,0.1,0.1,0.1c-0.1,0.5-0.2,0.9-0.2,1.3c-0.1,0.4-0.1,0.7-0.2,1.1c-0.1,0.4-0.3,0.8-0.4,1.2
		c0,0.1,0,0.1-0.1,0.2c0.1-0.1,0.1,0,0.1-0.1c0.6-0.9,1.2-1.7,1.9-2.4c0.3-0.4,0.8-0.8,1.2-1.2c0.3-0.2,0.3-0.2,0.9-0.2
		c0.5,0,0.6,0.1,0.8,0.1c0.2,0,0.3,0.1,0.5,0.3c-0.2,0-0.3,0.1-0.5,0.1V35c0.5,0.1,0.7,0.5,1.2,0.2c0.1,0.3,0,0.6,0.2,0.7
		c0.1,0,0,0.2,0,0.3c0.2,0.5,0.3,1,0.3,1.6c0,0.5-0.1,0.9-0.1,1.4c0,0.1,0.1,0.3,0,0.5c0.1,0.4,0.1,0.9,0.1,1.3l0.2,0.6
		c0,0.1,0.2,0.3,0.2,0.3h0.2c0.1-0.1,0.2-0.1,1.2-0.6c0.3-0.1,0.7-0.3,1-0.5c0.3-0.1,0.7-0.5,1-0.6c0.2-0.1,0.3-0.2,0.3-0.2
		c0.2-0.2,0.6-0.5,0.9-0.6c-0.1-0.1-0.2-0.1-0.1-0.1c-0.3,0.2-0.8,0.5-1.1,0.8c-0.1-0.1-0.1-0.1-0.1-0.1c2.1-1.7,3.8-3.7,5.4-5.7
		c0,0,0.1,0,0,0.1c-0.1,0.1-0.2,0.3-0.3,0.4s-0.3,0.3-0.1,0.5c0,0,0,0.1-0.1,0.1c-0.2,0.1-0.2,0.1-0.4,0.3h0.3
		c-0.2,0.1-0.3,0.4-0.5,0.6l-0.1,0.8h0.1c-0.1,0.3-0.1,0.5-0.2,0.8c-0.1,0.2-0.3,0.5-0.6,0.7l-1,1.2c-0.1,0.1-0.1,0.3-0.3,0.5
		c0,0,0,0.1,0.1,0.2c-0.1,0.1-0.2,0.1-0.2,0.1c-0.2,0.5-0.7,0.8-1.1,1.2c-0.3,0.4-0.9,0.8-1.4,1.2c-0.8,0.6-1.8,0.6-2.7,0.8h-0.1
		c-0.4-0.2-0.6-0.2-0.9-0.5c-0.5-0.4-1-0.9-1.2-1.7c-0.3-1-0.5-2.1-0.4-3.3c0-0.3,0.1-0.7,0.1-1c-0.1-0.1-0.2-0.2-0.3-0.3
		c-0.2,0.6-0.4,0.8-0.8,0.9c-0.1,0.5-0.4,0.8-0.8,0.9c0.1,0.5-0.3,0.5-0.5,0.8c-0.1,0.2-0.4,0.5-0.3,0.5c0.2,0.4-0.3,0.2-0.3,0.4
		c-0.1,0-0.1,0-0.2-0.1c0.1,0.3-0.2,0.5-0.5,0.6c0.1,0.1,0.1,0.1,0.1,0.2c-0.1,0.1-0.1,0.1-0.1,0.1l0.2,0.2c-0.3,0.6-0.7,1.1-1,1.7
		c-0.2,0.3-0.5,0.5-0.8,0.5l-0.2,0.4c-0.1,0.1-0.1,0.1-0.2,0.2c-0.2,0.5-0.5,0.5-0.9,0.4C230.9,44,231,43.8,231.1,43.6z M234.6,36.9
		C234.7,36.9,234.6,37,234.6,36.9c-0.1,0.2-0.1,0.3-0.2,0.5l0.1,0.1c0.2-0.1,0.3-0.2,0.6-0.3c-0.1-0.1-0.1-0.1-0.2-0.2
		c0.1-0.1,0.2-0.1,0.2-0.1c0.1-0.2,0.3-0.5,0.6-0.3c0.1,0,0.1-0.1,0.1-0.1c-0.1-0.3,0.1-0.5,0.3-0.6c0.1,0.1,0.2,0.1,0.2,0.1
		c0.1-0.1,0.2-0.2,0.3-0.3c-0.4-0.1-0.7-0.1-0.9,0.2l-0.7,0.8l-0.9,1.1c0,0,0.1,0,0.1,0.1L234.6,36.9z M236,37.1h0.2
		c0-0.2-0.1-0.3-0.2-0.4c-0.1,0.2-0.5,0.2-0.3,0.6c-0.1,0.1-0.3,0.1-0.3,0.1c0,0.2,0,0.2,0.1,0.3C235.6,37.5,236,37.6,236,37.1z
		 M245,39.1c0.3-0.2,0.5-0.4,0.7-0.7c0.2-0.2,0.3-0.3,0.5-0.5c0,0-0.1-0.1-0.1-0.1c-0.5,0.5-0.9,0.9-1.3,1.3
		c0.1,0.1,0.1,0.1,0.1,0.1C244.9,39.3,245,39.2,245,39.1z"/>
	<path class="st5" d="M263.2,46.6l-4.7,1.3c-0.1,0.1-0.2,0.1-0.3,0.1c-0.4-0.1-0.5,0.1-0.8,0.5c0,0.1-0.1,0.2-0.1,0.3
		c0.1,0.2,0.2,0.4,0.2,0.7c-0.3-0.1-0.5-0.1-0.7-0.1c-0.1,0.1-0.1,0.1-0.1,0.1c0.1,0.1,0.2,0.1,0.3,0.1c-0.1,0.3,0.3,0.5-0.1,0.9
		c0.2,0.4,0.1,0.7-0.2,0.8c0.1,0.5,0,0.6-0.4,0.8c0.1,0.1,0.2,0.2,0.2,0.2c-0.1,0.2-0.1,0.3-0.2,0.4h0.2c0.1,0,0.1,0,0.1,0.1
		c-0.1,0-0.2,0.1-0.3,0.2c-0.1,0.1-0.2,0.2-0.3,0.3c0.1,0.2,0.3,0.3,0.4,0.5c-0.2,0-0.4,0.1-0.6,0v0.1l0.5,0.1
		c0.1,0.4,0.1,0.5-0.6,0.4c-0.1,0.2-0.1,0.3-0.1,0.7c0.2-0.3,0.4-0.4,0.7-0.6c0.1,0.3,0.1,0.5-0.2,0.6c-0.7,0.1-0.7,0.5-0.5,0.9
		l0.2-0.3c0.1,0.1,0.3,0.1,0.3,0.2c-0.2,0.5-0.3,1-0.4,1.4c-0.1,0.3-0.1,0.7-0.2,1c-0.2,0.3-0.4,0-0.5-0.1c-0.1,0.1-0.1,0.2-0.1,0.2
		c-0.2,0.6-0.1,0.6,0.2,0.5c-0.1-0.1-0.1-0.2-0.2-0.5c0.2,0.1,0.4,0.1,0.4,0.2c0.1,0.2,0.1,0.4,0,0.6c-0.1,0.1-0.3,0.2-0.3,0.5
		c-0.1,0.1-0.3,0.1-0.6,0.2c-0.1,0.1-0.1,0.1-0.1,0.2c0.2,0,0.3-0.1,0.5-0.1c0,0.2,0,0.3-0.1,0.5l-0.3-0.3c-0.1,0.2-0.2,0.2-0.2,0.3
		l0.3,0.1c0.1,0.1,0.1,0.3,0,0.5c-0.1-0.1-0.2-0.2-0.3-0.4c-0.1,0.4-0.1,0.6-0.2,0.9c0.1,0.1,0.3,0.2,0.4,0.3
		c0.1,0.2-0.3,0.8-0.6,0.9c0.1,0.1,0.1,0.2,0.2,0.2l-0.4,0.3c0.1,0.2,0.1,0.4,0.1,0.6l-0.6-0.1v0.1c0.2,0,0.3,0,0.6,0.1
		c0,0.1,0.1,0.1,0.1,0.1c-0.2,0.1-0.3,0.1-0.5,0.2c0.3,0.4-0.1,0.7-0.2,1.2c-0.2,0.3-0.6,0.5-0.7,0.8c-0.2,0.1,0.1,0.8-0.5,0.4
		c0.1,0.2,0.1,0.3,0.3,0.5c0.1,0.3-0.3,0.2-0.6,0.3c0.1,0.1,0.2,0.1,0.3,0.2c-0.2,0.1-0.3,0.2-0.4,0.2c0.2,0.6-0.6,0.5-0.8,0.9
		L251,69c-0.2,0.3-0.4,0.6-0.6,0.9c-0.1,0-0.1-0.1-0.1-0.1c-0.2,0.2-0.6,0.5-0.8,0.6c0,0.1,0,0.1,0.1,0.1h0.2c0,0.1,0.1,0.1,0.1,0.1
		c-0.5,0.6-1.2,1.2-1.7,1.7c0,0.5-0.2,0.6-0.5,0.9c-0.4,0.4-0.9,0.7-1.2,1.1c-0.1,0.1-0.1,0.1-0.1,0.1c-0.6,0.2-0.9,0.8-1.7,0.8
		c-0.2,0.1-0.3,0.4-0.5,0.5c-0.3,0.2-0.7,0.4-1,0.4c-0.7,0.2-1.3,0.2-2.1,0.2c-0.2,0.1-0.5,0.1-0.6,0c-1-0.3-1.8-0.6-2.6-1
		c-0.7-0.3-1.3-0.9-1.6-1.6c-0.1-0.2-0.3-0.3-0.5-0.6c-0.2-0.6-0.4-1.2-0.8-1.9c-0.1-0.1-0.1-0.3-0.2-0.5c0.1-0.4,0.1-0.7,0.1-1
		c0.1-1,0.2-2,0.5-2.9c0.2-0.8,0.3-1.6,0.6-2.4c0.1-0.1,0.1-0.2,0.2-0.2c0.1,0.1,0.1,0.1,0.2,0.3c0.2-0.6,0.4-1.2,0.6-1.6l-0.2-0.1
		c-0.1,0.1-0.2,0.2-0.2,0.2c-0.1,0-0.1,0-0.1-0.1c0.2-0.2,0.3-0.5,0.4-0.8c0.5-1,1.1-2,1.7-2.9c0.5-0.9,1.3-1.8,1.9-2.7
		c0.1-0.1,0.2-0.2,0.3-0.2l0.6-0.6c0.2-0.2,0.4-0.5,0.6-0.7c0.1,0.1,0.2,0.1,0.3,0.1l-0.7,0.8c-0.3,0.2-0.5,0.3-0.8,0.5
		c0,0.1-0.1,0.2-0.1,0.4c0.2-0.1,0.3-0.2,0.4-0.2c0.1-0.1,0.2-0.2,0.2-0.3c0.2-0.2,0.2-0.3,0.3-0.5c0.2-0.1,0.4-0.1,0.5-0.1
		c0.6-0.6,1-1.1,1.7-1.7c0.3-0.4,0.6-0.7,1-1c0.1,0,0.3,0,0.4-0.1c0.1-0.1,0.2-0.2,0.2-0.4c-1.3,0.5-2.1,1.7-3.2,2.4
		c0-0.1-0.1-0.1-0.1-0.1c0.1-0.1,0.3-0.4,0.7-0.6c0.3-0.3,0.6-0.8,1.2-1.1c0.9-0.7,1.8-1.3,2.8-2c0.8-0.6,1.7-1.2,2.7-1.6l2.2-1.2
		c0.9-0.3,1.8-0.6,2.5-1.1l0.2-0.1c0.7-0.2,0.9-0.5,0.9-1.2c-0.1-0.1-0.1-0.2-0.1-0.3c0.1-0.3,0.1-0.6,0.2-0.9
		c0.1-0.1,0.1-0.1,0.1-0.2c0.5,0.6,0.1,1.3,0.2,2c0.1-0.1,0.2-0.2,0.2-0.3l0.3-2.3c0-0.2,0.1-0.3,0.1-0.5c0.1-0.3,0.2-0.8,0.3-1.2
		c0.1-0.6,0.1-1.1,0.3-1.8c0-0.1,0.1-0.3,0.1-0.5c0.1-0.5,0.1-1.2,0.2-1.7v-0.2c-0.1,0.1-0.1,0.2-0.2,0.2c-0.3,1.9-0.7,3.8-1.1,5.7
		c-0.1,0.2-0.1,0.3-0.1,0.5c-0.1,0-0.2,0.1-0.3,0.1v0.1c0-0.2,0-0.3-0.1-0.5c0,0,0.1-0.1,0.2-0.2c-0.4-0.6,0.1-1,0.1-1.4h0.4v-0.1
		h-0.3c0.1-1.2,0.4-2.4,0.6-3.5c-0.1,0.1-0.1,0.1-0.1,0.1s-0.1,0.1-0.1,0.1c-0.1-0.1-0.3-0.2-0.4-0.2c-0.1,0.1-0.2,0.3-0.3,0.3
		c-0.2,0.2-0.2,0.3-0.5,0.5c0,0-0.6,0.9-1.6,1.6v0.1c-0.9,0.3-1.3,0.6-2,0.9c-0.3,0.1-0.6,0.2-1,0.2c-0.4,0.1-0.9,0.1-1.3,0
		l-1.4-0.5c-0.2-0.1-0.3-0.3-0.4-0.5c0-0.2-0.2-0.4-0.3-0.5c-0.5-0.3-0.5-0.9-0.5-1.5c-0.3-0.9,0-1.8,0.3-2.7c0.2-0.3,0.4-0.8,0.5-1
		c0.1-0.3,0.3-0.7,0.6-1.2c0.1,0,0.1,0,0.1-0.1c0.6-0.5,0.8-1.6,1.5-2.1c0.3-0.2,1.3-1.1,1.6-1.2c0.6-0.2,1.3-0.4,2-0.2
		c0.3,0.1,0.8,0,1,0.1c0.3,0.3,1.1,0.4,1.4,0.6c0.6,0.5,0.9,0.8,1.4,1.3l0.4,0.8c0.3-0.3,0.8-0.9,1-1.1l0.7,0.2
		c0.6,0.1,0.8,0.1,1.4,0.3l-0.2,1.1c-0.2,0.4-0.3,0.9-0.5,1.3c-0.1,0.3-0.2,0.6-0.2,0.9c-0.5,1.8-0.6,3.6-1,5.4
		c-0.2,0.9,0,1.7-0.3,2.5c-0.1,0.5,0,1-0.2,1.5c0,0,0.1,0.3,0.1,0.3c0.8-0.1,1.4-0.2,2.2-0.3c0.7-0.1,1.4-0.1,2,0
		C262.8,45.8,263.2,46.3,263.2,46.6z M236.7,63.1c0,0.4-0.2,0.8-0.5,1.1c0.2-0.3,0.2-0.8,0.2-1.1H236.7z M255.7,49.1
		c-0.1,0-0.1,0-0.1-0.1c-0.1,0.2-0.1,0.3-0.2,0.3c-0.1-0.1-0.2-0.1-0.2-0.1c-0.1,0.6-0.2,1.2-0.3,1.8c-0.1,0.2-0.1,0.6-0.5,0.6
		c0.2-0.8,0.3-1.6,0.5-2.4c-0.5,0.1-0.8,0.4-1.2,0.5c-1.4,0.6-2.8,1.1-4,2c-0.8,0.5-1.7,1-2.6,1.7c-0.6,0.5-1.4,0.8-2.1,1.4
		c-0.2,0.3-0.7,0.6-0.9,0.9c-0.3,0.3-0.6,0.4-0.9,0.6c-0.3,0.3-0.6,0.6-0.9,1.1c-0.4,0.3-0.8,0.8-1.2,1.1c-0.1,0.2-0.3,0.6-0.8,0.5
		c0,0-0.2,0.1-0.2,0.2l-0.3,0.4c0.6,0.5-0.1,0.6,0,1c-0.5-0.1-0.7,0-0.6,0.4c0.1-0.1,0.2-0.1,0.2-0.2c-0.3,0.7-0.6,1.4-0.9,2.1h-0.1
		c0.1-0.2,0.2-0.3,0.2-0.5c-0.1,0-0.1-0.1-0.2-0.1c-0.1,0.2-0.2,0.3-0.3,0.5c-0.1,0.2-0.1,0.6-0.2,0.9c-0.2,0.2-0.3,0.5-0.3,0.8
		c-0.2,0.5-0.2,1-0.3,1.4c-0.2,0.8-0.5,1.6-0.5,2.4c-0.1,1.1,0.1,2.1,0.1,3.1c0.1,1.2,0.8,1.9,1.7,2.4c0.3,0.1,0.7,0.2,0.9,0.3
		c0.3,0,0.7-0.1,1-0.1v0.2c-0.5-0.1-1,0-1.7,0.1c0.1,0.1,0.2,0.1,0.2,0.1c0.8,0.3,1.7,0.2,2.4-0.1c0.4-0.1,0.9-0.4,1.2-0.5
		c1-0.3,1.7-0.9,2.5-1.6c0.7-0.6,1.4-1.4,2-2.1c0.9-1.2,1.5-2.2,2.3-3.3c0.8-1.2,1.3-2.4,1.9-3.6c0.5-0.9,0.8-1.7,1-2.7
		c0.5-1.4,1-2.7,1.3-4c0.3-1,0.5-2.1,0.7-3.2c0.1-0.6,0.3-1.2,0.3-1.9l0.5,0.6c-0.1,0.1-0.2,0.1-0.2,0.2c-0.1,0.3-0.2,0.6-0.3,0.9
		l-0.3,2.3c0,0.1-0.1,0.3-0.3,0.5c0,0.3-0.1,0.7-0.2,0.9c-0.2,0.8-0.4,1.7-0.7,2.5c-0.2,0.9-0.5,1.6-0.8,2.5
		c-0.1,0.3-0.2,0.5-0.5,0.8c0.1,0.3-0.1,0.8-0.3,1c-0.1,0.1-0.2,0.1-0.2,0.1c0.2,0.3-0.1,0.6-0.3,0.7c-0.2,0.1-0.3,0.3-0.5,0.5h0.5
		c-0.3,0.5-0.4,1.3-0.9,1.6h0.1c-0.2,0.3-0.2,0.8-0.7,0.8c-0.1,0-0.1,0.1-0.2,0.3c0.2-0.1,0.3-0.1,0.5-0.2c-0.4,0.5-0.6,0.8-0.8,1.2
		c0,0.1-0.1,0.1-0.2,0.2c-0.1,0.1-0.2,0-0.3,0.1V69l0.3,0.1c-0.2,0.2-0.4,0.5-0.5,0.8l-0.6,0.8c-0.1,0-0.1-0.1-0.2-0.1l0.9-1.3
		c-0.4,0.1-1.6,1.8-1.7,2c0.2-0.2,0.5-0.3,0.7-0.6l0.1,0.1c-0.3,0.3-0.3,0.9-1,0.7c-0.1,0-0.2,0.1-0.2,0.1c-0.8,0.6-1.4,1.5-2.3,2.1
		l-1,0.7c-0.2,0.1-0.2,0.2-0.3,0.2c0.1,0.1,0.2,0.1,0.3,0.1c-0.1,0.2-0.3,0.5-0.4,0.6c0,0.1,0.1,0.2,0.1,0.2
		c0.3-0.2,0.6-0.4,0.9-0.6c0.6-0.3,1.2-0.9,2-0.9c-0.2-0.1-0.3-0.2-0.5-0.2c0.2-0.1,0.4-0.1,0.6-0.1c0,0,0-0.1,0.1-0.1
		c0.3-0.3,0.8-0.5,1-0.9c0.2-0.3,0.6-0.6,0.6-0.8c-0.2-0.4,0.2-0.2,0.3-0.3c0.1-0.3,0.4-0.5,0.4-0.6c0.1-0.4,0.2-0.5,0.3-0.7
		c0.3-0.3,0.4-0.8,0.8-1c0.5-0.4,0.3-1.1,0.9-1.5c0.1,0,0-0.1,0.1-0.1c0.2-0.4,0.3-0.9,0.6-1.3c0.3-0.2,0.4-0.5,0.6-0.8
		c0.1-0.5,0.1-0.8,0.3-1.2l0.5-1c0.2-0.6,0.4-1.2,0.5-1.9c0.1-0.3,0.3-0.6,0.4-0.9c0.2-0.2,0.1-0.5,0.3-0.8c0.1-0.2,0.1-0.5,0.1-0.7
		c0.1-0.4,0.1-0.8,0.2-1.1c0.1-0.1,0-0.2,0-0.3c0.1-0.2,0.2-0.4,0.3-0.7c0.3-0.1-0.3-0.8,0.4-1l-0.3-0.1c0.1-0.2,0.2-0.5,0.2-0.6
		c0-0.1-0.1-0.4,0.1-0.5c0.3-0.8,0.3-1.4,0.5-2.3c0-0.2-0.1-0.3-0.2-0.3c0.1,0,0.2-0.1,0.3-0.1v-0.5c-0.1,0-0.1,0-0.1-0.1
		c-0.1,0-0.1-0.1-0.1-0.1c0.1-0.1,0.1-0.1,0.2-0.1c0.2-0.2,0.5-1.4,0.3-1.5l-0.3,0.2c0,0-0.1,0-0.1-0.1c0.1-0.1,0.2-0.2,0.2-0.3
		c0.1,0,0.1,0.1,0.2,0.1C255.6,49.6,255.7,49.4,255.7,49.1z M237.1,63.7c0.1,0,0.2,0.1,0.4,0.1V63l-0.1,0.1
		C237.3,63.2,237.2,63.4,237.1,63.7z M237.8,61.1l0.2,0.1c0.1-0.2,0.3-0.2,0.5-0.1c-0.2,0.2-0.4,0.4-0.6,0.6
		c0.5,0.1,0.8-0.2,0.6-0.6c0.1-0.1,0.3-0.1,0.3-0.2c0.2-0.3,0.3-0.6,0.5-0.8c0.2-0.4,0.5-0.6,0.8-1c0,0,0-0.1-0.1-0.2
		c0.1-0.1,0.3-0.2,0.5-0.2l-0.1-0.1c-0.1,0-0.1,0-0.3-0.1c0.3-0.2,0.5-0.4,0.8-0.7c0.2-0.2,0.3-0.3,0.3-0.5c0.2-0.3,0.3-0.5,0.9-0.5
		c-0.2,0.2-0.3,0.3-0.3,0.5c-0.3,0.1-0.4,0.3-0.6,0.5l0.1,0.2c0.3-0.3,0.5-0.5,0.9-0.7c0.5-0.6,1-1,1.7-1.6l0.2-0.5
		c0.3-0.1,1.2-0.9,1.3-1.3h0.5V54c-0.1-0.1-0.3-0.1-0.5-0.2l2-1.4c0.1,0.1,0.1,0.1,0.1,0.1c0.1-0.1,0.2-0.2,0.3-0.3
		c0.1-0.1,0.3-0.2,0.5-0.2c0.6-0.2,1.2-0.6,2-1c0.2-0.1,0.3-0.3,0.5-0.4c0.8-0.3,1.3-0.6,2-0.8c0.8-0.3,1.4-1,2.3-1.2
		c0.2-0.1,0.3-0.4,0.1-0.6V48c0.1-0.2,0.2-0.3,0.3-0.6c-0.2,0-0.4-0.1-0.5,0.1c-0.3,0.3-0.6,0.3-1,0.3c-0.1-0.1-0.2,0.2-0.3,0.2
		l-0.1,0.1c-0.2,0.1-0.3,0.1-0.5,0.1c-0.4,0.1-0.7,0.1-0.6,0.5c-0.2,0.1-0.4,0.2-0.6,0.2c-0.4,0-0.8,0.5-1.2,0.5v0.2
		c0.2,0,0.5,0.1,0.6,0.1c0.5-0.2,1-0.5,1.5-0.8c0.1,0-0.1-0.1-0.1-0.3l0.3,0.3c0.6-0.6,1.3-0.8,2-0.8c-0.5,0.2-1,0.4-1.5,0.7
		c-0.5,0.3-1,0.6-1.7,0.8c-0.2,0.1-0.4,0.2-0.7,0.2c-0.3,0.1-0.5,0.1-0.7,0.2c-0.1,0.2-0.4,0.3-0.7,0.5c-0.2,0.1-0.3,0.2-0.5,0.4
		c-0.5,0.2-1.2,0.5-1.7,0.8c0.1,0.1,0.1,0.1,0.2,0.2c-0.6,0.2-1.1,0.4-1.3,1c-0.2,0-0.5,0.1-0.5,0.2v0.2c-0.6-0.1-0.9,0.1-0.8,0.5
		c-0.2,0.1-0.7,0.1-0.7,0.2c-0.1,0.3-0.5,0.5-0.8,0.8c-0.2,0.2-0.3,0.5-0.5,0.7c0.3-0.2,0.5-0.2,0.6,0.1c-0.3,0.1-0.5,0.3-0.7,0.4
		c-0.1-0.3-0.2-0.3-0.4-0.2c-0.1,0.1-0.1,0.2-0.2,0.3c0,0.1,0.1,0.1,0.1,0.1c0.2-0.1,0.3-0.2,0.4-0.2c0,0.1,0.1,0.2,0,0.2
		c-0.1,0.2-0.3,0.3-0.6,0.5c0,0.1,0.1,0.2,0.1,0.3c-0.3,0.1-0.5,0-0.8,0.1c0.2-0.3,0.4-0.4,0.6-0.6c-0.2,0.1-0.3,0.1-0.6,0.1
		c0.1,0.1,0.1,0.1,0.1,0.1c-0.3,0.3-0.6,0.6-0.8,1c-0.3,0.2-0.6,0.3-0.8,0c-0.5,0.5-0.8,1-1.2,1.6h0.2c0.1,0,0.2-0.1,0.3-0.1
		c-0.1,0.1-0.1,0.2-0.1,0.3c-0.1,0.2-0.3,0.4-0.5,0.6c0.1-0.2,0.1-0.3-0.1-0.5c-0.1,0.2-0.2,0.3-0.5,0.5h0.5c0.1,0,0.1,0.1,0.2,0.1
		c-0.2,0.3-0.4,0.8-1.1,0.9C238,60.8,238,61,237.8,61.1z M242.1,74.9c-0.4,0.1-0.8,0.1-1.1,0.2c-0.1,0.1,0.1,0.1,0.1,0.2
		C241.3,75.4,242,75.2,242.1,74.9z M245.6,72.8c0.1,0.1,0.1,0.1,0.1,0.1c-0.5,0.4-0.9,0.9-1.3,1.2c-0.1-0.1-0.1-0.1-0.1-0.1
		C244.5,73.5,245.1,73.2,245.6,72.8z M245.7,52.2c0.3,0.2,0.5,0.1,0.8,0.1c0.1-0.1,0.3-0.2,0.3-0.4c0.4-0.2,0.7-0.5,1.2-0.8
		c0.1-0.1,0.2-0.3,0.3-0.3c0.5-0.1,0.9-0.3,1.3-0.8h-0.5c0.1,0.1,0,0.2,0.1,0.3c-0.5-0.3-0.8,0-1,0.4c-0.1,0-0.2,0-0.2,0.1
		C247,51.4,246.4,51.8,245.7,52.2z M246.6,71.7l0.2,0.2c-0.3,0.2-0.6,0.5-1,0.9c0.1-0.1-0.1-0.2-0.1-0.2L246.6,71.7z M255.6,36.3
		c0.4,0.1,0.5-0.3,0.6-0.5c-0.2-0.1-0.3-0.3-0.5-0.5c-0.2-0.2-0.3-0.5-0.2-0.9c0.1-0.4-0.2-1.4-0.4-1.5c-0.1-0.2-0.3-0.3-0.5-0.3
		c-0.9,0.1-1.7,0.3-2.4,1c-0.5,0.4-0.9,0.7-1.3,1.1c-0.1,0.1-0.3,0.3-0.4,0.5l0.1,0.3c-0.3,0.4-0.7,0.8-1,1.2
		c-0.3,0.7-0.6,1.4-0.9,2c-0.2,0.6-0.3,1-0.1,1.5c0.2,0,0.4-0.1,0.6-0.1c0.9-0.1,1.6-0.4,2.4-0.7c0.3-0.1,0.6-0.6,1.3-0.3
		c-0.2-0.5,0-0.6,0.3-0.6h0.1c0.2-0.4,0.6-0.7,1-0.9c0.1,0,0.2-0.2,0.3-0.3c0.2-0.3,0.9-0.4,0.9-0.9
		C255.5,36.4,255.5,36.3,255.6,36.3z M249.3,49.9c0.2,0,0.5,0.2,0.6,0.1c0.2-0.1,0.4-0.2,0.5-0.3C250.2,49.7,249.7,49.6,249.3,49.9z
		 M255.5,57.5c0-0.1,0-0.2-0.1-0.2c-0.1,0-0.2-0.1-0.2-0.1c0,0.1-0.1,0.2-0.1,0.3c-0.1,0.2-0.1,0.3-0.1,0.5c0.1,0.1,0.2,0.1,0.2,0.1
		C255.3,57.9,255.5,57.7,255.5,57.5z M255.6,56.7c0.1-0.2,0.1-0.4,0.2-0.6C255.4,56.2,255.3,56.3,255.6,56.7z M256.9,37.2
		c-0.4,0.1-0.5,0.3-0.6,0.6h-0.5v0.1V38l-0.1-0.1V38c-0.1,0-0.1,0-0.1,0.1c-0.1,0-0.1,0.1-0.1,0.1c0,0.2-0.1,0.3-0.1,0.5
		c0.3-0.1,0.5-0.4,0.6-0.4c0.3,0,0.4-0.2,0.5-0.4c0-0.1,0.1-0.1,0.1-0.1C256.8,37.5,256.9,37.4,256.9,37.2z"/>
</g>
</svg>
