<svg version="1.1" id="Layer_1" xmlns="http://www.w3.org/2000/svg" x="0" y="0" viewBox="0 0 266 77" xml:space="preserve"><style>.st5{fill:#34384c}</style><path class="st5" d="M65.9 57.1h2.8l.6-3.1h1.4l-.6 3.1h1.5v1.3h-1.8l-.6 3.1h2.4v1.3H69l-.6 3.1H67l.6-3.1h-2.8l-.6 3.1h-1.4l.6-3.1h-1.5v-1.3h1.8l.6-3.1H62v-1.3h2.6L65 54h1.4l-.5 3.1zm-.9 4.4h2.8l.6-3.1h-2.8l-.6 3.1zM81.1 65.9c-.3-.8-.7-1.8-1-2.8-.4-1.1-.7-2.2-1-3.3-.3 1.1-.6 2.2-1 3.3-.4 1.1-.7 2-1 2.8h-1.4c-.5-1.2-1-2.5-1.5-4s-1-3.1-1.4-4.9h1.7c.1.5.3 1.1.4 1.8s.3 1.3.5 1.9l.6 1.8c.2.6.4 1.1.6 1.5.2-.5.4-1.1.6-1.7.2-.6.4-1.2.5-1.8.2-.6.3-1.2.5-1.8.2-.6.3-1.1.4-1.7h1.3c.1.5.2 1.1.4 1.7.1.6.3 1.2.5 1.8.2.6.4 1.2.5 1.8.2.6.4 1.2.6 1.7.2-.4.4-.9.5-1.5l.6-1.8c.2-.6.4-1.3.5-1.9.2-.6.3-1.2.4-1.8h1.7c-.4 1.8-.9 3.4-1.4 4.9-.5 1.5-1 2.9-1.5 4h-1.6zM86.7 61.4c0-.8.1-1.5.3-2.1.2-.6.5-1.1.9-1.5.4-.4.8-.7 1.3-.9.5-.2 1-.3 1.5-.3 1.2 0 2.1.4 2.8 1.1.6.8 1 1.9 1 3.4v.6h-6.1c.1.9.3 1.6.8 2.1s1.2.7 2.2.7c.6 0 1 0 1.4-.1.4-.1.7-.2.9-.3l.2 1.3c-.2.1-.5.2-1 .3-.5.1-1 .2-1.7.2-.8 0-1.5-.1-2-.4-.6-.2-1-.6-1.4-1-.4-.4-.6-.9-.8-1.5-.2-.3-.3-.9-.3-1.6zm6.1-.8c0-.7-.2-1.3-.5-1.8-.4-.5-.9-.7-1.5-.7-.4 0-.7.1-1 .2-.3.1-.5.3-.7.6-.2.2-.3.5-.5.8-.1.3-.2.6-.2.9h4.4zM95.4 67.7h8.6v1.4h-8.6v-1.4zM111.1 52.8l1.6-.3v13.1c-.4.1-.8.2-1.4.3-.6.1-1.2.2-2 .2-.7 0-1.3-.1-1.9-.3-.6-.2-1-.5-1.4-.9-.4-.4-.7-.9-.9-1.5-.2-.6-.3-1.2-.3-2 0-.7.1-1.3.3-1.9.2-.6.4-1.1.8-1.5.3-.4.8-.7 1.3-1 .5-.2 1.1-.3 1.7-.3.5 0 1 .1 1.4.2.4.1.7.3.9.4v-4.5zm0 6c-.2-.2-.5-.3-.8-.5-.4-.1-.8-.2-1.2-.2-.5 0-.9.1-1.2.2-.3.2-.6.4-.8.7-.2.3-.4.6-.4 1-.1.4-.1.8-.1 1.3 0 1 .3 1.8.8 2.4s1.2.9 2.1.9c.4 0 .8 0 1.1-.1.3 0 .5-.1.7-.1v-5.6zM114.9 61.4c0-.8.1-1.5.3-2.1.2-.6.5-1.1.9-1.5.4-.4.8-.7 1.3-.9.5-.2 1-.3 1.5-.3 1.2 0 2.1.4 2.8 1.1.6.8 1 1.9 1 3.4v.6h-6.1c.1.9.3 1.6.8 2.1s1.2.7 2.2.7c.6 0 1 0 1.4-.1.4-.1.7-.2.9-.3l.2 1.3c-.2.1-.5.2-1 .3-.5.1-1 .2-1.7.2-.8 0-1.5-.1-2-.4-.6-.2-1-.6-1.4-1-.4-.4-.6-.9-.8-1.5-.2-.3-.3-.9-.3-1.6zm6.2-.8c0-.7-.2-1.3-.5-1.8-.4-.5-.9-.7-1.5-.7-.4 0-.7.1-1 .2-.3.1-.5.3-.7.6-.2.2-.3.5-.5.8-.1.3-.2.6-.2.9h4.4zM128.9 66.1c-.7 0-1.4-.1-1.9-.3-.5-.2-1-.5-1.4-1-.4-.4-.7-.9-.8-1.5-.2-.6-.3-1.2-.3-1.9s.1-1.3.3-1.9c.2-.6.5-1.1.9-1.5.4-.4.8-.7 1.4-1s1.1-.4 1.8-.4c.4 0 .8 0 1.2.1l1.2.3-.4 1.4c-.2-.1-.5-.2-.8-.3s-.7-.1-1-.1c-.9 0-1.6.3-2.1.8-.5.6-.7 1.4-.7 2.5 0 .5.1.9.2 1.3s.3.7.5 1c.2.3.5.5.9.7.4.2.8.2 1.3.2.4 0 .8 0 1.2-.1.3-.1.6-.2.8-.3l.2 1.3c-.1.1-.2.1-.4.2s-.4.1-.6.1c-.2 0-.5.1-.7.1-.3.3-.6.3-.8.3zM133.8 55.3c-.3 0-.5-.1-.7-.3-.2-.2-.3-.4-.3-.8 0-.3.1-.6.3-.8.2-.2.4-.3.7-.3.3 0 .5.1.7.3.2.2.3.4.3.8 0 .3-.1.6-.3.8s-.4.3-.7.3zm.8 10.6H133V57h1.6v8.9zM143.2 52.8l1.6-.3v13.1c-.4.1-.8.2-1.4.3-.6.1-1.2.2-2 .2-.7 0-1.3-.1-1.9-.3-.6-.2-1-.5-1.4-.9-.4-.4-.7-.9-.9-1.5-.2-.6-.3-1.2-.3-2 0-.7.1-1.3.3-1.9.2-.6.4-1.1.8-1.5.3-.4.8-.7 1.3-1 .5-.2 1.1-.3 1.7-.3.5 0 1 .1 1.4.2.4.1.7.3.9.4v-4.5zm0 6c-.2-.2-.5-.3-.8-.5-.4-.1-.8-.2-1.2-.2-.5 0-.9.1-1.2.2-.3.2-.6.4-.8.7-.2.3-.4.6-.4 1-.1.4-.1.8-.1 1.3 0 1 .3 1.8.8 2.4s1.2.9 2.1.9c.4 0 .8 0 1.1-.1.3 0 .5-.1.7-.1v-5.6zM147 61.4c0-.8.1-1.5.3-2.1.2-.6.5-1.1.9-1.5.4-.4.8-.7 1.3-.9.5-.2 1-.3 1.5-.3 1.2 0 2.1.4 2.8 1.1.6.8 1 1.9 1 3.4v.6h-6.1c.1.9.3 1.6.8 2.1s1.2.7 2.2.7c.6 0 1 0 1.4-.1.4-.1.7-.2.9-.3l.2 1.3c-.2.1-.5.2-1 .3-.5.1-1 .2-1.7.2-.8 0-1.5-.1-2-.4-.6-.2-1-.6-1.4-1-.4-.4-.6-.9-.8-1.5-.2-.3-.3-.9-.3-1.6zm6.1-.8c0-.7-.2-1.3-.5-1.8-.4-.5-.9-.7-1.5-.7-.4 0-.7.1-1 .2-.3.1-.5.3-.7.6-.2.2-.3.5-.5.8-.1.3-.2.6-.2.9h4.4zM162.9 52.8l1.6-.3v13.1c-.4.1-.8.2-1.4.3-.6.1-1.2.2-2 .2-.7 0-1.3-.1-1.9-.3-.6-.2-1-.5-1.4-.9-.4-.4-.7-.9-.9-1.5-.2-.6-.3-1.2-.3-2 0-.7.1-1.3.3-1.9.2-.6.4-1.1.8-1.5.3-.4.8-.7 1.3-1 .5-.2 1.1-.3 1.7-.3.5 0 1 .1 1.4.2.4.1.7.3.9.4v-4.5zm0 6c-.2-.2-.5-.3-.8-.5-.4-.1-.8-.2-1.2-.2-.5 0-.9.1-1.2.2-.3.2-.6.4-.8.7-.2.3-.4.6-.4 1-.1.4-.1.8-.1 1.3 0 1 .3 1.8.8 2.4s1.2.9 2.1.9c.4 0 .8 0 1.1-.1.3 0 .5-.1.7-.1v-5.6zM165.8 67.7h8.6v1.4h-8.6v-1.4zM179.2 52.5c.5 0 .9 0 1.2.1.3.1.6.1.7.2l-.3 1.4c-.1-.1-.3-.1-.6-.2s-.6-.1-.9-.1c-.7 0-1.3.2-1.6.6-.3.4-.4 1-.4 1.6v.8h3.4v1.3h-3.4v7.6h-1.6V56c0-1.1.3-2 .8-2.7s1.5-.8 2.7-.8zM190.2 61.4c0 .7-.1 1.4-.3 1.9-.2.6-.5 1.1-.9 1.5-.4.4-.8.7-1.3 1-.5.2-1.1.3-1.7.3s-1.2-.1-1.7-.3c-.5-.2-1-.5-1.3-1-.4-.4-.7-.9-.9-1.5-.2-.6-.3-1.2-.3-1.9s.1-1.3.3-1.9c.2-.6.5-1.1.9-1.5.4-.4.8-.7 1.3-1s1.1-.3 1.7-.3 1.2.1 1.7.3c.5.2 1 .5 1.3 1 .4.4.7.9.9 1.5.2.6.3 1.2.3 1.9zm-1.6 0c0-1-.2-1.8-.7-2.4s-1.1-.9-1.8-.9-1.4.3-1.8.9-.7 1.4-.7 2.4.2 1.8.7 2.4c.5.6 1.1.9 1.8.9s1.4-.3 1.8-.9c.5-.6.7-1.4.7-2.4zM195.8 56.8h.5c.2 0 .4 0 .5.1s.3.1.5.1c.1 0 .2.1.3.1l-.3 1.4c-.1 0-.3-.1-.6-.2s-.7-.1-1.1-.1c-.3 0-.6 0-.9.1-.3.1-.5.1-.6.1v7.5h-1.6v-8.6c.4-.1.8-.3 1.4-.4.6-.1 1.2-.1 1.9-.1zM198.6 61.4c0-.8.1-1.5.3-2.1.2-.6.5-1.1.9-1.5.4-.4.8-.7 1.3-.9.5-.2 1-.3 1.5-.3 1.2 0 2.1.4 2.8 1.1.6.8 1 1.9 1 3.4v.6h-6.1c.1.9.3 1.6.8 2.1s1.2.7 2.2.7c.6 0 1 0 1.4-.1.4-.1.7-.2.9-.3l.2 1.3c-.2.1-.5.2-1 .3-.5.1-1 .2-1.7.2-.8 0-1.5-.1-2-.4-.6-.2-1-.6-1.4-1-.4-.4-.6-.9-.8-1.5-.2-.3-.3-.9-.3-1.6zm6.2-.8c0-.7-.2-1.3-.5-1.8-.4-.5-.9-.7-1.5-.7-.4 0-.7.1-1 .2-.3.1-.5.3-.7.6-.2.2-.3.5-.5.8-.1.3-.2.6-.2.9h4.4zM216.1 65.9c-.3-.8-.7-1.8-1-2.8-.4-1.1-.7-2.2-1-3.3-.3 1.1-.6 2.2-1 3.3-.4 1.1-.7 2-1 2.8h-1.4c-.5-1.2-1-2.5-1.5-4s-1-3.1-1.4-4.9h1.7c.1.5.3 1.1.4 1.8s.3 1.3.5 1.9l.6 1.8c.2.6.4 1.1.6 1.5.2-.5.4-1.1.6-1.7.2-.6.4-1.2.5-1.8.2-.6.3-1.2.5-1.8.2-.6.3-1.1.4-1.7h1.3c.1.5.2 1.1.4 1.7.1.6.3 1.2.5 1.8.2.6.4 1.2.5 1.8.2.6.4 1.2.6 1.7.2-.4.4-.9.5-1.5l.6-1.8c.2-.6.4-1.3.5-1.9.2-.6.3-1.2.4-1.8h1.7c-.4 1.8-.9 3.4-1.4 4.9-.5 1.5-1 2.9-1.5 4h-1.6zM221.6 61.4c0-.8.1-1.5.3-2.1.2-.6.5-1.1.9-1.5.4-.4.8-.7 1.3-.9.5-.2 1-.3 1.5-.3 1.2 0 2.1.4 2.8 1.1.6.8 1 1.9 1 3.4v.6h-6.1c.1.9.3 1.6.8 2.1s1.2.7 2.2.7c.6 0 1 0 1.4-.1.4-.1.7-.2.9-.3l.2 1.3c-.2.1-.5.2-1 .3-.5.1-1 .2-1.7.2-.8 0-1.5-.1-2-.4-.6-.2-1-.6-1.4-1-.4-.4-.6-.9-.8-1.5-.2-.3-.3-.9-.3-1.6zm6.2-.8c0-.7-.2-1.3-.5-1.8-.4-.5-.9-.7-1.5-.7-.4 0-.7.1-1 .2-.3.1-.5.3-.7.6-.2.2-.3.5-.5.8-.1.3-.2.6-.2.9h4.4zM235 56.8h.5c.2 0 .4 0 .5.1s.3.1.5.1c.1 0 .2.1.3.1l-.3 1.4c-.1 0-.3-.1-.6-.2s-.7-.1-1.1-.1c-.3 0-.6 0-.9.1-.3.1-.5.1-.6.1v7.5h-1.6v-8.6c.4-.1.8-.3 1.4-.4.6-.1 1.2-.1 1.9-.1z"/><g><path class="st5" d="M26.2 25.8c-1.2.9-2.2 1.2-3.1-.2-.2-.5.6-.7 1.3-1.4 1.1-1 1.6-1.7 1.8-3.3.1-.9.1-1.8-.3-2.7-.4-.8-1.4-1.4-2.1-1.4l-1-.1c-.3.2-1.1.1-1.1.1-.5.1-1.1.1-1.6.3-.1 0-.2.2-.1.2-1-.1-1.7.1-2 .5-.2.2-.3.3-.6.4-.2.1-.6.2-.8.2-.3 0-.5.2-.6.6l-1.4 1c-.9.8-3.5 2-5 4.6-1.4 2.7-.1 5.1 1.8 6.6 1 .7 2.1 1.3 3.1 1.8.4.3.8.5 1.2.7 2.1 1.1 4.1 2.4 5.9 3.9 1.4 1.2 2.4 2.7 3.1 4.3.5 1.4.2 2.7-.5 3.8-1.7 2.4-6.1 4.3-9.8 4.9-2.5.4-5 .3-7.4-.1-4.2-.8-6.9-3.7-7.1-7.7-.1-1.4.4-2.4 1-3.2l.4-.2c0-.1-.1-.1-.2-.1 1-1.1 2.4-1.6 2.7-1.7 1.4-.7 3.1 1 2.1 1.4-1.9.6-3.3 1.7-3.5 4-.1 1.7.5 4.3 2.1 5.3 1.2.7 2.3 1 3.4 1.1 1.3.1 2.7 0 4-.2 3.1-.5 6.1-2 8.1-3.3.8-.5 1.6-1.3 2.1-2.1.6-1 .9-2.1.3-3.3-.5-1.1-1.3-1.9-2.1-2.7-1.5-1.4-3.3-2.5-5.1-3.3-1.3-.6-2.4-1.4-3.6-2.2-1-.6-3.2-2.2-4-4.1-.9-2.2-.7-4.2.4-5.9.6-1 1.4-1.8 2.3-2.5 1.2-.9 2.3-1.7 3.6-2.4 3.3-1.6 5.1-2.3 7.5-2.5 1.8-.2 4.3 0 5.7 1 .5.3.9.9 1.1 1.4 1.2 2.9.4 6.4-2 8.5zM.5 44c.2.6.4 1.4.6 2.1.2-.4-.3-1.9-.6-2.1zm13.8-25.8c-1.7 1-3.6 1.8-4.7 3.4l.1.1c.1-.1.2-.1.3-.2.3-.4.6-.8 1.1-.9.3-.3.8-.7 1.3-.9.6-.3 1.3-.6 1.8-1 .1-.2.1-.3.1-.5zm8.2 26.1l-.6.7c-.5.3-.7.5-.9 1.1.5-.3.8-.5 1.1-.9.4-.3.4-.5.4-.9zm.9-2.3c.1.2 0 .3.1.5 0 .1.1.3.2.7.1-.6.1-.9-.3-1.2zM28.3 41.2c-.1-.1-.6-.4-.9-.6-.5-.7-.7-1.4-.5-2.3.2-.4.3-.7.4-1l.1-.1c.1-.3.2-.6.3-1l.4-.7c.2-.3.3-.6.5-.7.6-1 1.4-1.7 2.1-2.5.7-.8 1.7-1.4 2.8-1.6 1.2.2 2.6.5 2.8 1.8.2.8-.3 1.3-.6 1.9.5-.1.9-.5 1.6-.5.3.1.6.4.7.8 0 0 .1.6-.1 1.1-.1.1-.1.2-.1.3-.2.8-.2 1.7.2 2.5.1.2.2.5.5.6.1.1.2.1.4 0s.4-.1.6-.2c.9-.4 1.8-1.1 2.7-1.7.8-.5 1.6-1 2.4-1.6 1.4-.9 1.3-.8 2.6-1.6.4-.3.9-.6 1.4-1l.2.1-.6.8c.1.3.1.3.5.1 0-.1 0-.3.3-.2-.6.9-1.5 1.3-2.3 1.8-.3.2-.7.4-.9.5-.2.2-.4.5-.7.6-.1.1-.2.1-.4.1 0 0 0-.1-.1-.1.1 0 .2-.1.3-.2.2-.1.3-.3.3-.5 0-.1-.1-.1-.2-.1-.5.2-.8.5-1.2.8-.7.3-1.2.6-1.8 1.1-.2.1-.3.2-.6.3v.1c.2-.1.3-.1.5-.2.2-.2.4-.2.6-.1 0-.1-.1-.1-.1-.2.4-.2.7-.1 1-.4.3-.2.8-.3 1-.6 0 .1-.1.3-.2.4-.5.2-.9.6-1.4.8l-.3.3c-.1.1-.2.2-.4.2.2.1.3.1.4.1l-.1.1c-.1.1-.2.1-.4.1v.2c.3-.2.7-.3 1-.5v.1c-.3.2-.7.5-.9.8-.5.5-1 .6-1.6 1-.3.2-.5.1-.8.3-.1.1-.4.2-.6.2-.1 0-.3.1-.5.1s-.8.1-1 .1c-.1-.1-.5-.1-.6-.2-.2-.1-.3-.3-.5-.3-.3-.5-.8-.7-1-1.2-.3-.3-.3-.5-.5-.8-.1-.1-.1-.2-.2-.3-.4.2-.4.8-.8.8-.1.1-.2.3-.3.3-.7.5-1.6 1.3-2.5 1.7-.9.5-1.9.5-2.8.1.3.1.1.1-.1 0zm2.6-1.9c.8-.3 1.3-.7 1.8-1.3.9-.9 1.3-1.6 2.1-2.5.1 0 .3-.3.3-.3H35c-1.3-.1-.8-2.7-.8-2.7-1.7.3-3.8 3-4.4 4.1-.5.9-1 1.9-1.3 3.1.8-.1 1.9-.2 2.4-.4zm15-3.4c0-.2.1-.3.2-.3.1-.1.3-.2.5-.2.1-.1.3-.1.5-.1V35l.2-.2c0-.1 0-.1-.1-.1-.1.1-.4.3-.7.5-.4.2-1.2.8-1.2.9.1.1.3.2.5.3.1-.3.1-.5.1-.5z"/><path class="st5" d="M62.3 46.9c-.5-.3-.9-.9-1.2-1.6-.1-.5-.5-1.3-.5-2.1s-.2-1.6-.1-2.1l-.1-1.3c-.2-.1-.3 0-.7.3 0 .1-.1.1-.2.2-.8.8-1.6 1.3-2.2 2.1-.4.5-1 .7-1.4 1l-.4.3c-.2 0-.3-.1-.6-.1l-.5-.8c0 .2-.1.3-.2.5-.2.1-.3-.1-.4-.3 0-.1-.2-.1-.2-.3-.1-.1-.3-.2-.3-.3-.1-.6-1-.8-.3-1.3.1-.8.4-2.5.5-3.3.1-.1 0-.2-.1-.3-.7.9-1.3 1.6-1.6 2-.1.1-.3.2-.5.2.2.3-.2.6-.4.9l-.3.8c-.6.8-1 1.6-1.6 2.4-.2.3-.5.4-.8.6l-.3.3-.5.3c-.3-.2-.3-.7-.5-.9l-.3.5c-.3-.5-.5-1-.4-1.7.2-2 .6-3.9 1.1-5.8.3-1.1.5-2.2.8-3.3 0-.3.1-.6 0-.8-.1-.1.2-.3.2-.5.5.1.6.1 1 .2s.7.2.8.8c.1.6.1 1.2-.1 1.8-.1.8-.2 1.5-.5 2.3-.1.5-.8 2.2-.9 2.9.2-.1.3-.1.3-.2.2-.3.5-.8 1.2-2 .5-.6.9-1.5 1.6-2.1.4-.4.8-.9 1.2-1.2.2-.2.4-.1.6.1.3.4.9.6 1.4.5.2-.1.4 0 .6 0 .2.4.1.9.2 1.3.1.1.1.3.1.5-.1.5.1 1-.2 1.5-.2.5-.3 1.7-.4 2.4.8-.6 1.7-1.6 2.3-2.1.3-.3.8-.6 1.2-.8.2-.2.5-.3.9-.7.2-.1.5-.1.6 0 .6.2.8.5 1.4.7.1.1.2.2 0 .2.1.1.2.3.3.3.5 0 .5.6.5 1 .1.2.1.5.1.8v.3c-.2.3 0 .8-.1 1.1.1.5.1 1 .2 1.5.1.3.1.6.4 1.7.3.7.8 1 1.6.7.1-.1.3.3.2.5 0 .1-.1.2-.2.3 0 .2 0 .3-.3.7-.1-.1-1.5-.1-2-.6zM70 43.8c-.2-.1-.5-.1-.8-.1-.3-.2-.8-.3-1.2-.5-.3-.2-.6-.6-.9-.9-.2-.2-.3-.5-.4-.8-.1-.3-.2-.7-.2-1.2 0-.3 0-.7.1-1 .1-2.4 1.7-4.8 2.7-6.1.1-.1.1-.2.2-.2.1-.2.2-.3.3-.4.1-.1.6-.8.9-.9.5-.5 1-.6 1.5-.4.2.1.5-.1.8.1.3.1.6.3.9.5.3.2.7.3.9.5.3.2.6.5.9.8.1.1.1.4-.1.6 0 .2-.2.4-.3.6-.1.2-.5.1-.6 0-.3-.2-.6-.3-.8-.5-.2-.2-.3-.3-.4-.5-.1-.2-.2-.2-.3-.1-.5.2-1 .6-1.3 1.1-.2.5-.6.8-.9 1.2-.3.5-.6.9-1 1.4-.6.9-1 1.8-1.3 2.8-.2.5-.2 1.2-.1 1.7.1.2.2.2.4.3.7 0 1.4-.1 2.2-.3.5-.1.9-.2 1.3-.4.4-.1.8-.3 1.2-.5.2-.1.4-.3.7-.5.1-.1.2-.1.3-.2v.1c-.1.1-.2.1-.4.2v.1c.2 0 .3-.1.3-.1l1.4-.9c.7-.5 1.3-1 2-1.6.5-.3.8-.6 1.2-.9 0 0 .1-.1.1-.2-.1.1-.2.2-.5.3-.1-.1 0-.1 0-.1.4-.3 1-.7 1.4-1 .1-.2.3-.3.6-.5.1-.1.1-.3.3-.1.1-.1.1-.2.1-.2.3-.2.6-.5.9-.7.1 0 .2-.1.2-.1 0 .1.1.2.1.2-.1.3-.1.6-.5.8-.1 0-.1.1-.1.2.1.3-.2.3-.3.6l-.2.2-.2.2c-.1.1-.1.2-.2.3-.3.2-.5.3-.8.4-.1.1-.1.1-.2.1s-.1.1-.1.1c.1.1.1.2.3.3-.1.5-.5.6-.9.6 0 .3-.3.5-.5.7-.1 0-.1-.1-.1-.1 0-.1.1-.3.2-.4-.1 0-.2.1-.3.1-.2.2-.4.2-.6 0 .1-.1.1-.2.1-.4-.2.2-.5.4-.8.6-.6.5-1.2.9-1.7 1.4 0 .1-.1.1-.1.2-.4.2-1-.1-1.2.6.2 0 .4-.1.6.1.2.2.5.1.8 0-.2 0-.3-.1-.5-.1.1-.3.4-.4 1-.2l-1 .8c-.1 0-.1.1-.1.1-.5-.1-.7.4-.9.7-.1.1 0 .2 0 .5-.2.1-.5.2-.7.3-.5.2-1.1.3-1.6.5-.2.2-.3.4-.6.3l-1.2-.1zm5-1.4l-.6.3c-.1-.3 0-.4.6-.3zm1.6-2.6c.1 0 .3-.1.4-.2-.1-.1-.2-.1-.3-.1.1-.3.2-.3.5-.3.3-.1.6-.3.8 0 .1 0 .2-.1.3-.1 0 .1.1.2 0 .2-.5.3-.9.9-1.6 1 0-.1 0-.2.1-.3-.2.2-.5.3-.6.5-.1-.5.1-.7.4-.7z"/><path class="st5" d="M87 41.2c-.3-.6-.5-1.4-.4-2.2.1-1 .2-2.2.5-3.2.2-.9.4-1.6.6-2.5.1-.9-.8-.4-1.1-.2-.9.4-1.4.8-1.8 1.1-.9.5-1 .9-1.4 1.3-.2.4-.3.8-.4 1.3-.2.8-.5 2.4-.6 3.2-.1.4-.2.8-.3.8-.3 0-1.1-.1-1.5-.4-.1-.3.3-2.2.3-2.7.3-1.7 1.8-8.7 1.8-8.8.1-.1.1-.5.2-.6l-.2.1c-.5.2-1.8 1.3-2.1 1.2-.2-.1-.3-.2-.4-.3-.1-.2-.1-1.7.2-1.8 1.2-.7 2.5-1.7 3.5-2.5.2-.3.2-.3.2-.6v.1c.6-1.6 1-2.8 1.4-4.4.5-1.6 1.2-3.2 1.9-4.8.2-.5.4-1 .6-1.6.1-.2.2-.6.6-.5-.3-.1-.3-.2-.1-.4.3-.7.6-1.3 1-1.9.4-.8.9-1.6 1.3-2.3.2-.4.4-.8.8-1.2.1-.2.2-.5.2-.8.1-.1.3-.1.5-.2.5-.6.9-1.2 1.4-1.8-.1 0-.2 0-.3-.1.3-.1.5-.2.6-.3h-.2l.8-1c.3-.3.5-.6.9-.8.9-1 1.9-1.7 3.1-2.1 1-.3 1.7-.1 2.5.3.6.2 1 1.2.9 1.8-.1.2 0 .3-.1.5.1.1.1.2.1.2-.2.6-.4 1.2-.6 1.7-.1.1-.2.2-.2.3V5c-.5.5-.7 1-.8 1.7-.1.5-.3 1-.8 1.3-.5.5-.6 1.3-1.2 1.8-.7.8-1.1 1.6-1.7 2.4-.6.7-1 1.5-1.6 2.2-.6.9-1.2 1.8-1.8 2.5-.8 1.1-1.7 2.1-2.6 3.3-.3.5-.9.9-1.2 1.4-.3.3-.6.7-1 .9-.9 1-1.8 1.9-2.5 2.8-.3.2-.4.5-.5.7-.1.4-.1.7-.3 1 0 .2-.5 1.6-.7 2.3-.3 1.8-.3 1.7-.8 3.1.3-.4.8-.6 1.2-.9.6-.4 1.1-.8 2-1.1.6-.2 1-.2 1.3-.2.8 0 1.2.1 1.6.5.2.2.4.6.3 1 .2.5-.1 1.3-.2 2-.1 1-.5 1.9-.7 2.9-.2.9-.3 1.7-.3 2.6 0 .4.1.9.4 1.1.9.1 1.5-.2 2.2-.6.7-.4 2.4-1.8 3.1-2.4 1.5-1.3 2.3-2.4 3.5-3.5l.6-.6c.1-.1.2-.1.2-.1-1.1 1.4-2.4 2.7-4.2 4.4.2-.1.6-.3.8-.5.3-.1.6 0 .8-.3.1-.2.3-.2.5-.3-.1-.1-.1-.2-.1-.2.6-.8 1.2-1.4 1.8-2 0 .1.1.1.1.1-.2.3-.5.8-.6 1.3l.1.1c-.5.7-.8 1-1.4 1.7l-1.1 1.1c-.5.4-1.4 1.3-2.9 2.4l-1.2.8c-1.7 1.1-3.8.9-4.5-.5zm-3.7-11.5l.3-.9c-.1-.1 0-.1 0-.2.1-.3.2-.6.2-1 .2-.6-.1-.2-.2.5-.3 1-.5 1.8-.8 2.9 0 .3-.2.8-.2 1.3.4-.8.5-1.8.7-2.6zm1.5-6.1c.5-1.3.8-2.5 1.2-3.8h-.1c-.4 1.3-.8 2.5-1.2 3.8h.1zm1.4-4.7c.8-1.7 1.3-3.5 2.1-5.2l-.1-.1c-.8 1.8-1.3 3.5-2.1 5.3h.1zm4.1.9s-.1-.1 0-.1c.3-.3.6-.6.8-.9.3-.3.5-.5.6-.8.2-.3.2-.4.5-.4l.3-.6c.1.1.2.1.2.2l.1-.6c.2-.1.5-.2.5-.5.3-.4.9-.6.6-1 .1 0 .2 0 .3-.1 0-.1-.1-.1-.1-.1.2-.3.5-.6.8-.8-.1-.1-.1-.3-.1-.3.5 0 .9-.9 1-1.4.1-.1.3 0 .3-.1.3-.4.6-.9 1-1.3.3-.4.5-.9.7-1.4.2-.2.3-.3.4-.6.3-.1.5-.7.3-1 .6-.3.9-.8.8-1 .5-.4 1.7-3 1.7-4.1-.3 1.2-.9 2.4-1.6 3.5.1-.1.1-.1.2-.1 0 0 0 .1.1.1-.1.1-.2.1-.2.2-.1.1-.2.1-.2.2-.3.1-.3.3-.3.4-.8.9-1.6 1.6-2.1 2.6l-.1.1c-.2.3-.5.7-.7.9-.3.6-.6 1.2-1 1.6-.8 1-1.6 2.1-2.3 3.1L90.1 19c-.3.5-.8.9-1.2 1.3-.8.8-1.6 1.7-2.3 2.4-.3.4-.3.6-.3 1 1.4-1.4 2.6-2.6 4-3.9zm-.5-.9c1.1-1.3 2-2.6 3-3.9.7-.9 1.4-1.8 2.1-2.8.3-.5.9-1 1.1-1.6 0-.2.2-.5.3-.6.3-.2.4-.4.4-.8.3.1.3-.1.3-.4.1-.2.1-.3.2-.6.2-.2.5-.4.5-.6.3-.1.3-.1.4-.1-.1-.1-.1-.2-.1-.3.2-.3.6-.6.6-.9.8-1 1.8-4 1.7-4.5-.1.5-.3.9-.5 1.3h-.1l.4-1.6c-.1 0-.1 0-.1-.1-1.3.9-2.5 1.8-3.8 2.8l-1 1.3c-.2.2-.4.3-.5.5-.4.3-.5.6-.8.9-.5.6-.9 1.2-1.3 1.8-.5.6-.8 1.2-1 1.8-.2.2-.3.3-.4.5-.3.5-.6 1-.8 1.6-.3.3-.4.7-.5 1-.2.4-.4.9-.5 1.3-.1.2-.3.3-.3.5.1.5-.7.8-.5 1.3l-.1.1c-.1.2-.2.5-.3.7-.4.3-.3.9-.5 1.4-.3.6-.3 1-.5 1.6-.2.5-.4 1-.4 1.4-.1.3-.2.5-.2.6-.1.1 0 .1.1.1 1-1.4 2.1-2.4 3.1-3.7zM89.4 34c.2-.4.2-1.5.2-1.7-.1-.8-.2-.9-.3-.9.2 1.1.1 2-.2 2.6.1-.1.2 0 .3 0zm4-28.4c-.6.4-.6.4-.7.6.3-.2.4-.5.7-.6zm.7-1.2l-.1-.1-.7.9c.1 0 .1 0 .1.1l.7-.9z"/><path class="st5" d="M107.4 39.9c.8-.2 1.4-.9 2.1-1.3-.1.1-.1.2-.1.3-.2.2-.5.5-.8.6l-1.1.9c-.5.2-.8.5-1.2.8-.5.3-1 .7-1.6.9-.3.2-.8.2-1.2.2-.2 0-.3.1-.5.2s-.6.2-.9.2c-.5.1-.9.2-1.3.2-.6-.1-1.2-.2-1.7-.3-.5-.2-.8-.2-1.3-.7-.1-.1-.2-.2-.3-.2-.4-.3-.6-.6-1-1.2-.1-.1-.1-.1-.2-.7-.3-.7-.2-1.1-.2-1.5.1-1.2.3-2.3.9-3.3.2-.3.5-.7.8-1 .5-.6 1-1.2 1.6-1.8.5-.5 1.2-.9 1.9-.9.2 0 .3-.1.6-.1.6-.2 1.1.2 1.5.4.5.2 1 .6 1.4.9.5.3.8 1.3.6 1.7-.1.3-.3.6-.5.8-.5.6-1 1.1-1.6 1.6-.2.2-.5.2-.6.4-.1.4-.5.5-.7.6l-.4.2c.1 0 .2.1.2.1-.2.1-.3.2-.6.3-.1.1-.1.2-.1.3-.4.2-.9.4-1.2.6-.2.1-.3.2-.4.3-.5.2-.6.3-1 .5.2.7.3.8.8 1 .8-.1 1.5 0 2.3-.1.5-.1 1-.3 1.6-.5.4-.2.9-.4 1.3-.6.3-.1.6-.1.9-.3.6-.4 1.3-.8 1.9-1.1l.2-.1.1.1c-.1.1-.2.2-.2.3.1.1.1.1.1.2.2 0 .3-.1.5-.1.1.1.1.1 0 .1-.2.2-.5.4-.8.6.2.1.5.2.8.3-.2.1-.2.1-.3.2-.3-.1-.3 0-.3 0zm-9-2.4c.5-.3.8-.5 1-.6.1 0 .2.1.3 0 .2-.1.5-.3.7-.5-.2 0-.2.1-.4.1.3-.3.5-.6.9-.6-.1.2-.3.3-.4.5 0 0 0 .1.1.1.5-.3 1-.8 1.5-1.1l-.1-.1c-.1.1-.2.2-.5.3-.2.1-.3.2-.6.3.1-.1.1-.1.1-.2.6-.5 1-.9 1.6-1.4.3-.3.6-.6.8-1 .2-.3-.1-.8-.3-.7-.5.2-1 .2-1.5.6-.5.4-1 .7-1.4 1.2-.5.6-.9 1.3-1.2 2-.3.3-.4.7-.6 1.1zm5.1-2.9c.2-.3.5-.8.6-1.1l-.1-.5c-.4.5-.6.9-.5 1.6zm3.5 4.2c-.1-.2-.6 0-1 .5.5-.2.8-.3 1-.5zm.5-.8c.5-.3 1-.6 1.6-.9 0 .3-.4.4-1.6.9 0 .1 0 0 0 0zm3.5-1.5l.1.1c-.1.1-.3.3-.6.5l.1.2c-.2.1-.3.2-.2.4-.2.2-.6.2-.6.6 0 0 0 .1-.1.1-.4 0-.6.4-.9.6-.2.1-.4.3-.7.4-.1.1-.2-.1-.3-.1-.1-.1-.1-.2-.1-.3s.1-.1.1-.1c.5.1.9-.3 1.3-.5l.4-.2c.2-.1.3-.2.1-.6-.4.3-.9.6-1.4 1-.1-.1-.2-.1-.4-.2.4-.2 1.3-.8 1.7-1.4.1-.1.8-.4.9-.6l.4.2c.1-.2.2-.3.3-.4-.1-.1-.1-.1-.2-.1l.1-.1c.2 0 .3 0 .6-.1-.1-.1-.1-.2-.1-.2l.3-.2-.1-.1-.2.2h-.1l1-.6.1.4s.1 0 .1.1c-.2.1-.3.3-.5.4-.5.2-.8.4-1.1.6z"/><path class="st5" d="M122.6 39.9c.8-.2 1.4-.9 2.1-1.3-.1.1-.1.2-.1.3-.2.2-.5.5-.8.6l-1.1.9c-.5.2-.8.5-1.2.8-.5.3-1 .7-1.6.9-.3.2-.8.2-1.2.2-.2 0-.3.1-.5.2s-.6.2-.9.2c-.5.1-.9.2-1.3.2-.6-.1-1.2-.2-1.7-.3-.5-.2-.8-.2-1.3-.7-.1-.1-.2-.2-.3-.2-.4-.3-.6-.6-1-1.2-.1-.1-.1-.1-.2-.7-.3-.7-.2-1.1-.2-1.5.1-1.2.3-2.3.9-3.3.2-.3.5-.7.8-1 .5-.6 1-1.2 1.6-1.8.5-.5 1.2-.9 1.9-.9.2 0 .3-.1.6-.1.6-.2 1.1.2 1.5.4.5.2 1 .6 1.4.9.5.3.8 1.3.6 1.7-.1.3-.3.6-.5.8-.5.6-1 1.1-1.6 1.6-.2.2-.5.2-.6.4-.1.4-.5.5-.7.6l-.4.2c.1 0 .2.1.2.1-.2.1-.3.2-.6.3-.1.1-.1.2-.1.3-.4.2-.9.4-1.2.6-.2.1-.3.2-.4.3-.5.2-.6.3-1 .5.2.7.3.8.8 1 .8-.1 1.5 0 2.3-.1.5-.1 1-.3 1.6-.5.4-.2.9-.4 1.3-.6.3-.1.6-.1.9-.3.6-.4 1.3-.8 1.9-1.1l.2-.1.1.1c-.1.1-.2.2-.2.3.1.1.1.1.1.2.2 0 .3-.1.5-.1.1.1.1.1 0 .1-.2.2-.5.4-.8.6.2.1.5.2.8.3-.2.1-.2.1-.3.2-.4-.1-.3 0-.3 0zm-9-2.4c.5-.3.8-.5 1-.6.1 0 .2.1.3 0 .2-.1.5-.3.7-.5-.2 0-.2.1-.4.1.3-.3.5-.6.9-.6-.1.2-.3.3-.4.5 0 0 0 .1.1.1.5-.3 1-.8 1.5-1.1l-.1-.1c-.1.1-.2.2-.5.3-.2.1-.3.2-.6.3.1-.1.1-.1.1-.2.6-.5 1-.9 1.6-1.4.3-.3.6-.6.8-1 .2-.3-.1-.8-.3-.7-.5.2-1 .2-1.5.6-.5.4-1 .7-1.4 1.2-.5.6-.9 1.3-1.2 2-.4.3-.5.7-.6 1.1zm5-2.9c.2-.3.5-.8.6-1.1l-.2-.5c-.3.5-.5.9-.4 1.6zm3.6 4.2c-.1-.2-.6 0-1 .5.4-.2.7-.3 1-.5zm.4-.8c.5-.3 1-.6 1.6-.9 0 .3-.4.4-1.6.9 0 .1 0 0 0 0zm3.5-1.5l.1.1c-.1.1-.3.3-.6.5l.1.2c-.2.1-.3.2-.2.4-.2.2-.6.2-.6.6 0 0 0 .1-.1.1-.4 0-.6.4-.9.6-.2.1-.4.3-.7.4-.1.1-.2-.1-.3-.1-.1-.1-.1-.2-.1-.3s.1-.1.1-.1c.5.1.9-.3 1.3-.5l.4-.2c.2-.1.3-.2.1-.6-.4.3-.9.6-1.4 1-.1-.1-.2-.1-.4-.2.4-.2 1.3-.8 1.7-1.4.1-.1.8-.4.9-.6l.4.2c.1-.2.2-.3.3-.4-.1-.1-.1-.1-.2-.1V36c.2 0 .3 0 .6-.1-.1-.1-.1-.2-.1-.2l.3-.2-.1-.1-.2.2h-.1l1-.6.1.4s.1 0 .1.1c-.2.1-.3.3-.5.4-.4.2-.7.4-1 .6z"/><path class="st5" d="M143.5 9.8c-.1.3-.2.8-.2 1.2l-.1.6c0 .1 0 .2-.1.2-.1.1 0 .1-.1.2-.3.3-.2 1.1-.6 1.4-.1 0-.1-.1-.2 0 .1-.3.3-.6.3-.9.1-.3.3-.6.5-.9-.1 0-.1 0-.1-.1-.1.3-.2.7-.3 1-.1.2-.2.3-.2.5h-.1c.2-.8.5-1.3.6-1.8v-.1l-.2.2c-.3.6-.5 1.3-.8 2-.1.2-.3.4-.4.6l-.9 2c-.2.4-.5.8-.8 1.2-.1.1-.2.3-.3-.1.2-.1.3-.3.5-.5 0-.1-.1-.1-.1-.1-.1.1-.2.1-.3.1-.2.3-.5.7-.6 1.1-.1.3-.2.6-.4.9-.1.2-.3.5-.5.5-.1.2-.1.3-.1.5 0 .1-.1.1-.2.1v.1c.1.1.2 0 .4.1-.3.2-.3.4-.4.6-.2.2-.2.4-.3.6l.1.1c.1-.2.2-.5.4-.6.3.1.5.1.7.2-.1.1-.1.3-.2.1l-.1.1c-.1.2-.3.3 0 .3-.3.2-.6.2-.7.7.1-.1.2-.2.3-.2v.1c-.2.5-.3.7-.6 1-.1 0-.2.2-.3.3-.2.3-.3.6-.6.9-.1.1-.2.3-.2.5-.1-.1-.1 0-.2 0-.1.1-.2.1-.1.2.1 0 0 .1-.1.2-.5.6-.6.5-1 1.1s-.9 1-1.4 1.6c-.6.6-.9 1.2-1.5 1.9-.1.2-.3.1-.3.3-.1.3-.5.6-.8.9-.1.1-.6 3.1-.7 3.5l-.1.4c.1 0 .1 0 .3-.1.3-.3.6-.5 1.1-.9.8-.6 1.3-1.1 2.1-1.6.8-.4 1.4-.5 2.2-.5.4 0 .7.2 1.1.3.1.1.3.1.5.2-.1.1-.2.1-.3.2l1.4.5c.1.3.1.4.1.6 0 .4.1.9-.2 1.3-.1.7-.3 1.2-.6 1.8-.3.6-.6.8-.9 1-.9.8-1.3.9-2 1.3l-1.3.4c-.1 1 .4 2.2.8 2.9.1.2.2.2.3.2 1 .1 1.4 0 2.4-.3 1-.5 2.7-1.7 3.5-2.5.9-.8 1.4-1.3 2-1.8l.3.3-.3.9c-.2.5-.7 1.3-1 1.7-.5.5-1.4 1.8-2.1 2.3-.4.2-.9.5-1.2.7-.4.2-.8.3-1.3.5-.6.2-1 .2-1.5.2-.2 0-.3-.1-.4-.1-.5.1-1.2-.1-1.4-.5-.5-.3-.8-.5-1.1-.9-.3-.4-.5-.8-.6-1.3-.5-1.2-.5-2.3-.3-3.2l1.7-.9c1-.6 2.1-1.2 2.7-2.2.3-.6.5-1.2 0-2-.6-.2-1.2.2-1.7.5-.8.6-1.2.8-2.1 1.6-.4.4-.8.6-1.2.9l-.5.4-.7.5c-.1.2-.3 1.5-.3 1.6-.2.8 0 .9-.3 1.2 0 .3-.2.5-.2.8l-.1.5-.1.3-.2.8c.2.4 0 .7-.2 1-.2.5-.8.5-.8.1-.2-.1-.3-.1-.4-.3l-.2-.3-.4-.4c-.1-.1-.1-.3-.1-.5l.2-.9c.2-.4.2-.9.2-1.3l.2-.9c.2-.6.3-1.3.4-1.9.1-.3.2-1.1.3-1.6l.6-3V32c-.5.2-1.7 1.3-2 1.2-.2-.1-.4-.2-.5-.3-.1-.2-.1-1.7.1-1.8 1.1-.6 2.3-1.6 3.2-2.4.3-1.2.6-2.3.8-3.5.3-1.2.6-2.3 1-3.5.5-1.4.8-2.8 1.4-4.2.6-1.3 1-2.4 1.5-3.8.2-.5.5-.8.6-1.3.2-.4.3-.9.6-1.3.4-.8.9-1.2 1.3-2.1.1-.2.3-.5.5-.7.2-.5.5-.7.8-1.1.1-.1.2-.2.2-.3.1-.1.2-.1.3-.2.3-.5.6-.8 1.2-1.1.3-.1.6-.3 1-.3.3 0 .7.1 1.1.2.6.3 1 1 1.6 1.4.2.3.2.9.3 1.5.1.2.1.5.1.8 0 0 0 .3-.1.6zm-14 21v-.1l-.1-.1h-.1c-.1.3-.1.6-.1.9-.1.6-.3 1.4-.3 2.1-.1.1-.1.3 0 .3.2-.3.2-.5.2-.8.2-.9.3-1.6.4-2.3zm.9-3.2l-.2.8.1-.1c0-.2.1-.5.1-.7zm.3 7.6c.2-.1.4 0 .8 0-.6-.3-.6-.3-.8 0zm.3-6.2zm0 5.7c.6.2.6.2.6-.3-.1.1-.4.2-.6.3zm6.4-13.4c-.1 0-.3.1-.5.2l.3-.3c-.1.1-.3.2-.5.4.1-.1.1-.2.2-.3h-.1c-.3.4-.8.9-1.1 1.3l-.2.2c-.4.3-.6.7-1 1.2-.5.6-.9 1.2-1.5 2-.2-.3-.6.1-1 .9-.5.5-.8.9-.7 1.2-.1.1-.1.3-.2.9.1-.1.3-.3.4-.5.1-.2.2-.3.4-.4-.1 0-.1-.1-.2 0l-.3.3h-.1c.1-.1.2-.3.4-.5.1.1.1.1.3 0 .1-.2.2-.4.3-.5-.2.2-.3.3-.7.5.2-.1.3-.2.4-.4.2-.1.5-.3.5-.6.1-.1.3-.2.5-.5.1-.1.3-.2.5-.5l-.3.2c.5-.6.6-.3 1-.8-.2.1-.2.2-.3.2l.2-.2c.2-.2.4-.4.8-.7-.1 0 0-.1 0-.2l.1-.2c.2-.1.3-.2.5-.3 0 0-.1 0 0-.1l.1-.1c.1-.2.3-.5.4-.6l-.1.1c-.1 0-.2.2-.2.3-.1-.1-.1-.1-.1-.2.5-.4.8-.6.8-.8-.3.4-.5.4-.8.6.2-.5.6-.5.9-.8 0-.1 0-.2.1-.3.2-.2.1-.1-.2-.1.2-.1.3-.2.3-.2.3 0 .5-.2.7-.4zM141 7.5c-.3 0-.6.2-.9.4-.5.3-.7.7-1.2 1.3-.4.6-1 1.3-1.5 2.1s-.8 1.6-1.3 2.4c-.3.8-.8 1.3-.9 2.1l.1.1c-.1.4-.4.6-.5.9-.3.7-.5 1.3-.9 2.5-.6 1.8-.9 2.5-1.3 3.8-.5 1.5-.7 2.1-1.1 3.6l.2-.4c.6-.8 1.2-1.2 1.8-2.1.6-.7 1.1-1.3 1.6-2 .3-.3.6-.8.9-1.2.6-.9 1-1.7 1.5-2.4v-.1c.5-.9 1-1.7 1.4-2.4.5-.8.7-1.6 1.2-2.3.3-.7.8-1.7 1.1-2.7.1-.4.1-.8.4-1.4 0-1.7.1-2.1-.6-2.2zm-7.9 25.9c.3-.2.6-.5.9-.7-.1 0-.1-.1-.1-.1-.3.2-.8.3-.8.8zm.5-15.6c.2-.2.2-.5.3-.7l-.3-.1c-.1.3 0 .5 0 .8zm2.6 19c0 .2-.1.3-.3.3l-.5.3c.1 0 .1.1.1.2.1-.1.2-.1.2-.2.3-.2.5-.3.7-.5.1-.1.1-.2.2-.3l-.1-.1c0 .1-.3.2-.3.3zm3-17.6c.1.5.1.5-.2.6-.1.1-.1.3-.1.4-.1.1-.2.1-.3.1-.1 0-.1 0-.2-.1s-.1-.1-.2-.1c-.1-.1.1-.2.1-.3 0 0 .1.1.2 0 .1 0 .1 0 .2-.1-.2-.2-.2-.3-.1-.5l.2-.2c0-.1.1-.1.1-.1v.2c.1-.1.1-.1.2-.1 0-.1-.1-.1-.2-.2.2-.1.2-.2.3-.3 0 .1.1.1.1.2.1-.1.2-.2.4-.5-.1-.1-.2-.1-.3-.2l.4-.6c.1.2.1.3.1.5.2-.6.5-.9.8-1.5-.1 0-.1.1-.2.1.2-.4.3-.9.5-1.2.3-.4.5-.8.6-1.3.2-.3.3-.3.6-.2l-.2.3c-.2.3-.3.6-.3.8-.1.3-.2.5-.4.8-.2.8-.8 1.3-1 2-.1.1-.1.3-.2.6-.2.4-.5.9-.6 1.2-.1-.1-.1-.2-.1-.3-.1-.1-.2-.1-.2 0zm-.4-.8c0 .5-.2.6-.4.8 0-.3.3-.4.4-.8zm1.9-3.3c0-.1-.1-.1-.1-.2-.2.3-.4.8-.6 1.2.4 0 .3-.9.7-1zm-.2-.7s-.1-.1-.1-.2l-.3.9c.1-.1.3-.4.4-.7zM145.2 44.2c-.1-.1-.1-.1-.1-.2-.2.1-.2.1-.3.2-.7-.6-.9-1.4-.9-2.2-.1-1 .2-2.1.4-3.1.1-.8.4-1.6.7-2.4.2-.7.3-1.3.6-2 .1-.5.1-.9.2-1.3.1-.3.1-.4.5-.3.2 0 .3.1.3.1.1.1.2.1.2.1.2.1.6-.1.8.1.4.2.5.6.5 1l-.3 1c-.1.3-.2.7-.3 1.1-.2.3-.3.8-.5 1.3-.1.2-.1.4-.1.6-.1.2-.2.4-.2.6-.3.9-.4 1.9-.5 2.7 0 .1.1.1.2.1l.7-.7c.8-.8 1.4-1.5 2.2-2.4.8-.9 1.5-1.8 2.3-2.8.1-.1.2-.2.3-.2.2-.3.3-.3.6-.1 0 .1.1.1.1.1.5.1.9.1 1 .4v.1h.6c.1.2.2.4.2.5.1.1.1.2.1.2-.4.3-.5.7-.5 1.1l-.3 1.6c0 .3 0 .7-.1 1.1 0 .3.1.6 0 1l1.3-1.3c.6-.5 1-1 1.5-1.5.4-.6.9-1.4 1.4-2 .5-.8.8-1.7 1.2-2.4.2-.5.2-1 .3-1.4.2-.6.3-1.4.2-2.1-.1-.3-.1-.5-.2-.6l.1-.2c.3 0 .5.1.7.3.3.4.5.9.5 1.3 0 .6 0 1.2-.1 1.7s-.3.9-.5 1.2c-.1.2-.1.3-.1.4 0 .1-.1.1-.1.2-.1.2-.1.3-.3.5l-.2-.2c-.1.1-.2.2-.2.4v.2c-.2.5-.5.8-.6 1.3h.1c.1 0 .1 0 .1.1-.1 0-.1.1-.3.1 0 .1 0 .2.1.3-.2 0-.3.1-.5.1l.1.3h-.2v.5c.2-.2.6-.1.6-.6.1 0 .2.1.3.1.1-.3.1-.5.2-.8.5.2.5-.2.6-.4-.1-.2-.1-.3-.1-.3.1-.5.3-.9.5-1-.1.3-.2.6-.2 1 .1 0 .1 0 .1.1.2-.5.5-1 .6-1.5h.1c-.1.1-.1.2-.1.3-.3.6-.3 1.2-.7 1.8-.1.2-.2.5-.3.8-.2-.1-.2-.2-.3-.2-.1.1-.1.2-.2.3-.1.1-.1.2-.2.2l-.3-.2c-.1.1-.1.3-.2.5.2-.1.3-.1.6-.1-.1.3-.2.7-.6.8-.1 0-.1.1-.1.1-.5.8-1 1.4-1.6 2.1-.4.5-.8 1-1.3 1.3-.3.2-.7.5-1.1.8-.5.3-1.4.2-1.8-.2-.1-.1-.1-.1-.2-.1-.6 0-.7-.5-1-.9-.5-.9-.3-2-.3-3-.3.5-.8 1-1.2 1.4-.3.4-.6.7-.9 1.1-.1.1-.3.3-.4.5-.2.3-.4.6-.8.9-.3.3-.7.8-1.2.9-.3.1-.6.3-.9.3.1-.2-.1-.4-.3-.5zm6.7-2.9c.1-.4.1-.8.2-1.3-.2.1-.3.1-.3.2-.1.3-.1.7-.1 1.1h.2zm.6 1.9c-.1-.2-.2-.5-.3-.6-.1 0-.1 0-.2.1.1.1.2.3.2.5h.3zm5.8-6.5c.1 0 0-.1 0-.1-.2 0-.1-.2-.1-.2.2-.3.3-.5.5-.7-.1-.1-.1-.2-.2-.3-.2.2-.3.5-.5.8h.1c.1 0 .1 0 .2-.1l-.2.4-.1-.1c-.3.1-.1.2-.1.5.2-.1.3-.2.4-.2zm.7-1.5c-.2-.2.1-.3.1-.4-.2-.1-.2-.1-.4.7.2-.1.3-.3.3-.3zm.2-.7c0-.1-.1-.2-.1-.3l.1-.1c0 .1.1.2.1.2l.2-.6c.1-.2.1-.4.1-.6.2-.3.2-.3-.1-.5.1.3-.2.6-.2 1 .1.1-.1.3-.2.4-.2.2-.2.3-.2.5h.3zm1.3-.3l.1.1c.1.2-.1.5-.1.7h-.1c0-.2 0-.5.1-.8zm.3-1.2c.1 0 .1 0 .2.1l-.2 1h-.2c0-.4.2-.7.2-1.1zM174.3 39.9c.8-.2 1.4-.9 2.1-1.3-.1.1-.1.2-.1.3-.2.2-.5.5-.8.6l-1.1.9c-.5.2-.8.5-1.2.8-.5.3-1 .7-1.6.9-.3.2-.8.2-1.2.2-.2 0-.3.1-.5.2s-.6.2-.9.2c-.5.1-.9.2-1.3.2-.6-.1-1.2-.2-1.7-.3-.5-.2-.8-.2-1.3-.7-.1-.1-.2-.2-.3-.2-.4-.3-.6-.6-1-1.2-.1-.1-.1-.1-.2-.7-.3-.7-.2-1.1-.2-1.5.1-1.2.3-2.3.9-3.3.2-.3.5-.7.8-1 .5-.6 1-1.2 1.6-1.8.5-.5 1.2-.9 1.9-.9.2 0 .3-.1.6-.1.6-.2 1.1.2 1.5.4.5.2 1 .6 1.4.9.5.3.8 1.3.6 1.7-.1.3-.3.6-.5.8-.5.6-1 1.1-1.6 1.6-.2.2-.5.2-.6.4-.1.4-.5.5-.7.6l-.4.2c.1 0 .2.1.2.1-.2.1-.3.2-.6.3-.1.1-.1.2-.1.3-.4.2-.9.4-1.2.6-.2.1-.3.2-.4.3-.5.2-.6.3-1 .5.2.7.3.8.8 1 .8-.1 1.5 0 2.3-.1.5-.1 1-.3 1.6-.5.4-.2.9-.4 1.3-.6.3-.1.6-.1.9-.3.6-.4 1.3-.8 1.9-1.1l.2-.1.1.1c-.1.1-.2.2-.2.3.1.1.1.1.1.2.2 0 .3-.1.5-.1.1.1.1.1 0 .1-.2.2-.5.4-.8.6.2.1.5.2.8.3-.2.1-.2.1-.3.2-.3-.1-.3 0-.3 0zm-9-2.4c.5-.3.8-.5 1-.6.1 0 .2.1.3 0 .2-.1.5-.3.7-.5-.2 0-.2.1-.4.1.3-.3.5-.6.9-.6-.1.2-.3.3-.4.5 0 0 0 .1.1.1.5-.3 1-.8 1.5-1.1l-.1-.1c-.1.1-.2.2-.5.3-.2.1-.3.2-.6.3.1-.1.1-.1.1-.2.6-.5 1-.9 1.6-1.4.3-.3.6-.6.8-1 .2-.3-.1-.8-.3-.7-.5.2-1 .2-1.5.6-.5.4-1 .7-1.4 1.2-.5.6-.9 1.3-1.2 2-.3.3-.5.7-.6 1.1zm5.1-2.9c.2-.3.5-.8.6-1.1l-.2-.5c-.3.5-.6.9-.4 1.6zm3.5 4.2c-.1-.2-.6 0-1 .5.4-.2.7-.3 1-.5zm.5-.8c.5-.3 1-.6 1.6-.9-.1.3-.4.4-1.6.9 0 .1 0 0 0 0zm3.4-1.5s.1 0 0 0l.1.1c-.1.1-.3.3-.6.5l.1.2c-.2.1-.3.2-.2.4-.2.2-.6.2-.6.6 0 0 0 .1-.1.1-.4 0-.6.4-.9.6-.2.1-.4.3-.7.4-.1.1-.2-.1-.3-.1-.1-.1-.1-.2-.1-.3s.1-.1.1-.1c.5.1.9-.3 1.3-.5l.4-.2c.2-.1.3-.2.1-.6-.4.3-.9.6-1.4 1-.1-.1-.2-.1-.4-.2.4-.2 1.3-.8 1.7-1.4.1-.1.8-.4.9-.6l.4.2c.1-.2.2-.3.3-.4-.1-.1-.1-.1-.2-.1l.1-.1c.2 0 .3 0 .6-.1-.1-.1-.1-.2-.1-.2l.3-.2-.1-.1-.2.2h-.1l1-.6.1.4s.1 0 .1.1c-.2.1-.3.3-.5.4-.4.2-.8.4-1.1.6z"/><path class="st5" d="M205.3 7.1v.2c.1-.2.2-.3.3-.5-.3-.6.2-1 .3-1.6.1.6-.1 1.2-.2 1.6-.1.2-.1.6-.2.9-.1 0-.2-.1-.3-.1l-.2.4h.1c.1-.1.2-.1.3-.2v.1c-.1.7-.3 1.3-.5 2.1 0 .1-.2.2-.2.2.2.3-.1.5-.4.6-.1 0-.1.1-.1.2.1-.2.1-.2.2-.2.6.7-.2.3-.3.6.1.2.2.3.2.3v.1c-.1 0-.2 0-.3-.1 0 .3.1.6.1.9-.2 0-.3 0-.4.1v.1l-.1.3c-.1.3-.1.6-.1.9-.1 0-.1.1-.3.1-.3 0-.3.2-.2.4.1.1.1.4-.2.6 0 .2-.2.8-.5 1.2 0-.1 0-.3.1-.4-.2 0-.3 0-.5-.1l.4-.7c-.2 0-.4.3-.6.9.1 0 .3.1.4.2-.2.2-.7.3-.4.8-.1.2-.3.4-.3.6h-.1c.1.6-.1.8-.3 1.1-.3.3-.5.5-.8.6.1.2.2.2.2.3h-.1c-.3.5-.7.9-.8 1.3-.2.5-.4.8-.5 1.2l-.1-.1c.1-.1.1-.2.1-.4-.1.1-.1.2-.3.3v-.3c.1-.1.2-.2.2-.3.1-.3.1-.4.3-.5.1 0 .1-.2.2-.2.2-.3.5-.7.8-1.2.2-.2.2-.4.4-.7l-.1-.1c-.2.1-1.1.9-1.3 1-.1.5-.2.6-.6.6 0-.1 0-.3.1-.5 0 0-.1 0-.2-.1-.2.3-.5.6-.7.9-.2.4-.5.9-.9 1.3-.1 0-.2.1-.1.2-.1.3-.2.5-.5.6 0 0 0 .1.1.2-.1.1-.4.2-.3.6l-.1.1c-.2.3-.5.6-.8 1-.1 0-.1.2-.2.3.1.1.1.1.2.1.2-.3.5-.5.6-.8.1 0 .1-.1.1-.2.5-.2.7-.8.9-1.2.2-.3.5-.6.7-.9.3-.3.5-.7.8-1.2.2-.3.2-.3.6-.2.2.3-.8.1-.4.7-.3.1-.3.4-.4.7-.1.1-.1.2-.1.2-.7.3-.7.8-.9 1.1-.3.6-.8 1-1 1.4v.2c.2-.2.2-.2.5-.4.2-.3.4-.7.6-1.1.1-.3.5-.4.9-.3-.2.4-.8.1-.8.7.3.1.3.1-.1.5-.1 0-.2-.1-.2-.1-.1.8-.8 1.5-1.2 2.1h-.2c.2-.4.5-.8.6-1.3 0 0-.1 0-.1-.1 0 .2-.1.3-.2.4 0 0-.1 0-.1-.1v-.2h-.1l-.8.8-1.3 1.8c-.3.3-.5.5-.7.8-.3.5-.6.9-1 1.4-.1.1-.2.1-.2.1-.3.1-.5.1-.4.4-.2-.1-.5-.2-.6.1-.1.1-.1.3-.1.7.3 0 .5-.1.7-.3.4-.5.9-.8 1.2-1.4.4-.4.7-.9 1.1-1.3.4-.6.8-1.2 1.2-1.7 0-.1.2-.2.3-.2l.1.1c-.1.1.2.4.5.3-.2.1-.2.2-.3.5-.1-.1-.3-.1-.5-.1-.1.4-.5.6-.4 1.2-.1-.1-.2-.1-.3-.1v.1c.1.1.2.1.2.2-.2.1-.3.1-.5.2.3.3-.1.5-.2.7-.3.2-.5.5-.8.8-.3.3-.3.3-.4.3-.1.1-.1.2-.2.4-.1.1-.2.2-.2.3l-2.5 3.2c-.1.2-.1.3-.1.4v.2c0 .1 0 .2-.1.3.1.1.1.3-.1.6-.1.1.1.4.1.6l.3 2 .2.6c0 .1.1.4.2.5.2.3.5.5.7.6.8.2 1 .2 1.8.2s1.7-.3 2.6-.6c1.4-.5 2.8-1.4 4.2-2 .3-.2.6-.3.9-.5.1-.1.1 0 .2 0-1.7 1.2-3.2 2-5 2.8l.4.1c.3 0 .6.2.9-.1.1-.1.3-.1.6-.1l.1-.3c.8-.6 1.6-1 2.3-1.5.1.1.1.1.2.1-.4.4-.6.7-1.1 1.1 0 0 .2.1.2.2-.8.6-.9.7-1.6 1.3-.6.3-2 .7-2.5 1-.4.2-.9.3-1.4.4-.3.1-.6.1-.9.1s-.8-.1-1.2-.1c-.8 0-1.7-.3-2.3-.6-.7-.5-1-.9-1.2-1.5l-.2-.2-.1-.2c-.2-.8-.5-1.5-.6-1.9l-.6.9c-.1.1-.2.4-.3.6-.6.8-.7.8-1 1.2l-1.3 1.3c-.5.3-1 .6-1.7 1-.9.6-1.8.5-2.7.3-.4-.1-.9-.5-1.3-.8-.2-.2-.3-.6-.6-1-.1-.1 0-.3-.1-.6-.1-.5-.6-1-.5-1.7.2-.6.3-1.2.4-1.8v-.1h.1c.2-.6.5-1.4.6-1.7 0 0 0-.1.1-.1.3-.6.5-1 .8-1.3l.3-.5c3.5-3.9 6.8-2.2 6.8-2.2s1.8 1.4-.1 3h-.1c-.8.1-1.1-.3-1.2-1.1-.2-.6-.8-.7-1.7-.3-.3.2-.6.3-.8.6-.8.6-1.4 1.6-1.8 2.4-.1.2-.3.7-.4.8 0 .1 0 .2-.1.4-.2.6-.3 1.3-.3 1.6-.1.2-.1.4-.2.5-.4.8-.1 1.4-.2 2.1.8.3 1.4 0 1.8-.2.5-.3.8-.5 1.3-.9s.8-1 1.3-1.4c.2-.5.7-.8 1-1.2l1.6-2.2.9-1.7c0-.1 0 .1.4-.9 0-.1.1-.3.1-.4.1-.1.1-.3.1-.5l.6-3.9c.2-1 .4-1.8.7-2.9.2-.8.3-1.5.5-2.4.1-.2.2-.5.3-.8l.3.1c.1-.2.2-.3.2-.6-.2.1-.3.3-.5.4 0-.1 0-.3.1-.3l.9-3c.3-1.4.9-2.8 1.4-4.2.1-.2.1-.2.4-.1 0-.1.1-.2.1-.3-.2.1-.3.1-.5.2.2-.6.4-1.2.6-1.5l.5-1.6c.3-.5.5-1 .9-1.7.2-.3.2-.7.5-1.1.2-.3.4-.6.5-.8l.5-1c0-.1 0-.1.1-.2.3-.4.6-.9.9-1.5 0-.1.1-.1.1-.1.2-.3.5-.6.6-.9l.1-.1c0-.5.5-.8.7-1.1.2-.3.5-.6.8-1 .8-.9 1.9-1.4 3.2-1.6.9-.2 1.9.1 2.7.6.6.3.8 1 1.2 1.7.1.5-.2 1-.1 1.4 0 0-.1.2-.2.2l.5.2V4h-.3c-.4 1.1-.6 2.2-.7 3.1zM177.9 37h-.1c0 .1 0 .2.1.3 0-.1.1-.1.1-.1V37zm7.8.1c-.2.1-.3.1-.4 0-.2.3-.5.6-.8.9h.1l.2-.1c.1.1.1.1.2.3.2-.4.5-.7.7-1.1zm4-13.7h-.2c-.1.4-.1.8-.2 1.3h.1c0-.3.2-.9.3-1.3zm10.2-8.3c.4-.6.8-1.2 1-1.9l.9-2.5.5-1.2c.3-.8.5-1.6.6-2.3.2-1.2.4-2.1.6-3.3.1-.9.2-1.8-.2-2.7 0-.2-.1-.3-.1-.3-.2.1-.5.1-.7.3l-.4.5c-.2.2-.4.3-.6.4l-1.1 1.1c-.7.7-1.3 1.6-1.9 2.4-.2.3-.4.6-.5.8-.2.4-.5.9-.9 1.4-.1.3-.3.8-.5 1.1-.2.4-.3.8-.5 1.2-.2.4-.4.8-.6 1.1-.1.3-.2.6-.2.8-.2.3-.3.4-.5.7-.1.3-.2.8-.3 1.2-.3.6-.5 1.3-.8 2-.2.4-.5.8-.6 1.3H193.4c-.3.3-.2 1-.6 1.1 0 .1.1.2.1.3-.1.4-.2.8-.3 1.1-.2.6-.4.9-.5 1.4-.1.3-.1.8-.3 1.2-.1.4-.3.8-.5 1.2-.1.2.1.6.2.6-.2.3-.2.5-.3.7-.1.1-.1.2-.1.2-.3.5-.1.9-.3 1.3 0 .1.2.1.2.1 0 .1.1.2 0 .2-.2.3-.3.6-.5.9-.1-.1-.1-.2-.1-.3-.1.1-.2.1-.2.1.2.3.3.6.1 1-.2.4-.2.8-.8.8.5.2.5.2.3.6l.2-.2c.2-.2.4-.5.6-.8.5-.6 1-1.3 1.6-2 .3-.3.6-.9 1-1.3l1.1-1.6 1.3-1.8c.4-.6.8-1.3 1.2-1.8.2-.5.6-1 1-1.5.8-1.3 1.5-2.4 2.1-3.6zm-10.2 10.1c.4-.8.5-1.2.3-1.4 0 .5-.3.9-.3 1.4zm.4-1.7s.1 0 0 0c.3-.9.6-1.7.8-2.7 0 0-.1 0-.1-.1l-.7 2.8zm1 5.5c-.2.3-.3.5-.6.8-.1 0-.1-.1-.1-.1-.1.2-.1.3-.1.5l.2.1c.2-.2.3-.5.6-.8.3-.3.2-.4 0-.5zm-.2-8.5h.2c.1-.5.2-.9.3-1.3-.1 0-.1-.1-.2-.1 0 .5-.1.9-.3 1.4zm.4-3h.1c.2-.5.3-1 .5-1.6-.1 0-.2.1-.2.1-.1 0-.1.1-.1.1 0 .4-.2.9-.3 1.4zm1.7-4.8c-.1.2-.2.5-.5.8.5-.2.6-.7.5-.8zm.1 2.1s0 .1.1.1c.1-.4.3-.8.4-1.2 0 0-.1 0-.1-.1-.1.5-.2.9-.4 1.2zm.4-2.9l.2-.5c.3-.5.5-.9.7-1.5.2-.2.2-.5.2-.6.1-.2.2-.3.3-.5.1-.3.3-.8.5-1.1.2-.4.5-.9.8-1.3.6-.9 1-1.8 1.7-2.6.1-.2.3-.5.5-.8v-.2c-.1.1-.2.2-.3.2-.1.3-.4.6-.6.9-.2.1-.3.4-.4.6-.2.1-.2.4-.3.6-.1.1-.3.3-.4.6-.1.3-.3.6-.6.7.1.1.2.2.2.3-.3.4-.6.9-.9 1.4-.1.5-.5.7-.5 1.2-.2.3-.3.6-.6.8l-.6 1.5c-.1 0 0 .1.1.3zm1.3 13.4c-.2-.1-.7.2-.7.3-.1.1 0 .3-.1.5.4.1.6-.1.8-.8zm9-16.3c-.1.3-.3.7-.5 1-.2.5-.3.9-.5 1.3-.2.6-.5 1.2-.8 1.7-.2.5-.5 1.1-.8 1.6-.3.3-.5.7-.7 1.1-.1.3-.2.6-.4.8-.2.1-.2.5-.5.7-.2.1-.4.6-.5.9v.2h.2v-.1c-.1-.1-.1-.1-.2-.1.1-.2.2-.3.3-.6.2-.1.2-.3.3-.4.3-.5.7-.8.9-1.2.1-.3.2-.5.4-.7l.3-.6c0-.1.1-.1.1-.1.5-.1.4-.5.6-.9v.4c-.1-.5.2-.8.6-.9-.2-.7.3-1.3.5-2 .3-.6.6-1.4.7-2.1z"/><path class="st5" d="M226.3 7.1v.2c.1-.2.2-.3.3-.5-.3-.6.2-1 .3-1.6.1.6-.1 1.2-.2 1.6-.1.2-.1.6-.2.9-.1 0-.2-.1-.3-.1l-.2.4h.1c.1-.1.2-.1.3-.2v.1c-.1.7-.3 1.3-.5 2.1 0 .1-.2.2-.2.2.2.3-.1.5-.4.6-.1 0-.1.1-.1.2.1-.2.1-.2.2-.2.6.7-.2.3-.3.6.1.2.2.3.2.3v.1c-.1 0-.2 0-.3-.1 0 .3.1.6.1.9-.2 0-.3 0-.4.1v.1l-.1.3c-.1.3-.1.6-.1.9-.1 0-.1.1-.3.1-.3 0-.3.2-.2.4.1.1.1.4-.2.6 0 .2-.2.8-.5 1.2 0-.1 0-.3.1-.4-.2 0-.3 0-.5-.1l.4-.7c-.2 0-.4.3-.6.9.1 0 .3.1.4.2-.2.2-.7.3-.4.8-.1.2-.3.4-.3.6h-.1c.1.6-.1.8-.3 1.1-.3.3-.5.5-.8.6.1.2.2.2.2.3h-.1c-.3.5-.7.9-.8 1.3-.2.5-.4.8-.5 1.2l-.1-.1c.1-.1.1-.2.1-.4-.1.1-.1.2-.3.3v-.3c.1-.1.2-.2.2-.3.1-.3.1-.4.3-.5.1 0 .1-.2.2-.2.2-.3.5-.7.8-1.2.2-.2.2-.4.4-.7l-.1-.1c-.2.1-1.1.9-1.3 1-.1.5-.2.6-.6.6 0-.1 0-.3.1-.5 0 0-.1 0-.2-.1-.2.3-.5.6-.7.9-.2.4-.5.9-.9 1.3-.1 0-.2.1-.1.2-.1.3-.2.5-.5.6 0 0 0 .1.1.2-.1.1-.4.2-.3.6l-.1.1c-.2.3-.5.6-.8 1-.1 0-.1.2-.2.3.1.1.1.1.2.1.2-.3.5-.5.6-.8.1 0 .1-.1.1-.2.5-.2.7-.8.9-1.2.2-.3.5-.6.7-.9.3-.3.5-.7.8-1.2.2-.3.2-.3.6-.2.2.3-.8.1-.4.7-.3.1-.3.4-.4.7-.1.1-.1.2-.1.2-.7.3-.7.8-.9 1.1-.3.6-.8 1-1 1.4v.2c.2-.2.2-.2.5-.4.2-.3.4-.7.6-1.1.1-.3.5-.4.9-.3-.2.4-.8.1-.8.7.3.1.3.1-.1.5-.1 0-.2-.1-.2-.1-.1.8-.8 1.5-1.2 2.1h-.2c.2-.4.5-.8.6-1.3 0 0-.1 0-.1-.1 0 .2-.1.3-.2.4 0 0-.1 0-.1-.1v-.2h-.1l-.8.8-1.3 1.8c-.3.3-.5.5-.7.8-.3.5-.6.9-1 1.4-.1.1-.2.1-.2.1-.3.1-.5.1-.4.4-.2-.1-.5-.2-.6.1-.1.1-.1.3-.1.7.3 0 .5-.1.7-.3.4-.5.9-.8 1.2-1.4.4-.4.7-.9 1.1-1.3.4-.6.8-1.2 1.2-1.7 0-.1.2-.2.3-.2l.1.1c-.1.1.2.4.5.3-.2.1-.2.2-.3.5-.1-.1-.3-.1-.5-.1-.1.4-.5.6-.4 1.2-.1-.1-.2-.1-.3-.1v.1c.1.1.2.1.2.2-.2.1-.3.1-.5.2.3.3-.1.5-.2.7-.3.2-.5.5-.8.8-.3.3-.3.3-.4.3-.1.1-.1.2-.2.4-.1.1-.2.2-.2.3l-2.5 3.2c-.1.2-.1.3-.1.4v.2c0 .1 0 .2-.1.3.1.1.1.3-.1.6-.1.1.1.4.1.6l.3 2 .2.6c0 .1.1.4.2.5.2.3.5.5.7.6.8.2 1 .2 1.8.2s1.7-.3 2.6-.6c1.4-.5 2.8-1.4 4.2-2 .3-.2.6-.3.9-.5.1-.1.1 0 .2 0-1.7 1.2-3.2 2-5 2.8l.4.1c.3 0 .6.2.9-.1.1-.1.3-.1.6-.1l.1-.3c.8-.6 1.6-1 2.3-1.5.1.1.1.1.2.1-.4.4-.6.7-1.1 1.1 0 0 .2.1.2.2-.8.6-.9.7-1.6 1.3-.6.3-2 .7-2.5 1-.4.2-.9.3-1.4.4-.3.1-.6.1-.9.1s-.8-.1-1.2-.1c-.8 0-1.7-.3-2.3-.6-.7-.5-1-.9-1.2-1.5l-.2-.2-.1-.2c-.2-.8-.5-1.5-.6-1.9l-.6.9c-.1.1-.2.4-.3.6-.6.8-.7.8-1 1.2l-1.3 1.3c-.5.3-1 .6-1.7 1-.9.6-1.8.5-2.7.3-.4-.1-.9-.5-1.3-.8-.2-.2-.3-.6-.6-1-.1-.1 0-.3-.1-.6-.1-.5-.6-1-.5-1.7.2-.6.3-1.2.4-1.8v-.1h.1c.2-.6.5-1.4.6-1.7 0 0 0-.1.1-.1.3-.6.5-1 .8-1.3l.3-.5c3.5-3.9 6.8-2.2 6.8-2.2s1.8 1.4-.1 3h-.1c-.8.1-1.1-.3-1.2-1.1-.2-.6-.8-.7-1.7-.3-.3.2-.6.3-.8.6-.8.6-1.4 1.6-1.8 2.4-.1.2-.3.7-.4.8 0 .1 0 .2-.1.4-.2.6-.3 1.3-.3 1.6-.1.2-.1.4-.2.5-.4.8-.1 1.4-.2 2.1.8.3 1.4 0 1.8-.2.5-.3.8-.5 1.3-.9s.8-1 1.3-1.4c.2-.5.7-.8 1-1.2l1.6-2.2.9-1.7c0-.1 0 .1.4-.9 0-.1.1-.3.1-.4.1-.1.1-.3.1-.5l.6-3.9c.2-1 .4-1.8.7-2.9.2-.8.3-1.5.5-2.4.1-.2.2-.5.3-.8l.3.1c.1-.2.2-.3.2-.6-.2.1-.3.3-.5.4 0-.1 0-.3.1-.3l.9-3c.3-1.4.9-2.8 1.4-4.2.1-.2.1-.2.4-.1 0-.1.1-.2.1-.3-.2.1-.3.1-.5.2.2-.6.4-1.2.6-1.5l.5-1.6c.3-.5.5-1 .9-1.7.2-.3.2-.7.5-1.1.2-.3.4-.6.5-.8l.5-1c0-.1 0-.1.1-.2.3-.4.6-.9.9-1.5 0-.1.1-.1.1-.1.2-.3.5-.6.6-.9l.1-.1c0-.5.5-.8.7-1.1.2-.3.5-.6.8-1 .8-.9 1.9-1.4 3.2-1.6.9-.2 1.9.1 2.7.6.6.3.8 1 1.2 1.7.1.5-.2 1-.1 1.4 0 0-.1.2-.2.2l.5.2V4h-.3c-.4 1.1-.6 2.2-.7 3.1zM198.9 37h-.1c0 .1 0 .2.1.3 0-.1.1-.1.1-.1V37zm7.8.1c-.2.1-.3.1-.4 0-.2.3-.5.6-.8.9h.1l.2-.1c.1.1.1.1.2.3.2-.4.5-.7.7-1.1zm4-13.7h-.2c-.1.4-.1.8-.2 1.3h.1c.1-.3.2-.9.3-1.3zm10.2-8.3c.4-.6.8-1.2 1-1.9l.9-2.5.5-1.2c.3-.8.5-1.6.6-2.3.2-1.2.4-2.1.6-3.3.1-.9.2-1.8-.2-2.7 0-.2-.1-.3-.1-.3-.2.1-.5.1-.7.3l-.4.5c-.2.2-.4.3-.6.4l-1.1 1.1c-.7.7-1.3 1.6-1.9 2.4-.2.3-.4.6-.5.8-.2.4-.5.9-.9 1.4-.1.3-.3.8-.5 1.1-.2.4-.3.8-.5 1.2-.2.4-.4.8-.6 1.1-.1.3-.2.6-.2.8-.2.3-.3.4-.5.7-.1.3-.2.8-.3 1.2-.3.6-.5 1.3-.8 2-.2.4-.5.8-.6 1.3H214.4c-.3.3-.2 1-.6 1.1 0 .1.1.2.1.3-.1.4-.2.8-.3 1.1-.2.6-.4.9-.5 1.4-.1.3-.1.8-.3 1.2-.1.4-.3.8-.5 1.2-.1.2.1.6.2.6-.2.3-.2.5-.3.7-.1.1-.1.2-.1.2-.3.5-.1.9-.3 1.3 0 .1.2.1.2.1 0 .1.1.2 0 .2-.2.3-.3.6-.5.9-.1-.1-.1-.2-.1-.3-.1.1-.2.1-.2.1.2.3.3.6.1 1-.2.4-.2.8-.8.8.5.2.5.2.3.6l.2-.2c.2-.2.4-.5.6-.8.5-.6 1-1.3 1.6-2 .3-.3.6-.9 1-1.3l1.1-1.6 1.3-1.8c.4-.6.8-1.3 1.2-1.8.2-.5.6-1 1-1.5.8-1.3 1.5-2.4 2.1-3.6zm-10.2 10.1c.4-.8.5-1.2.3-1.4 0 .5-.3.9-.3 1.4zm.4-1.7s.1 0 0 0c.3-.9.6-1.7.8-2.7 0 0-.1 0-.1-.1l-.7 2.8zm1 5.5c-.2.3-.3.5-.6.8-.1 0-.1-.1-.1-.1-.1.2-.1.3-.1.5l.2.1c.2-.2.3-.5.6-.8.3-.3.2-.4 0-.5zm-.2-8.5h.2c.1-.5.2-.9.3-1.3-.1 0-.1-.1-.2-.1 0 .5-.1.9-.3 1.4zm.4-3h.1c.2-.5.3-1 .5-1.6-.1 0-.2.1-.2.1-.1 0-.1.1-.1.1 0 .4-.2.9-.3 1.4zm1.7-4.8c-.1.2-.2.5-.5.8.5-.2.6-.7.5-.8zm.1 2.1s0 .1.1.1c.1-.4.3-.8.4-1.2 0 0-.1 0-.1-.1-.1.5-.2.9-.4 1.2zm.4-2.9l.2-.5c.3-.5.5-.9.7-1.5.2-.2.2-.5.2-.6.1-.2.2-.3.3-.5.1-.3.3-.8.5-1.1.2-.4.5-.9.8-1.3.6-.9 1-1.8 1.7-2.6.1-.2.3-.5.5-.8v-.2c-.1.1-.2.2-.3.2-.1.3-.4.6-.6.9-.2.1-.3.4-.4.6-.2.1-.2.4-.3.6-.1.1-.3.3-.4.6-.1.3-.3.6-.6.7.1.1.2.2.2.3-.3.4-.6.9-.9 1.4-.1.5-.5.7-.5 1.2-.2.3-.3.6-.6.8l-.6 1.5c-.1 0 0 .1.1.3zm1.3 13.4c-.2-.1-.7.2-.7.3-.1.1 0 .3-.1.5.4.1.6-.1.8-.8zm9-16.3c-.1.3-.3.7-.5 1-.2.5-.3.9-.5 1.3-.2.6-.5 1.2-.8 1.7-.2.5-.5 1.1-.8 1.6-.3.3-.5.7-.7 1.1-.1.3-.2.6-.4.8-.2.1-.2.5-.5.7-.2.1-.4.6-.5.9v.2h.2v-.1c-.1-.1-.1-.1-.2-.1.1-.2.2-.3.3-.6.2-.1.2-.3.3-.4.3-.5.7-.8.9-1.2.1-.3.2-.5.4-.7l.3-.6c0-.1.1-.1.1-.1.5-.1.4-.5.6-.9v.4c-.1-.5.2-.8.6-.9-.2-.7.3-1.3.5-2 .3-.6.6-1.4.7-2.1z"/><path class="st5" d="M231.6 35c-.1.1-.2.1-.2.1-.1 0-.2 0-.3.1.1.1.2.1.3.2-.1.1-.2.1-.3.3 0 .1-.2 0-.3 0 .1.2-.1.4-.3.6-.2.2-.3.3-.5.2-.1-.1 0-.3-.1-.4h-.1c0 .1-.1.1-.1.1 0 .2-.1.3-.3.3-.1 0-.2.1-.2.2-.1.1-.1.3 0 .3.2.2.1.2-.1.3l-.6.6-.1-.1.3-.3s0-.1.1-.1c-.6.3-1 .8-.8 1 .1-.1.1-.2.2-.2.2 0 .3-.1.5-.1 0 .1.1.2 0 .3-.2 0-.3 0-.5.1.1.1.1.1.1.2.2-.1.3-.2.5-.3 0-.3.2-.5.4-.8.6-.5 1-1 1.5-1.6.1 0 .1-.1.2-.1l.1.1c-.3.5-.7.9-1.2 1.4-.2.3-.6.6-.9.9-.1.2-.2.3-.4.5-.1.1-.1.2-.1.3.2-.2.4-.3.6-.5-.1.3-.5.5-.8.8-.1.1-.1.2-.2.3.1 0 .1 0 .1.1.2-.1.3-.3.6-.5 0 .1.1.2 0 .2-.2.2-.5.5-.6.7-.1.1-.2.3-.3.4l-.3.3c-.5.3-.9.8-1.2 1.2-.2.3-.5.5-.9.8-.2.2-.6.3-.9.4-.3.2-.8.3-1.2.6-.5.1-.8-.1-1.2-.2-.6-.1-.8-.6-1.2-.9-.1-.1-.1-.2-.2-.3-.1-.2-.2-.3-.3-.5-.1-.2-.2-.3-.3-.6-.1-1 .1-2.1.4-3.1.1-.8.3-1.5.6-2.3.2-1 .5-2 .8-3.1v-.5c-.1-.2 0-.4.2-.4.2-.1.3-.2.5.1.2.3.6.5.8.8.2.2.5.4.6.6.1.2.1.6.1.9 0 .3-.1.6-.2.9l-.6 2.1c-.1.2-.2.5-.3.7-.1.1-.1.2-.1.3.2.5-.2 1-.2 1.6 0 .5-.2 1-.2 1.6.6-.2 1.2-.4 1.6-.8.9-.8 2-1.6 2.8-2.5.9-.8 1.7-1.7 2.6-2.5.7-.6 1.4-1.3 2.2-2 .2.4.2.7-.1 1.2zm-8.4-6.5c-.3-.4-.5-.9-.3-1.4.3-.9.9-1.3 1.7-1.7.1-.1.3-.1.3-.1.6-.1 1 .1 1.1.5.2.6.4 1.2.2 1.8s-.8 1-1.3 1.3c-.3.1-.6.1-1-.1-.2 0-.5-.2-.7-.3zm4.7 10c-.6 0-.7.7-1.2.9v.1c.3-.1.6-.2 1-.3 0-.1-.1-.1-.1-.1-.1 0-.1.1-.2.1l-.1-.1.6-.6zm1.5-.1c.1 0 .1 0 .1.1-.1.2-.1.3-.2.6-.1-.1-.2-.1-.2-.2l.3-.5z"/><path class="st5" d="M231.1 43.6c-.1-.1-.1-.2-.1-.3-.4.1 0 .4-.2.5-.3-.1-.7-.6-.6-1.1.2-1 .3-1.9.5-2.9.3-1 .6-2 .9-3.1.2-.7.2-1.3.3-2 0-.1 0-.2-.1-.2-.2-.2-.1-.5-.1-.9.1-.4.2-.5.5-.5.8.1 1.3.6 1.7 1.2l.1.1c-.1.5-.2.9-.2 1.3-.1.4-.1.7-.2 1.1-.1.4-.3.8-.4 1.2 0 .1 0 .1-.1.2.1-.1.1 0 .1-.1.6-.9 1.2-1.7 1.9-2.4.3-.4.8-.8 1.2-1.2.3-.2.3-.2.9-.2.5 0 .6.1.8.1.2 0 .3.1.5.3-.2 0-.3.1-.5.1v.2c.5.1.7.5 1.2.2.1.3 0 .6.2.7.1 0 0 .2 0 .3.2.5.3 1 .3 1.6 0 .5-.1.9-.1 1.4 0 .1.1.3 0 .5.1.4.1.9.1 1.3l.2.6c0 .1.2.3.2.3h.2c.1-.1.2-.1 1.2-.6.3-.1.7-.3 1-.5.3-.1.7-.5 1-.6.2-.1.3-.2.3-.2.2-.2.6-.5.9-.6-.1-.1-.2-.1-.1-.1-.3.2-.8.5-1.1.8l-.1-.1c2.1-1.7 3.8-3.7 5.4-5.7 0 0 .1 0 0 .1s-.2.3-.3.4-.3.3-.1.5c0 0 0 .1-.1.1-.2.1-.2.1-.4.3h.3c-.2.1-.3.4-.5.6l-.1.8h.1c-.1.3-.1.5-.2.8-.1.2-.3.5-.6.7l-1 1.2c-.1.1-.1.3-.3.5 0 0 0 .1.1.2-.1.1-.2.1-.2.1-.2.5-.7.8-1.1 1.2-.3.4-.9.8-1.4 1.2-.8.6-1.8.6-2.7.8h-.1c-.4-.2-.6-.2-.9-.5-.5-.4-1-.9-1.2-1.7-.3-1-.5-2.1-.4-3.3 0-.3.1-.7.1-1l-.3-.3c-.2.6-.4.8-.8.9-.1.5-.4.8-.8.9.1.5-.3.5-.5.8-.1.2-.4.5-.3.5.2.4-.3.2-.3.4-.1 0-.1 0-.2-.1.1.3-.2.5-.5.6.1.1.1.1.1.2l-.1.1.2.2c-.3.6-.7 1.1-1 1.7-.2.3-.5.5-.8.5l-.2.4-.2.2c-.2.5-.5.5-.9.4-.3-.7-.2-.9-.1-1.1zm3.5-6.7c.1 0 0 .1 0 0-.1.2-.1.3-.2.5l.1.1c.2-.1.3-.2.6-.3l-.2-.2c.1-.1.2-.1.2-.1.1-.2.3-.5.6-.3.1 0 .1-.1.1-.1-.1-.3.1-.5.3-.6.1.1.2.1.2.1l.3-.3c-.4-.1-.7-.1-.9.2l-.7.8-.9 1.1s.1 0 .1.1l.4-1zm1.4.2h.2c0-.2-.1-.3-.2-.4-.1.2-.5.2-.3.6-.1.1-.3.1-.3.1 0 .2 0 .2.1.3.1-.2.5-.1.5-.6zm9 2c.3-.2.5-.4.7-.7l.5-.5-.1-.1-1.3 1.3.1.1c0 .1.1 0 .1-.1z"/><path class="st5" d="M263.2 46.6l-4.7 1.3c-.1.1-.2.1-.3.1-.4-.1-.5.1-.8.5 0 .1-.1.2-.1.3.1.2.2.4.2.7-.3-.1-.5-.1-.7-.1l-.1.1c.1.1.2.1.3.1-.1.3.3.5-.1.9.2.4.1.7-.2.8.1.5 0 .6-.4.8l.2.2c-.1.2-.1.3-.2.4h.2c.1 0 .1 0 .1.1-.1 0-.2.1-.3.2l-.3.3c.1.2.3.3.4.5-.2 0-.4.1-.6 0v.1l.5.1c.1.4.1.5-.6.4-.1.2-.1.3-.1.7.2-.3.4-.4.7-.6.1.3.1.5-.2.6-.7.1-.7.5-.5.9l.2-.3c.1.1.3.1.3.2-.2.5-.3 1-.4 1.4-.1.3-.1.7-.2 1-.2.3-.4 0-.5-.1-.1.1-.1.2-.1.2-.2.6-.1.6.2.5-.1-.1-.1-.2-.2-.5.2.1.4.1.4.2.1.2.1.4 0 .6-.1.1-.3.2-.3.5-.1.1-.3.1-.6.2-.1.1-.1.1-.1.2.2 0 .3-.1.5-.1 0 .2 0 .3-.1.5l-.3-.3c-.1.2-.2.2-.2.3l.3.1c.1.1.1.3 0 .5-.1-.1-.2-.2-.3-.4-.1.4-.1.6-.2.9.1.1.3.2.4.3.1.2-.3.8-.6.9.1.1.1.2.2.2l-.4.3c.1.2.1.4.1.6l-.6-.1v.1c.2 0 .3 0 .6.1 0 .1.1.1.1.1-.2.1-.3.1-.5.2.3.4-.1.7-.2 1.2-.2.3-.6.5-.7.8-.2.1.1.8-.5.4.1.2.1.3.3.5.1.3-.3.2-.6.3.1.1.2.1.3.2-.2.1-.3.2-.4.2.2.6-.6.5-.8.9l.3.2-.6.9c-.1 0-.1-.1-.1-.1-.2.2-.6.5-.8.6 0 .1 0 .1.1.1h.2c0 .1.1.1.1.1-.5.6-1.2 1.2-1.7 1.7 0 .5-.2.6-.5.9-.4.4-.9.7-1.2 1.1l-.1.1c-.6.2-.9.8-1.7.8-.2.1-.3.4-.5.5-.3.2-.7.4-1 .4-.7.2-1.3.2-2.1.2-.2.1-.5.1-.6 0-1-.3-1.8-.6-2.6-1-.7-.3-1.3-.9-1.6-1.6-.1-.2-.3-.3-.5-.6-.2-.6-.4-1.2-.8-1.9-.1-.1-.1-.3-.2-.5.1-.4.1-.7.1-1 .1-1 .2-2 .5-2.9.2-.8.3-1.6.6-2.4.1-.1.1-.2.2-.2.1.1.1.1.2.3.2-.6.4-1.2.6-1.6l-.2-.1-.2.2c-.1 0-.1 0-.1-.1.2-.2.3-.5.4-.8.5-1 1.1-2 1.7-2.9.5-.9 1.3-1.8 1.9-2.7.1-.1.2-.2.3-.2l.6-.6c.2-.2.4-.5.6-.7.1.1.2.1.3.1l-.7.8c-.3.2-.5.3-.8.5 0 .1-.1.2-.1.4.2-.1.3-.2.4-.2.1-.1.2-.2.2-.3.2-.2.2-.3.3-.5.2-.1.4-.1.5-.1.6-.6 1-1.1 1.7-1.7.3-.4.6-.7 1-1 .1 0 .3 0 .4-.1.1-.1.2-.2.2-.4-1.3.5-2.1 1.7-3.2 2.4 0-.1-.1-.1-.1-.1.1-.1.3-.4.7-.6.3-.3.6-.8 1.2-1.1.9-.7 1.8-1.3 2.8-2 .8-.6 1.7-1.2 2.7-1.6l2.2-1.2c.9-.3 1.8-.6 2.5-1.1l.2-.1c.7-.2.9-.5.9-1.2-.1-.1-.1-.2-.1-.3.1-.3.1-.6.2-.9.1-.1.1-.1.1-.2.5.6.1 1.3.2 2 .1-.1.2-.2.2-.3l.3-2.3c0-.2.1-.3.1-.5.1-.3.2-.8.3-1.2.1-.6.1-1.1.3-1.8 0-.1.1-.3.1-.5.1-.5.1-1.2.2-1.7V38c-.1.1-.1.2-.2.2-.3 1.9-.7 3.8-1.1 5.7-.1.2-.1.3-.1.5-.1 0-.2.1-.3.1v.1c0-.2 0-.3-.1-.5l.2-.2c-.4-.6.1-1 .1-1.4h.4v-.1h-.3c.1-1.2.4-2.4.6-3.5l-.1.1-.1.1c-.1-.1-.3-.2-.4-.2-.1.1-.2.3-.3.3-.2.2-.2.3-.5.5 0 0-.6.9-1.6 1.6v.1c-.9.3-1.3.6-2 .9-.3.1-.6.2-1 .2-.4.1-.9.1-1.3 0l-1.4-.5c-.2-.1-.3-.3-.4-.5 0-.2-.2-.4-.3-.5-.5-.3-.5-.9-.5-1.5-.3-.9 0-1.8.3-2.7.2-.3.4-.8.5-1 .1-.3.3-.7.6-1.2.1 0 .1 0 .1-.1.6-.5.8-1.6 1.5-2.1.3-.2 1.3-1.1 1.6-1.2.6-.2 1.3-.4 2-.2.3.1.8 0 1 .1.3.3 1.1.4 1.4.6.6.5.9.8 1.4 1.3l.4.8c.3-.3.8-.9 1-1.1l.7.2c.6.1.8.1 1.4.3l-.2 1.1c-.2.4-.3.9-.5 1.3-.1.3-.2.6-.2.9-.5 1.8-.6 3.6-1 5.4-.2.9 0 1.7-.3 2.5-.1.5 0 1-.2 1.5l.1.3c.8-.1 1.4-.2 2.2-.3.7-.1 1.4-.1 2 0 .5-.1.9.4.9.7zm-26.5 16.5c0 .4-.2.8-.5 1.1.2-.3.2-.8.2-1.1h.3zm19-14c-.1 0-.1 0-.1-.1-.1.2-.1.3-.2.3-.1-.1-.2-.1-.2-.1l-.3 1.8c-.1.2-.1.6-.5.6.2-.8.3-1.6.5-2.4-.5.1-.8.4-1.2.5-1.4.6-2.8 1.1-4 2-.8.5-1.7 1-2.6 1.7-.6.5-1.4.8-2.1 1.4-.2.3-.7.6-.9.9-.3.3-.6.4-.9.6-.3.3-.6.6-.9 1.1-.4.3-.8.8-1.2 1.1-.1.2-.3.6-.8.5 0 0-.2.1-.2.2l-.3.4c.6.5-.1.6 0 1-.5-.1-.7 0-.6.4.1-.1.2-.1.2-.2l-.9 2.1h-.1c.1-.2.2-.3.2-.5-.1 0-.1-.1-.2-.1-.1.2-.2.3-.3.5-.1.2-.1.6-.2.9-.2.2-.3.5-.3.8-.2.5-.2 1-.3 1.4-.2.8-.5 1.6-.5 2.4-.1 1.1.1 2.1.1 3.1.1 1.2.8 1.9 1.7 2.4.3.1.7.2.9.3.3 0 .7-.1 1-.1v.2c-.5-.1-1 0-1.7.1.1.1.2.1.2.1.8.3 1.7.2 2.4-.1.4-.1.9-.4 1.2-.5 1-.3 1.7-.9 2.5-1.6.7-.6 1.4-1.4 2-2.1.9-1.2 1.5-2.2 2.3-3.3.8-1.2 1.3-2.4 1.9-3.6.5-.9.8-1.7 1-2.7.5-1.4 1-2.7 1.3-4 .3-1 .5-2.1.7-3.2.1-.6.3-1.2.3-1.9l.5.6c-.1.1-.2.1-.2.2l-.3.9-.3 2.3c0 .1-.1.3-.3.5 0 .3-.1.7-.2.9-.2.8-.4 1.7-.7 2.5-.2.9-.5 1.6-.8 2.5-.1.3-.2.5-.5.8.1.3-.1.8-.3 1-.1.1-.2.1-.2.1.2.3-.1.6-.3.7-.2.1-.3.3-.5.5h.5c-.3.5-.4 1.3-.9 1.6h.1c-.2.3-.2.8-.7.8-.1 0-.1.1-.2.3.2-.1.3-.1.5-.2-.4.5-.6.8-.8 1.2 0 .1-.1.1-.2.2s-.2 0-.3.1v.1l.3.1c-.2.2-.4.5-.5.8l-.6.8c-.1 0-.1-.1-.2-.1l.9-1.3c-.4.1-1.6 1.8-1.7 2 .2-.2.5-.3.7-.6l.1.1c-.3.3-.3.9-1 .7-.1 0-.2.1-.2.1-.8.6-1.4 1.5-2.3 2.1l-1 .7c-.2.1-.2.2-.3.2.1.1.2.1.3.1-.1.2-.3.5-.4.6 0 .1.1.2.1.2l.9-.6c.6-.3 1.2-.9 2-.9-.2-.1-.3-.2-.5-.2.2-.1.4-.1.6-.1 0 0 0-.1.1-.1.3-.3.8-.5 1-.9.2-.3.6-.6.6-.8-.2-.4.2-.2.3-.3.1-.3.4-.5.4-.6.1-.4.2-.5.3-.7.3-.3.4-.8.8-1 .5-.4.3-1.1.9-1.5.1 0 0-.1.1-.1.2-.4.3-.9.6-1.3.3-.2.4-.5.6-.8.1-.5.1-.8.3-1.2l.5-1c.2-.6.4-1.2.5-1.9.1-.3.3-.6.4-.9.2-.2.1-.5.3-.8.1-.2.1-.5.1-.7.1-.4.1-.8.2-1.1.1-.1 0-.2 0-.3.1-.2.2-.4.3-.7.3-.1-.3-.8.4-1l-.3-.1c.1-.2.2-.5.2-.6 0-.1-.1-.4.1-.5.3-.8.3-1.4.5-2.3 0-.2-.1-.3-.2-.3.1 0 .2-.1.3-.1v-.5c-.1 0-.1 0-.1-.1-.1 0-.1-.1-.1-.1.1-.1.1-.1.2-.1.2-.2.5-1.4.3-1.5l-.3.2s-.1 0-.1-.1c.1-.1.2-.2.2-.3.1 0 .1.1.2.1.3-.1.4-.3.4-.6zm-18.6 14.6c.1 0 .2.1.4.1V63l-.1.1c-.1.1-.2.3-.3.6zm.7-2.6l.2.1c.1-.2.3-.2.5-.1l-.6.6c.5.1.8-.2.6-.6.1-.1.3-.1.3-.2.2-.3.3-.6.5-.8.2-.4.5-.6.8-1 0 0 0-.1-.1-.2.1-.1.3-.2.5-.2l-.1-.1c-.1 0-.1 0-.3-.1.3-.2.5-.4.8-.7.2-.2.3-.3.3-.5.2-.3.3-.5.9-.5-.2.2-.3.3-.3.5-.3.1-.4.3-.6.5l.1.2c.3-.3.5-.5.9-.7.5-.6 1-1 1.7-1.6l.2-.5c.3-.1 1.2-.9 1.3-1.3h.5v.1c-.1-.1-.3-.1-.5-.2l2-1.4.1.1.3-.3c.1-.1.3-.2.5-.2.6-.2 1.2-.6 2-1 .2-.1.3-.3.5-.4.8-.3 1.3-.6 2-.8.8-.3 1.4-1 2.3-1.2.2-.1.3-.4.1-.6.1-.2.2-.3.3-.6-.2 0-.4-.1-.5.1-.3.3-.6.3-1 .3-.1-.1-.2.2-.3.2l-.1.1c-.2.1-.3.1-.5.1-.4.1-.7.1-.6.5-.2.1-.4.2-.6.2-.4 0-.8.5-1.2.5v.2c.2 0 .5.1.6.1.5-.2 1-.5 1.5-.8.1 0-.1-.1-.1-.3l.3.3c.6-.6 1.3-.8 2-.8-.5.2-1 .4-1.5.7-.5.3-1 .6-1.7.8-.2.1-.4.2-.7.2-.3.1-.5.1-.7.2-.1.2-.4.3-.7.5-.2.1-.3.2-.5.4-.5.2-1.2.5-1.7.8l.2.2c-.6.2-1.1.4-1.3 1-.2 0-.5.1-.5.2v.2c-.6-.1-.9.1-.8.5-.2.1-.7.1-.7.2-.1.3-.5.5-.8.8-.2.2-.3.5-.5.7.3-.2.5-.2.6.1-.3.1-.5.3-.7.4-.1-.3-.2-.3-.4-.2-.1.1-.1.2-.2.3 0 .1.1.1.1.1.2-.1.3-.2.4-.2 0 .1.1.2 0 .2-.1.2-.3.3-.6.5 0 .1.1.2.1.3-.3.1-.5 0-.8.1.2-.3.4-.4.6-.6-.2.1-.3.1-.6.1l.1.1c-.3.3-.6.6-.8 1-.3.2-.6.3-.8 0-.5.5-.8 1-1.2 1.6h.2c.1 0 .2-.1.3-.1-.1.1-.1.2-.1.3-.1.2-.3.4-.5.6.1-.2.1-.3-.1-.5-.1.2-.2.3-.5.5h.5c.1 0 .1.1.2.1-.2.3-.4.8-1.1.9.2-.3.2-.1 0 0zm4.3 13.8c-.4.1-.8.1-1.1.2-.1.1.1.1.1.2.2.1.9-.1 1-.4zm3.5-2.1l.1.1c-.5.4-.9.9-1.3 1.2l-.1-.1c.2-.5.8-.8 1.3-1.2zm.1-20.6c.3.2.5.1.8.1.1-.1.3-.2.3-.4.4-.2.7-.5 1.2-.8.1-.1.2-.3.3-.3.5-.1.9-.3 1.3-.8h-.5c.1.1 0 .2.1.3-.5-.3-.8 0-1 .4-.1 0-.2 0-.2.1-1 .6-1.6 1-2.3 1.4zm.9 19.5l.2.2c-.3.2-.6.5-1 .9.1-.1-.1-.2-.1-.2l.9-.9zm9-35.4c.4.1.5-.3.6-.5-.2-.1-.3-.3-.5-.5s-.3-.5-.2-.9c.1-.4-.2-1.4-.4-1.5-.1-.2-.3-.3-.5-.3-.9.1-1.7.3-2.4 1-.5.4-.9.7-1.3 1.1-.1.1-.3.3-.4.5l.1.3c-.3.4-.7.8-1 1.2-.3.7-.6 1.4-.9 2-.2.6-.3 1-.1 1.5.2 0 .4-.1.6-.1.9-.1 1.6-.4 2.4-.7.3-.1.6-.6 1.3-.3-.2-.5 0-.6.3-.6h.1c.2-.4.6-.7 1-.9.1 0 .2-.2.3-.3.2-.3.9-.4.9-.9 0 0 0-.1.1-.1zm-6.3 13.6c.2 0 .5.2.6.1.2-.1.4-.2.5-.3-.2 0-.7-.1-1.1.2zm6.2 7.6c0-.1 0-.2-.1-.2s-.2-.1-.2-.1c0 .1-.1.2-.1.3-.1.2-.1.3-.1.5.1.1.2.1.2.1.1-.2.3-.4.3-.6zm.1-.8c.1-.2.1-.4.2-.6-.4.1-.5.2-.2.6zm1.3-19.5c-.4.1-.5.3-.6.6h-.5v.2l-.1-.1v.1c-.1 0-.1 0-.1.1-.1 0-.1.1-.1.1 0 .2-.1.3-.1.5.3-.1.5-.4.6-.4.3 0 .4-.2.5-.4 0-.1.1-.1.1-.1.2-.3.3-.4.3-.6z"/></g></svg>