<svg xmlns="http://www.w3.org/2000/svg" viewBox="0 0 512.001 512.001" fill="#F2ADBF"><path d="M509.059 96.612l-93.668-93.67a10.041 10.041 0 00-8.109-2.89L355.19 5.309a10.042 10.042 0 00-9.017 9.416l-4.453 77.189c-34.637-20.738-74.353-31.808-115.771-31.808-60.353 0-117.093 23.503-159.769 66.178C23.504 168.96.001 225.701.001 286.054c0 60.353 23.503 117.093 66.179 159.769s99.417 66.179 159.769 66.179c60.352 0 117.093-23.503 159.769-66.179s66.179-99.417 66.179-159.77c0-41.418-11.071-81.133-31.809-115.771l77.24-4.463a10.04 10.04 0 002.745-.557 10.044 10.044 0 006.62-8.45l5.256-52.092c.303-3-.758-5.976-2.89-8.108zm-49.968-21.565l-10.328 18.615-30.424-30.424 18.616-10.328 22.136 22.137zm-24.768 32.581l-44.221 23.17a230.013 230.013 0 00-4.383-4.515 232.79 232.79 0 00-4.514-4.383l23.17-44.221 29.948 29.949zm-29.766-87.114l17.625 17.625-18.616 10.328-25.3-25.3 26.291-2.653zm-39.624 17.724L389.495 62.8l-23.894 45.603a223.022 223.022 0 00-4.516-3.475l3.848-66.69zm6.583 393.382c-38.882 38.883-90.579 60.296-145.568 60.296S119.264 470.502 80.38 431.62c-38.883-38.882-60.296-90.579-60.296-145.568 0-54.989 21.414-106.686 60.296-145.568 40.132-40.133 92.849-60.2 145.568-60.2 52.717 0 105.434 20.066 145.568 60.2 80.267 80.267 80.267 210.871 0 291.136zm35.557-280.705a230.49 230.49 0 00-3.475-4.515l45.603-23.894 24.562 24.562-66.69 3.847zm81.762-17.179l-25.3-25.3 10.328-18.616 17.625 17.625-2.653 26.291z"/><path d="M314.71 374.813c-23.71 23.709-55.232 36.766-88.76 36.766-5.546 0-10.042 4.496-10.042 10.042 0 5.546 4.496 10.042 10.042 10.042 38.893 0 75.46-15.147 102.963-42.649 14.162-14.162 25.045-30.679 32.349-49.09 2.045-5.156-.478-10.992-5.633-13.037-5.153-2.047-10.992.478-13.037 5.632-6.288 15.851-15.668 30.081-27.882 42.294zM361.28 297.958l.147.001c5.479 0 9.96-4.402 10.038-9.9.01-.668.014-1.338.014-2.006 0-5.546-4.497-10.042-10.042-10.042s-10.042 4.496-10.042 10.042c0 .574-.004 1.149-.012 1.721-.08 5.545 4.351 10.105 9.897 10.184z"/><path d="M225.948 100.273c-49.623 0-96.277 19.324-131.365 54.413-35.036 35.036-54.331 81.69-54.331 131.366 0 49.677 19.295 96.33 54.332 131.366 35.088 35.089 81.742 54.414 131.365 54.414 49.623 0 96.277-19.324 131.366-54.413 35.036-35.036 54.332-81.69 54.332-131.366s-19.296-96.33-54.332-131.366c-35.091-35.09-81.744-54.414-131.367-54.414zm117.165 302.944c-31.296 31.296-72.906 48.532-117.164 48.532-44.259 0-85.868-17.235-117.164-48.532-31.243-31.242-48.449-72.852-48.449-117.165 0-44.312 17.206-85.921 48.449-117.163 31.295-31.296 72.905-48.532 117.164-48.532 44.258 0 85.868 17.235 117.164 48.532 31.242 31.242 48.449 72.852 48.449 117.163 0 44.313-17.207 85.922-48.449 117.165z"/></svg>